<svg width="24" height="24" viewBox="0 0 24 24" fill="none" xmlns="http://www.w3.org/2000/svg">
<path d="M14.2471 9.34174C14.6106 8.92622 15.2426 8.88366 15.6582 9.24701C16.0737 9.61059 16.1163 10.2425 15.7529 10.6581L12.8828 13.9384C12.178 14.7439 10.9637 14.852 10.1279 14.1835L8.375 12.7812L8.29882 12.7128C7.93703 12.3578 7.89529 11.7793 8.21875 11.3749C8.54224 10.9706 9.11622 10.8839 9.54199 11.1591L9.625 11.2187L11.3779 12.621L14.2471 9.34174Z" fill="#000"/>
<path d="M9.96972 1.80853C11.2624 1.23407 12.7376 1.23407 14.0303 1.80853L19.0088 4.02045C20.815 4.82322 22.0411 6.64815 21.9102 8.68939C21.7094 11.8178 21.1552 14.2031 19.9736 16.2402C18.7923 18.2766 17.0398 19.8668 14.626 21.5048C13.0423 22.5795 10.9571 22.576 9.375 21.5048C6.97261 19.8784 5.20674 18.303 4.01367 16.2685C2.81893 14.2311 2.25599 11.833 2.07129 8.66205C1.95306 6.6323 3.17842 4.82624 4.97168 4.02924L9.96972 1.80853ZM13.2187 3.63568C12.4431 3.29093 11.5569 3.29093 10.7812 3.63568L5.78418 5.85736C4.68619 6.34536 4.0026 7.417 4.06836 8.54584C4.24328 11.5488 4.76475 13.5965 5.73828 15.2568C6.71359 16.9199 8.20065 18.2945 10.4961 19.8486C11.403 20.4626 12.5993 20.4635 13.5029 19.8505C15.8017 18.2906 17.2778 16.9031 18.2441 15.2372C19.21 13.5722 19.7235 11.5305 19.9141 8.56146C19.9871 7.42325 19.3015 6.33977 18.1963 5.84857L13.2187 3.63568Z" fill="#000"/>
</svg>
