<svg width="24" height="24" viewBox="0 0 24 24" fill="none" xmlns="http://www.w3.org/2000/svg">
<path d="M12.2047 19.375C12.2047 19.375 5.38148 18.8847 1 14.2374L7.95529 10.2083C7.95529 10.2083 8.09319 16.5401 14.5307 17.8925C21.408 19.3378 21.8577 12.5898 21.8577 12.5898L23 14.4519C23 14.4519 20.3957 20.4053 13.4285 18.4325C8.0008 16.8959 6.58077 12.7874 6.58077 12.7874L3.53005 14.5016C3.53005 14.5016 6.53778 17.9367 12.2047 19.375Z" fill="#009FCC"/>
<path d="M15.5362 12.6232C15.5362 12.6232 12.4511 13.1186 9.83775 10.3264C9.83775 10.3264 10.8338 10.6036 12.7142 10.7703C12.7142 10.7703 10.5598 9.78622 9.63101 8.52535C9.63101 8.52535 10.3782 8.83826 12.6321 8.97868C12.6321 8.97868 12.304 8.70284 11.3258 8.23779C9.01891 6.95368 8.33325 5.625 8.33325 5.625C9.44651 6.51783 10.8851 6.02627 15.1985 7.32556C20.6458 8.96638 21.084 10.767 21.1613 11.8106C21.2691 13.2692 19.7043 14.7917 19.7043 14.7917C19.7043 14.7917 20.5857 11.0765 17.204 9.43258C13.5648 7.66383 10.0254 6.90277 10.0254 6.90277C10.0254 6.90277 10.2334 7.21934 11.1552 7.71685C11.1552 7.71685 11.5795 7.93103 11.7894 8.02669C13.0302 8.56204 13.7863 8.81483 14.0649 9.43489C14.0649 9.43489 12.7185 9.73532 11.2961 9.29332C11.2961 9.29332 12.2764 10.2038 14.137 11.2125C14.137 11.2125 12.9388 11.544 11.5159 11.1016C11.5159 11.1016 12.9556 12.6259 15.5362 12.6232Z" fill="#FDBF00"/>
</svg>
