<svg width="24" height="24" viewBox="0 0 24 24" fill="none" xmlns="http://www.w3.org/2000/svg">
<path d="M11 4C11 3.44772 10.5523 3 10 3H4C3.44772 3 3 3.44772 3 4V8C3 8.55228 3.44772 9 4 9H10C10.5523 9 11 8.55228 11 8V4ZM13 8C13 9.65685 11.6569 11 10 11H4C2.34315 11 1 9.65685 1 8V4C1 2.34315 2.34315 1 4 1H10C11.6569 1 13 2.34315 13 4V8Z" fill="#000"/>
<path d="M21 16C21 15.4477 20.5523 15 20 15H14C13.4477 15 13 15.4477 13 16V20C13 20.5523 13.4477 21 14 21H20C20.5523 21 21 20.5523 21 20V16ZM23 20C23 21.6569 21.6569 23 20 23H14C12.3431 23 11 21.6569 11 20V16C11 14.3431 12.3431 13 14 13H20C21.6569 13 23 14.3431 23 16V20Z" fill="#000"/>
<path d="M16 5H20L19.707 4.70703C19.3166 4.31653 19.3166 3.68347 19.707 3.29297C20.0975 2.90247 20.7306 2.90252 21.1211 3.29297L22.4141 4.58594C23.1951 5.36699 23.1951 6.63301 22.4141 7.41406L21.1211 8.70703L21.0449 8.77539C20.6521 9.09566 20.0731 9.07312 19.707 8.70703C19.341 8.34093 19.3184 7.76189 19.6387 7.36914L19.707 7.29297L20 7H16C15.4477 7 15 6.55228 15 6C15 5.44772 15.4477 5 16 5Z" fill="#000"/>
<path d="M8 17H4L4.29297 16.707C4.68339 16.3165 4.68339 15.6835 4.29297 15.293C3.90247 14.9025 3.26944 14.9025 2.87891 15.293L1.58594 16.5859C0.804888 17.367 0.80489 18.633 1.58594 19.4141L2.87891 20.707L2.95508 20.7754C3.34785 21.0957 3.92688 21.0731 4.29297 20.707C4.65899 20.3409 4.68159 19.7619 4.36133 19.3691L4.29297 19.293L4 19H8C8.55228 19 9 18.5523 9 18C9 17.4477 8.55228 17 8 17Z" fill="#000"/>
</svg>
