<svg width="24" height="24" viewBox="0 0 24 24" fill="none" xmlns="http://www.w3.org/2000/svg">
<path d="M10 6.54786C9.99987 6.14701 9.75251 5.78195 9.36816 5.63184L5.36816 4.07129C5.29552 4.04296 5.22194 4.02487 5.14941 4.01368C5.08474 4.01669 5.02442 4.01979 4.96777 4.02442C4.69619 4.04662 4.59534 4.08419 4.5459 4.10938L4.41504 4.18848C4.28666 4.28102 4.18192 4.40362 4.10938 4.5459L4.09766 4.56543C4.03615 4.6927 4 4.83559 4 4.98829V18.4522C4.00013 18.853 4.24749 19.2181 4.63184 19.3682L8.63184 20.9287C9.29808 21.1886 10 20.6971 10 20.0117V6.54786ZM18.4453 8.16797C18.8762 7.88069 19.4492 7.97185 19.7715 8.36329L19.832 8.44532L21.6475 11.168C21.9832 11.6718 21.9832 12.3283 21.6475 12.832L19.832 15.5547C19.5257 16.0142 18.9048 16.1384 18.4453 15.832C17.9858 15.5257 17.8616 14.9048 18.168 14.4453L19.1318 13H16C15.4477 13 15 12.5523 15 12C15 11.4477 15.4477 11 16 11H19.1318L18.168 9.55469L18.1152 9.4668C17.8782 9.01884 18.0145 8.45516 18.4453 8.16797ZM12 20H13.7998C14.3764 20 14.7489 19.9987 15.0322 19.9756C15.3038 19.9534 15.4047 19.9158 15.4541 19.8906C15.6421 19.7948 15.7948 19.6421 15.8906 19.4541C15.9193 19.3979 15.9615 19.2812 15.9824 18.9395C16.0161 18.3882 16.4907 17.9683 17.042 18.002C17.593 18.0357 18.012 18.5095 17.9785 19.0606C17.9515 19.5029 17.8862 19.9435 17.6729 20.3623C17.3853 20.9265 16.9265 21.3853 16.3623 21.6729C15.984 21.8656 15.5906 21.9374 15.1953 21.9697C14.8116 22.0011 14.3434 22 13.7998 22H11.2402C10.4438 22.8834 9.13917 23.2733 7.90527 22.792L3.90527 21.2314C2.75938 20.7844 2.00013 19.6839 2 18.4522V4.98829C2 3.88897 2.57825 2.97503 3.4082 2.45801C3.41899 2.45126 3.42955 2.44413 3.44043 2.4375C3.499 2.40203 3.55922 2.36938 3.62012 2.3379C3.6262 2.33474 3.63159 2.33026 3.6377 2.32715C3.67319 2.30907 3.70937 2.29239 3.74512 2.27637C4.1984 2.06774 4.70559 1.97008 5.22461 2.00977C5.5151 2.00097 5.84121 2 6.2002 2H13.7998C14.3434 2 14.8116 1.99893 15.1953 2.03028C15.5906 2.06259 15.984 2.1344 16.3623 2.32715C16.9265 2.61473 17.3853 3.07348 17.6729 3.6377C17.833 3.95193 17.9104 4.27829 17.9502 4.6084L17.9785 4.93946L17.9805 5.04102C17.9603 5.54757 17.5588 5.96637 17.042 5.99805C16.4907 6.03171 16.0161 5.61181 15.9824 5.06055C15.9615 4.71883 15.9193 4.60209 15.8906 4.5459C15.7948 4.35793 15.6421 4.20522 15.4541 4.10938C15.4047 4.08419 15.3038 4.04662 15.0322 4.02442C14.7489 4.00127 14.3764 4 13.7998 4H10.5605C11.4414 4.53419 11.9999 5.49218 12 6.54786V20Z" fill="#000"/>
</svg>
