<svg width="24" height="24" viewBox="0 0 24 24" fill="none" xmlns="http://www.w3.org/2000/svg">
    <path fill-rule="evenodd" clip-rule="evenodd"
        d="M1.60573 8.84364C1.60573 8.5387 1.85293 8.2915 2.15786 8.2915H8.58273C8.88766 8.2915 9.13486
8.5387 9.13486 8.84364C9.13486 9.14858 8.88766 9.39578 8.58273 9.39578H2.15786C1.85293 9.39578
1.60573 9.14858 1.60573 8.84364Z"
        fill="#223f46" />
    <path fill-rule="evenodd" clip-rule="evenodd"
        d="M0 12.8596C0 12.5547 0.2472 12.3075 0.552137 12.3075H4.83538C5.14031 12.3075 5.38751 12.5547
5.38751 12.8596C5.38751 13.1646 5.14031 13.4118 4.83538 13.4118H0.552137C0.2472 13.4118 0 13.1646 0
12.8596Z"
        fill="#223f46" />
    <path fill-rule="evenodd" clip-rule="evenodd"
        d="M1.60573 16.6071C1.60573 16.3021 1.85293 16.0549 2.15786 16.0549H5.3703C5.67523 16.0549 5.92243
16.3021 5.92243 16.6071C5.92243 16.912 5.67523 17.1592 5.3703 17.1592H2.15786C1.85293 17.1592
1.60573 16.912 1.60573 16.6071Z"
        fill="#223f46" />
    <path fill-rule="evenodd" clip-rule="evenodd"
        d="M7.16376 17.9461C7.16376 17.9035 10.0628 10.3834 10.9985 8.37568L11.447 7.238L14.5528
7.23792H17.5651L17.7249 7.70034C18.1242 8.86846 19.0199 9.82368 20.121 10.2496L20.5489
10.42V12.5981V14.7701L20.3378 14.8492C19.967 14.9709 19.3965 15.3055 19.0199 15.6036C18.4322
16.0782
17.9644 16.7657 17.6964 17.5627L17.5651 17.9461H12.0996C10.8656 17.9461 9.81425 17.9491 9.00311
17.9515C7.83411 17.9549 7.16376 17.9568 7.16376 17.9461ZM17.3445 14.6202C17.6943 14.0234 17.8764
13.3431 17.8715 12.6515C17.8718 12.647 17.8715 12.6424 17.8713 12.638C17.8676 12.5432 17.7877
12.4694 17.6929 12.4731H16.8005C16.7961 12.4728 16.7915 12.4728 16.787 12.4731C16.6922 12.4767
16.6183 12.5567 16.6221 12.6515C16.6319 13.3332 16.3711 13.9909 15.897 14.4807C15.4383 14.982
14.8019 15.2843 14.1235 15.3229V12.6068L16.3153 11.932C16.3936 11.912 16.4472 11.8399 16.4436
11.7592V11.0454C16.4447 10.988 16.4176 10.9338 16.3711 10.9003C16.3276 10.864 16.2682 10.8534
16.2149 10.8725L14.1236 11.5194V11.0006L16.3153 10.3259C16.3936 10.3059 16.4473 10.2337 16.4437
10.153V9.43899C16.4449 9.38165 16.4177 9.32744 16.3712 9.29395C16.3277 9.25765 16.2683 9.24705
16.215 9.26608L14.1237 9.91299V8.90372C14.1239 8.89922 14.1239 8.89465 14.1237 8.89015C14.12
8.79538
14.0401 8.72158 13.9453 8.72527H13.0529C13.0484 8.72503 13.0439 8.72503 13.0395 8.72527C12.9446
8.72897 12.8708 8.80887 12.8745 8.90372V10.2977L11.5751 10.6936C11.4968 10.7136 11.4433 10.7857
11.4469 10.8665V11.5803C11.4458 11.6377 11.4728 11.6918 11.5193 11.7253C11.5506 11.7469 11.5874
11.7586 11.6253 11.7588C11.6423 11.7596 11.6592 11.7576 11.6755 11.7533L12.8745
11.3854V11.9041L11.5751 12.3C11.4968 12.32 11.4433 12.3921 11.4469 12.4728V13.1866C11.4458 13.244
11.4728 13.2982 11.5193 13.3317C11.5506 13.3533 11.5874 13.365 11.6253 13.3652C11.6423 13.3659
11.6592 13.364 11.6755 13.3597L12.8747 12.9916V16.3991C12.8744 16.4036 12.8744 16.4082 12.8747
16.4127C12.8784 16.5075 12.9583 16.5814 13.053 16.5776H13.9454C14.6371 16.5826 15.3172 16.4004
15.914 16.0506C16.5082 15.7076 17.0014 15.2142 17.3445 14.6202Z"
        fill="#223f46" />
    <path fill-rule="evenodd" clip-rule="evenodd"
        d="M12.5482 4.00012H20.9633C22.6404 4.00012 24 5.35972 24 7.03687V17.8789C24 19.5544 22.6454
20.9156 20.9666 20.9156H5.92253L6.72775 19.2592H20.9666C21.7273 19.2592 22.3436 18.6429 22.3436
17.8789V7.03687C22.3436 6.27453 21.7256 5.65653 20.9633 5.65653H11.8177L12.5482 4.00012Z"
        fill="#223f46" />
</svg>