<svg width="24" height="24" viewBox="0 0 24 24" fill="none" xmlns="http://www.w3.org/2000/svg">
<path d="M4.00001 7C4.13785 7 4.27409 7.02878 4.4004 7.08398L10.6631 9.82324C12.1282 10.4642 12.8018 12.1678 12.1719 13.6377C11.5384 15.1152 9.82727 15.7993 8.34962 15.166L6.60645 14.4189L6.51368 14.374C6.07072 14.1283 5.87733 13.5822 6.08106 13.1064C6.285 12.6306 6.81425 12.3935 7.29786 12.5449L7.39356 12.5811L9.1377 13.3281C9.60013 13.5261 10.1358 13.312 10.334 12.8496C10.5311 12.3896 10.3198 11.8569 9.86133 11.6562L3.792 9H2.00001C1.44772 9 1.00001 8.55228 1.00001 8C1.00001 7.44772 1.44772 7 2.00001 7H4.00001Z" fill="#000"/>
<path d="M1.10547 16.5527C1.33704 16.0896 1.87959 15.8847 2.35352 16.0645L2.44727 16.1055L6.75782 18.2607C7.72981 18.7467 8.80196 19 9.88868 19H18C18.5523 19 19 18.5523 19 18C19 17.4477 18.5523 17 18 17H16.416C15.3295 16.9999 14.258 16.7467 13.2861 16.2607L10.5527 14.8945L10.4639 14.8438C10.0357 14.5724 9.87392 14.0158 10.1055 13.5527C10.337 13.0896 10.8796 12.8847 11.3535 13.0645L11.4473 13.1055L14.1807 14.4717C14.8748 14.8187 15.64 14.9999 16.416 15H18C19.6569 15 21 16.3431 21 18C21 19.6569 19.6569 21 18 21H9.88868C8.49147 21 7.11299 20.6747 5.86329 20.0498L1.55274 17.8945L1.46387 17.8438C1.03575 17.5724 0.873921 17.0158 1.10547 16.5527Z" fill="#000"/>
<path d="M21 6.65137C20.9999 5.73941 20.2606 5.00015 19.3486 5H19.0508C18.8032 5.00004 18.5657 5.09838 18.3906 5.27344C17.6226 6.04146 16.3775 6.04146 15.6094 5.27344C15.4343 5.09838 15.1968 5.00004 14.9492 5H14.6514C13.7394 5.00015 13.0002 5.73941 13 6.65137V6.77637L13.0068 6.92676C13.0366 7.27613 13.1692 7.61019 13.3897 7.88574L16.2188 11.4229C16.6191 11.9233 17.3809 11.9233 17.7813 11.4229L20.6104 7.88574C20.8623 7.57085 21 7.17962 21 6.77637V6.65137ZM23 6.77637C23 7.6336 22.7083 8.46532 22.1729 9.13477L19.3428 12.6729C18.1418 14.1739 15.8582 14.1739 14.6572 12.6729L11.8272 9.13477C11.3587 8.54908 11.0769 7.83919 11.0137 7.09668L11 6.77637V6.65137C11.0002 4.63484 12.6348 3.00015 14.6514 3H14.9492C15.7169 3.00004 16.4521 3.30239 17 3.83887C17.5479 3.30239 18.2831 3.00004 19.0508 3H19.3486C21.3652 3.00015 22.9999 4.63484 23 6.65137V6.77637Z" fill="#000"/>
</svg>
