<svg width="24" height="24" viewBox="0 0 24 24" fill="none" xmlns="http://www.w3.org/2000/svg">
<path fill-rule="evenodd" clip-rule="evenodd" d="M16.988 13.9208L15.8908 16.844C15.8908 16.844 13.5278 16.8998 12.2572 16.8998C10.5914 16.8998 10.3039 15.7405 10.6435 14.6635C10.8615 13.9714 11.3904 12.5839 11.6546 11.9112C11.8118 11.5103 12.2596 10.9127 13.5522 10.9127H18.6083C18.0518 11.2374 17.5825 11.746 17.3325 12.3321H14.01C13.6279 12.3321 13.5223 12.6272 13.4908 12.7026C13.2886 13.1854 12.9692 14.1594 12.6778 15.0479C12.5793 15.349 12.7852 15.498 12.9875 15.498L14.294 15.4963L14.8938 13.9208H16.988Z" fill="#000"/>
<path fill-rule="evenodd" clip-rule="evenodd" d="M20.1453 13.2446L20.3931 13.2451L21.2038 13.2446C22.233 13.2446 22.8027 14.0624 22.4764 15.072C22.1495 16.0816 21.0503 16.9 20.0212 16.9H16.3429L16.8544 15.5058H20.1274C20.3965 15.5058 20.6845 15.2914 20.7699 15.0272C20.8555 14.7631 20.7061 14.5486 20.4369 14.5486H20.0123L18.8683 14.547C17.89 14.547 17.3494 13.7701 17.6595 12.8112C17.9694 11.8522 19.0139 11.0747 19.9916 11.0747H23.7862L23.2489 12.4689H19.8911C19.635 12.4689 19.3619 12.6026 19.2805 12.8536C19.1991 13.1048 19.3411 13.2446 19.597 13.2446H20.1453Z" fill="#000"/>
<path fill-rule="evenodd" clip-rule="evenodd" d="M7.41542 16.8927L8.29866 14.4979H3.7219C3.7219 14.4979 3.88742 13.2644 5.50966 13.2644H8.74834L9.55172 11.0747H11.6507L9.53297 16.8927H7.41542ZM6.71317 14.6578L5.89754 16.8997H3.78927L4.61264 14.6578H6.71317ZM5.17742 13.1193L5.9257 11.0819H8.01515L7.27364 13.1193H5.17742Z" fill="#000"/>
<path fill-rule="evenodd" clip-rule="evenodd" d="M4.64824 12.3331C4.23057 12.8741 3.76832 13.2219 3.616 13.1103C3.46421 12.9986 3.67959 12.4688 4.09706 11.9275C4.515 11.3863 4.97685 11.0382 5.1291 11.1504C5.28149 11.262 5.06592 11.7918 4.64824 12.3331ZM1.44593 12.2261C0.862997 12.7244 0.360809 12.9578 0.128863 12.7876C-0.2558 12.5043 0.249821 11.2153 1.25816 9.90881C2.2663 8.60241 3.39665 7.77258 3.78111 8.05525C4.01933 8.23072 3.916 8.79167 3.56376 9.50321C3.67111 9.19186 3.67277 8.95882 3.54877 8.86735C3.26598 8.65933 2.43526 9.26947 1.69452 10.2297C0.953517 11.1902 0.581597 12.1374 0.864383 12.3458C0.98006 12.4303 1.18645 12.3789 1.44151 12.2228L1.44593 12.2261ZM3.70121 11.6856C3.22946 12.2968 2.70766 12.6901 2.53547 12.5638C2.36367 12.4373 2.60717 11.8389 3.07853 11.2275C3.55074 10.6163 4.07254 10.2231 4.24427 10.3493C4.41626 10.4759 4.17322 11.0741 3.70121 11.6856ZM3.78699 11.7488C4.62802 10.6598 5.04959 9.58512 4.7287 9.34944C4.40802 9.11377 3.46657 9.80539 2.62587 10.8944C1.78523 11.9834 1.36393 13.0576 1.68455 13.2935C2.00523 13.5295 2.94675 12.8377 3.78699 11.7488Z" fill="#000"/>
</svg>
