<svg width="24" height="24" viewBox="0 0 24 24" fill="none" xmlns="http://www.w3.org/2000/svg">
<path d="M17 8H7V19C7 19.5523 7.44772 20 8 20H16C16.5523 20 17 19.5523 17 19V8ZM21 7C21 5.34315 19.6569 4 18 4H6C4.34315 4 3 5.34315 3 7C3 8.30574 3.83548 9.41299 5 9.8252V7C5 6.73478 5.10543 6.4805 5.29297 6.29297C5.4805 6.10543 5.73478 6 6 6H18C18.2652 6 18.5195 6.10543 18.707 6.29297C18.8946 6.4805 19 6.73478 19 7V9.8252C20.1645 9.41299 21 8.30574 21 7ZM23 7C23 9.41892 21.2822 11.4361 19 11.8994V19C19 20.6569 17.6569 22 16 22H8C6.34315 22 5 20.6569 5 19V11.8994C2.71781 11.4361 1 9.41892 1 7C1 4.23858 3.23858 2 6 2H18C20.7614 2 23 4.23858 23 7Z" fill="#000"/>
<path d="M13 16.5859V13L13.293 13.293C13.6835 13.6834 14.3165 13.6834 14.707 13.293C15.0975 12.9025 15.0975 12.2694 14.707 11.8789L13.4141 10.5859C12.633 9.80489 11.367 9.80489 10.5859 10.5859L9.29297 11.8789L9.22461 11.9551C8.90434 12.3479 8.92688 12.9269 9.29297 13.293C9.65907 13.659 10.2381 13.6816 10.6309 13.3613L10.707 13.293L11 13V16.5859C11.0001 17.1382 11.4478 17.5859 12 17.5859C12.5522 17.5859 12.9999 17.1382 13 16.5859Z" fill="#000"/>
</svg>
