<svg width="24" height="24" viewBox="0 0 24 24" fill="none" xmlns="http://www.w3.org/2000/svg">
<path d="M3 18V6C3 3.23858 5.23858 1 8 1H15.3428C16.6689 1 17.9412 1.52716 18.8789 2.46484L21.5352 5.12109C22.4728 6.05878 23 7.33114 23 8.65723V18C23 20.7614 20.7614 23 18 23H8C5.23858 23 3 20.7614 3 18ZM5 18C5 19.6569 6.34315 21 8 21H18C19.6569 21 21 19.6569 21 18V8.65723C21 7.86158 20.6837 7.09776 20.1211 6.53516L17.4648 3.87891C16.9022 3.3163 16.1384 3 15.3428 3H8C6.34315 3 5 4.34315 5 6V18Z" fill="#000"/>
<path d="M17 6C17.5523 6 18 6.44772 18 7C18 7.55228 17.5523 8 17 8H9C8.44772 8 8 7.55228 8 7C8 6.44772 8.44772 6 9 6H17Z" fill="#000"/>
<path d="M17 11C17.5523 11 18 11.4477 18 12C18 12.5523 17.5523 13 17 13H9C8.44772 13 8 12.5523 8 12C8 11.4477 8.44772 11 9 11H17Z" fill="#000"/>
<path d="M13 16C13.5523 16 14 16.4477 14 17C14 17.5523 13.5523 18 13 18H9C8.44772 18 8 17.5523 8 17C8 16.4477 8.44772 16 9 16H13Z" fill="#000"/>
</svg>
