<svg width="24" height="24" viewBox="0 0 24 24" fill="none" xmlns="http://www.w3.org/2000/svg">
<path d="M16 17.5C16 17.1164 15.663 16.5001 14.5029 15.9199C13.4023 15.3696 11.8114 15 10 15C8.18859 15 6.5977 15.3696 5.49707 15.9199C4.337 16.5001 4 17.1164 4 17.5C4 17.8836 4.337 18.4999 5.49707 19.0801C6.5977 19.6304 8.18859 20 10 20C11.8114 20 13.4023 19.6304 14.5029 19.0801C15.663 18.4999 16 17.8836 16 17.5ZM18 17.5C18 19.0493 16.7695 20.1826 15.3965 20.8691C13.9636 21.5855 12.0544 22 10 22C7.94557 22 6.03635 21.5855 4.60352 20.8691C3.23046 20.1826 2 19.0493 2 17.5C2 15.9507 3.23046 14.8174 4.60352 14.1309C6.03635 13.4145 7.94557 13 10 13C12.0544 13 13.9636 13.4145 15.3965 14.1309C16.7695 14.8174 18 15.9507 18 17.5Z" fill="#000"/>
<path d="M13 7C13 5.34315 11.6569 4 10 4C8.34315 4 7 5.34315 7 7C7 8.65685 8.34315 10 10 10C11.6569 10 13 8.65685 13 7ZM15 7C15 9.76142 12.7614 12 10 12C7.23858 12 5 9.76142 5 7C5 4.23858 7.23858 2 10 2C12.7614 2 15 4.23858 15 7Z" fill="#000"/>
<path d="M15.1972 4.00492C17.3147 4.10775 19 5.85703 19 8.00002C18.9999 10.2091 17.2091 12 15 12C14.5247 12 14.0693 11.9158 13.6464 11.7637C14.2747 11.282 14.804 10.6788 15.2011 9.98927C16.2112 9.88836 16.9999 9.03665 17 8.00002C17 7.23898 16.5749 6.5773 15.9492 6.23928C15.8472 5.43345 15.5861 4.67832 15.1972 4.00492Z" fill="#000"/>
<path d="M15.1793 13.003C16.8669 13.0223 18.4339 13.3128 19.6266 13.8096C20.2417 14.0659 20.8055 14.3963 21.2301 14.8145C21.6582 15.2363 21.9996 15.8065 21.9996 16.5C21.9996 17.1935 21.6582 17.7638 21.2301 18.1856C20.8055 18.6038 20.2417 18.9342 19.6266 19.1905C19.2264 19.3572 18.7831 19.4972 18.3082 19.6153C18.7529 18.9639 18.9996 18.25 18.9996 17.5C18.9996 17.4274 18.9944 17.3552 18.9898 17.2832C19.3872 17.1046 19.662 16.923 19.8268 16.7608C19.9147 16.6741 19.959 16.6063 19.9801 16.5635C19.9993 16.5244 19.9996 16.5054 19.9996 16.5C19.9996 16.4947 19.9993 16.4757 19.9801 16.4366C19.959 16.3938 19.9147 16.326 19.8268 16.2393C19.6442 16.0595 19.3282 15.8513 18.858 15.6553C18.706 15.592 18.5422 15.5337 18.3687 15.4776C17.7188 14.4745 16.6018 13.6158 15.1793 13.003Z" fill="#000"/>
</svg>
