<svg width="24" height="24" viewBox="0 0 24 24" fill="none" xmlns="http://www.w3.org/2000/svg">
<path d="M1 12C1 11.4814 1.0857 10.9662 1.25391 10.4756L1.2998 10.3652L2.69922 7.46484C2.71227 7.43782 2.72676 7.41148 2.74219 7.38574C3.15108 6.70425 3.92861 6 5 6H12C12.8763 6 13.6091 6.33124 14.1865 6.74023L14.4248 6.91895L14.5068 6.99316C14.9361 7.42243 15.4502 7.9582 15.873 8.4043C16.2965 8.85106 16.8415 9.16382 17.4404 9.30371C18.3865 9.52453 19.7211 9.84603 20.7676 10.1367C21.9679 10.4489 23 11.6157 23 13V16C23 16.5272 22.8194 17.0439 22.4316 17.4316C22.0439 17.8194 21.5272 18 21 18H19C18.4477 18 18 17.5523 18 17C18 16.4477 18.4477 16 19 16H21V13C21 12.5937 20.6471 12.1678 20.2578 12.0703C20.2494 12.0682 20.2407 12.0658 20.2324 12.0635C19.2285 11.7846 17.9282 11.4718 16.9863 11.252C16.0057 11.0231 15.1143 10.5108 14.4219 9.78027C14.016 9.35205 13.5348 8.85152 13.1328 8.44824C12.756 8.15659 12.3842 8 12 8H5C4.87563 8 4.66326 8.08982 4.47656 8.38379L3.13184 11.1689C3.04497 11.4374 3 11.7177 3 12V16H5C5.55228 16 6 16.4477 6 17C6 17.5523 5.55228 18 5 18H3C2.47275 18 1.95614 17.8194 1.56836 17.4316C1.18058 17.0439 1 16.5272 1 16V12Z" fill="#000"/>
<path d="M8 17C8 16.4477 7.55228 16 7 16C6.44772 16 6 16.4477 6 17C6 17.5523 6.44772 18 7 18C7.55228 18 8 17.5523 8 17ZM10 17C10 18.6569 8.65685 20 7 20C5.34315 20 4 18.6569 4 17C4 15.3431 5.34315 14 7 14C8.65685 14 10 15.3431 10 17Z" fill="#000"/>
<path d="M15 16C15.5523 16 16 16.4477 16 17C16 17.5523 15.5523 18 15 18H9C8.44772 18 8 17.5523 8 17C8 16.4477 8.44772 16 9 16H15Z" fill="#000"/>
<path d="M18 17C18 16.4477 17.5523 16 17 16C16.4477 16 16 16.4477 16 17C16 17.5523 16.4477 18 17 18C17.5523 18 18 17.5523 18 17ZM20 17C20 18.6569 18.6569 20 17 20C15.3431 20 14 18.6569 14 17C14 15.3431 15.3431 14 17 14C18.6569 14 20 15.3431 20 17Z" fill="#000"/>
</svg>
