<svg width="24" height="24" viewBox="0 0 24 24" fill="none" xmlns="http://www.w3.org/2000/svg">
<path d="M20 12V10C20 8.89543 19.1046 8 18 8H5C4.20435 8 3.44152 7.6837 2.87891 7.12109C2.3163 6.55848 2 5.79565 2 5C2 4.20435 2.3163 3.44152 2.87891 2.87891C3.44152 2.3163 4.20435 2 5 2H16C18.2091 2 20 3.79086 20 6V6.53613C21.1954 7.22781 22 8.51962 22 10V12C22 12.5523 21.5523 13 21 13C20.4477 13 20 12.5523 20 12ZM4.00488 5.09863C4.02757 5.32763 4.12883 5.54289 4.29297 5.70703C4.4805 5.89457 4.73478 6 5 6H18C18 4.89543 17.1046 4 16 4H5C4.73478 4 4.4805 4.10543 4.29297 4.29297C4.10543 4.4805 4 4.73478 4 5L4.00488 5.09863Z" fill="#000"/>
<path d="M20 18V16C20 15.4477 20.4477 15 21 15C21.5523 15 22 15.4477 22 16V18C22 20.2091 20.2091 22 18 22H5C4.20435 22 3.44151 21.6837 2.87891 21.1211C2.3163 20.5585 2 19.7957 2 19V5C2 4.44772 2.44772 4 3 4C3.55228 4 4 4.44772 4 5V19C4 19.2652 4.10543 19.5195 4.29297 19.707C4.48051 19.8946 4.73478 20 5 20H18C19.1046 20 20 19.1046 20 18Z" fill="#000"/>
<path d="M22 11C22.5523 11 23 11.4477 23 12V16C23 16.5523 22.5523 17 22 17H18C17.2043 17 16.4415 16.6837 15.8789 16.1211C15.3867 15.6289 15.0829 14.9835 15.0146 14.2969L15 14C15 13.2043 15.3163 12.4415 15.8789 11.8789C16.4415 11.3163 17.2043 11 18 11H22ZM17.0049 14.0986C17.0276 14.3276 17.1288 14.5429 17.293 14.707C17.4805 14.8946 17.7348 15 18 15H21V13H18C17.7348 13 17.4805 13.1054 17.293 13.293C17.1054 13.4805 17 13.7348 17 14L17.0049 14.0986Z" fill="#000"/>
</svg>
