<svg width="24" height="24" viewBox="0 0 24 24" fill="none" xmlns="http://www.w3.org/2000/svg">
<path d="M18 20C19.6569 20 21 18.6569 21 17V7C21 5.34315 19.6569 4 18 4L6 4C4.34315 4 3 5.34315 3 7L3 17C3 18.6569 4.34315 20 6 20H18ZM6 22C3.23858 22 1 19.7614 1 17L1 7C1 4.23858 3.23858 2 6 2L18 2C20.7614 2 23 4.23858 23 7V17C23 19.7614 20.7614 22 18 22H6Z" fill="#000"/>
<path d="M10 12C10 11.2978 10.1822 10.638 10.5 10.0645C10.3402 10.0234 10.173 10 10 10C8.89543 10 8 10.8954 8 12C8 13.1046 8.89543 14 10 14C10.1731 14 10.3401 13.9757 10.5 13.9346C10.1825 13.3612 10 12.7019 10 12ZM12 12C12 12.5922 12.2562 13.1236 12.667 13.4912C13.0215 13.8084 13.4872 14 14 14C15.1046 14 16 13.1046 16 12C16 10.8954 15.1046 10 14 10C13.4872 10 13.0215 10.1916 12.667 10.5088C12.2562 10.8764 12 11.4078 12 12ZM18 12C18 14.2091 16.2091 16 14 16C13.2717 16 12.5886 15.8034 12 15.4629C11.4114 15.8034 10.7283 16 10 16C7.79086 16 6 14.2091 6 12C6 9.79086 7.79086 8 10 8C10.7283 8 11.4114 8.1966 12 8.53711C12.5886 8.1966 13.2717 8 14 8C16.2091 8 18 9.79086 18 12Z" fill="#000"/>
</svg>
