<svg width="24" height="24" viewBox="0 0 24 24" fill="none" xmlns="http://www.w3.org/2000/svg">
<path d="M18 7V6C18 5.44772 17.5523 5 17 5H7C6.44772 5 6 5.44772 6 6V7C6 7.55228 5.55228 8 5 8C4.44772 8 4 7.55228 4 7V6C4 4.34315 5.34315 3 7 3H17C18.6569 3 20 4.34315 20 6V7C20 7.55228 19.5523 8 19 8C18.4477 8 18 7.55228 18 7Z" fill="#000"/>
<path d="M6 17V18C6 18.5523 6.44772 19 7 19L17 19C17.5523 19 18 18.5523 18 18V17C18 16.4477 18.4477 16 19 16C19.5523 16 20 16.4477 20 17V18C20 19.6569 18.6569 21 17 21L7 21C5.34315 21 4 19.6569 4 18V17C4 16.4477 4.44772 16 5 16C5.55229 16 6 16.4477 6 17Z" fill="#000"/>
<path d="M22 11C22.5523 11 23 11.4477 23 12C23 12.5523 22.5523 13 22 13H2C1.44772 13 1 12.5523 1 12C1 11.4477 1.44772 11 2 11H22Z" fill="#000"/>
</svg>
