<svg width="24" height="24" viewBox="0 0 24 24" fill="none" xmlns="http://www.w3.org/2000/svg">
<path fill-rule="evenodd" clip-rule="evenodd" d="M12.2239 19.6866C12.2239 19.6866 4.78042 19.1508 -0.000106812 14.0661L7.58884 9.65674C7.58884 9.65674 7.73809 16.5854 14.7609 18.0654C22.2633 19.6459 22.7534 12.2629 22.7534 12.2629L23.9999 14.3005C23.9999 14.3005 21.159 20.8143 13.5589 18.6557C7.63753 16.9746 6.08804 12.479 6.08804 12.479L2.76058 14.355C2.76058 14.355 6.0419 18.1135 12.2239 19.6866Z" fill="#FFC824"/>
<path fill-rule="evenodd" clip-rule="evenodd" d="M15.477 12.9308C15.477 12.9308 12.3771 13.4918 9.75031 10.3278C9.75031 10.3278 10.7508 10.6418 12.6411 10.8307C12.6411 10.8307 10.4759 9.71621 9.543 8.28635C9.543 8.28635 10.2939 8.64153 12.5587 8.80069C12.5587 8.80069 12.2286 8.48758 11.2456 7.96084C8.92764 6.50586 8.2387 5 8.2387 5C9.35729 6.01206 10.8022 5.45466 15.1366 6.92693C20.6115 8.78667 21.0515 10.8268 21.1289 12.0097C21.2372 13.6627 19.6655 15.3881 19.6655 15.3881C19.6655 15.3881 20.5511 11.1774 17.153 9.31569C13.496 7.31049 9.9382 6.44813 9.9382 6.44813C9.9382 6.44813 10.1483 6.8069 11.0743 7.3705C11.0743 7.3705 11.5009 7.61316 11.711 7.72177C12.9586 8.32809 13.718 8.61478 13.9983 9.31732C13.9983 9.31732 12.6461 9.65783 11.2159 9.15718C11.2159 9.15718 12.2004 10.1891 14.0706 11.3323C14.0706 11.3323 12.8662 11.7077 11.437 11.2067C11.437 11.2067 12.8831 12.9328 15.477 12.9308Z" fill="#FFC824"/>
</svg>
