<svg width="198" height="56" viewBox="0 0 198 56" fill="none" xmlns="http://www.w3.org/2000/svg">
<mask id="path-2-inside-1_9200_22330" fill="white">
<path d="M0 6C0 2.68629 2.68629 0 6 0H32V56H6C2.68629 56 0 53.3137 0 50V6Z"/>
</mask>
<path d="M0 6C0 2.68629 2.68629 0 6 0H32V56H6C2.68629 56 0 53.3137 0 50V6Z" fill="#FFC824"/>
<path d="M-2 6C-2 1.58172 1.58172 -2 6 -2H32V2H6C3.79086 2 2 3.79086 2 6H-2ZM32 58H6C1.58172 58 -2 54.4183 -2 50H2C2 52.2091 3.79086 54 6 54H32V58ZM6 58C1.58172 58 -2 54.4183 -2 50V6C-2 1.58172 1.58172 -2 6 -2V2C3.79086 2 2 3.79086 2 6V50C2 52.2091 3.79086 54 6 54V58ZM32 0V56V0Z" fill="#A1ADAF" mask="url(#path-2-inside-1_9200_22330)"/>
<ellipse cx="16.501" cy="39.5" rx="3" ry="7.5" stroke="#223F46" stroke-width="1.5"/>
<path d="M23.9971 39.2904C22.6454 40.4012 19.7962 41.1667 16.5 41.1667C13.2038 41.1667 10.3546 40.4012 9.00287 39.2904M23.9971 39.2904C23.8861 35.2452 20.572 32 16.5 32C12.428 32 9.11387 35.2452 9.00287 39.2904M23.9971 39.2904C23.999 39.36 24 39.4299 24 39.5C24 43.6421 20.6421 47 16.5 47C12.3579 47 9 43.6421 9 39.5C9 39.4299 9.00096 39.36 9.00287 39.2904" stroke="#223F46" stroke-width="1.5"/>
<path d="M33 1H191.151C193.912 1 196.151 3.23858 196.151 6V50C196.151 52.7614 193.912 55 191.151 55H33V1Z" fill="white"/>
<path d="M33 1H191.151C193.912 1 196.151 3.23858 196.151 6V50C196.151 52.7614 193.912 55 191.151 55H33V1Z" stroke="#A1ADAF" stroke-width="2"/>
</svg>
