<svg width="200" height="56" viewBox="0 0 200 56" fill="none" xmlns="http://www.w3.org/2000/svg">
<mask id="path-2-inside-1_9200_22331" fill="white">
<path d="M0 6C0 2.68629 2.68629 0 6 0H32V56H6C2.68629 56 0 53.3137 0 50V6Z"/>
</mask>
<path d="M0 6C0 2.68629 2.68629 0 6 0H32V56H6C2.68629 56 0 53.3137 0 50V6Z" fill="#19469A"/>
<path d="M-2 6C-2 1.58172 1.58172 -2 6 -2H32V2H6C3.79086 2 2 3.79086 2 6H-2ZM32 58H6C1.58172 58 -2 54.4183 -2 50H2C2 52.2091 3.79086 54 6 54H32V58ZM6 58C1.58172 58 -2 54.4183 -2 50V6C-2 1.58172 1.58172 -2 6 -2V2C3.79086 2 2 3.79086 2 6V50C2 52.2091 3.79086 54 6 54V58ZM32 0V56V0Z" fill="#A1ADAF" mask="url(#path-2-inside-1_9200_22331)"/>
<path d="M11.0046 43.5596V33.2221H8.14648V31.6169H15.4958V33.2221H12.6377V43.5596H11.0046Z" fill="white"/>
<path d="M16.7969 43.5119V31.6198H20.7152C21.0892 31.6032 21.4625 31.6655 21.8119 31.8029C22.1614 31.9404 22.4795 32.15 22.7465 32.4188C23.0485 32.7397 23.2903 33.1148 23.46 33.5253C23.6596 33.9824 23.7594 34.4786 23.7524 34.9793C23.764 35.6942 23.5847 36.3986 23.2339 37.0166C22.9106 37.5883 22.4075 38.0305 21.8069 38.2709L24.1462 43.5599H22.3293L20.2591 38.4747H18.3096V43.5119H16.7969ZM18.3135 33.2057V36.8009H20.61C20.8515 36.8184 21.0937 36.7765 21.3162 36.6785C21.5386 36.5805 21.735 36.4293 21.8888 36.2377C22.1744 35.86 22.3244 35.3931 22.3137 34.9154C22.3426 34.688 22.3212 34.4569 22.2514 34.239C22.1815 34.0212 22.0648 33.8221 21.91 33.6566C21.7551 33.491 21.566 33.3631 21.3565 33.2823C21.1471 33.2016 20.9226 33.1699 20.6996 33.1897L18.3135 33.2057Z" fill="white"/>
<path d="M33 1H193.151C195.912 1 198.151 3.23858 198.151 6V50C198.151 52.7614 195.912 55 193.151 55H33V1Z" fill="white"/>
<path d="M33 1H193.151C195.912 1 198.151 3.23858 198.151 6V50C198.151 52.7614 195.912 55 193.151 55H33V1Z" stroke="#A1ADAF" stroke-width="2"/>
</svg>
