<svg width="24" height="24" viewBox="0 0 24 24" fill="none" xmlns="http://www.w3.org/2000/svg">
<path d="M10.293 1.52732C11.3252 0.82439 12.6748 0.82439 13.707 1.52732L22.1016 7.24412C23.7236 8.3487 23.0198 11 20.9668 11H3.0332C0.980159 11 0.27635 8.3487 1.89843 7.24412L10.293 1.52732ZM12.581 3.18064C12.228 2.94023 11.772 2.94023 11.4189 3.18064L3.02343 8.89744C3.00979 8.90678 3.0039 8.91404 3.0039 8.91404C3.0039 8.91404 3.00257 8.91597 3.00195 8.91794C3.00008 8.92404 2.99741 8.94249 3.00488 8.96775C3.00987 8.98461 3.01684 8.99437 3.0205 8.999C3.02336 8.99933 3.02768 8.99997 3.0332 8.99997H20.9668C20.9717 8.99997 20.9757 8.99928 20.9785 8.999C20.9821 8.9946 20.9899 8.98522 20.9951 8.96775C21.0026 8.94249 20.9999 8.92404 20.998 8.91794C20.9974 8.91597 20.9961 8.91404 20.9961 8.91404C20.9961 8.91404 20.9902 8.90678 20.9766 8.89744L12.581 3.18064Z" fill="#000"/>
<path d="M9.99999 8.99997V19H2.99999V8.99997H9.99999ZM4.99999 17H7.99999V11H4.99999V17Z" fill="#000"/>
<path d="M21 8.99997V19H14V8.99997H21ZM16 17H19V11H16V17Z" fill="#000"/>
<path d="M19.3818 19L4.61816 19L3.61816 21L20.3818 21L19.3818 19ZM3.61816 23C2.1314 23 1.16419 21.4352 1.8291 20.1054L2.8291 18.1054C3.16789 17.4279 3.86063 17 4.61816 17H19.3818C20.1394 17 20.8321 17.4279 21.1709 18.1054L22.1709 20.1054C22.8358 21.4352 21.8686 23 20.3818 23L3.61816 23Z" fill="#000"/>
</svg>
