<svg width="24" height="24" viewBox="0 0 24 24" fill="none" xmlns="http://www.w3.org/2000/svg">
<path d="M19 9C19 8.44772 18.5523 8 18 8H13V14H18C18.5523 14 19 13.5523 19 13V9ZM17 4C17 3.44772 16.5523 3 16 3H8C7.44772 3 7 3.44772 7 4V20C7 20.5523 7.44772 21 8 21H16C16.5523 21 17 20.5523 17 20V16H12C11.4477 16 11 15.5523 11 15V7C11 6.44772 11.4477 6 12 6H17V4ZM19 6.17383C20.1647 6.58594 21 7.69415 21 9V13C21 14.3057 20.1645 15.413 19 15.8252V20C19 21.6569 17.6569 23 16 23H8C6.34315 23 5 21.6569 5 20V4C5 2.34315 6.34315 1 8 1H16C17.6569 1 19 2.34315 19 4V6.17383Z" fill="#000"/>
<path d="M13 19C13 19.5523 12.5523 20 12 20C11.4477 20 11 19.5523 11 19C11 18.4477 11.4477 18 12 18C12.5523 18 13 18.4477 13 19Z" fill="#000"/>
<path d="M12 9L20 9C20.5523 9 21 9.44771 21 10C21 10.5523 20.5523 11 20 11H12C11.4477 11 11 10.5523 11 10C11 9.44771 11.4477 9 12 9Z" fill="#000"/>
</svg>
