<svg width="24" height="24" viewBox="0 0 24 24" fill="none" xmlns="http://www.w3.org/2000/svg">
<path d="M18 8.85742C18 5.64195 15.3332 3 12 3C8.66675 3 6 5.64195 6 8.85742C6.00007 9.77279 6.34817 10.891 6.96484 12.0527C7.57457 13.2014 8.40623 14.3152 9.27344 15.2041C9.84466 15.7896 10.4117 16.2579 10.918 16.5723C11.4466 16.9005 11.8105 17 12 17C12.1895 17 12.5534 16.9005 13.082 16.5723C13.5883 16.2579 14.1553 15.7896 14.7266 15.2041C15.5938 14.3152 16.4254 13.2014 17.0352 12.0527C17.6518 10.891 17.9999 9.77279 18 8.85742ZM13 9C13 8.44772 12.5523 8 12 8C11.4477 8 11 8.44772 11 9C11 9.55229 11.4477 10 12 10C12.5523 10 13 9.55229 13 9ZM15 9C15 10.6569 13.6569 12 12 12C10.3431 12 9 10.6569 9 9C9 7.34315 10.3431 6 12 6C13.6569 6 15 7.34315 15 9ZM20 8.85742C19.9999 10.2262 19.4987 11.6771 18.8018 12.9902C18.0976 14.3167 17.1505 15.5844 16.1582 16.6016C15.5062 17.2699 14.8143 17.8508 14.1367 18.2715C13.4816 18.6782 12.7361 19 12 19C11.2639 19 10.5184 18.6782 9.86328 18.2715C9.1857 17.8508 8.49381 17.2699 7.8418 16.6016C6.84945 15.5844 5.90236 14.3167 5.19824 12.9902C4.50127 11.6771 4.00007 10.2262 4 8.85742C4 4.4987 7.60126 1 12 1C16.3987 1 20 4.4987 20 8.85742Z" fill="#000"/>
<path d="M2 18.9999C2.00002 18.3403 2.31617 17.7946 2.71484 17.3828C3.10937 16.9752 3.63589 16.641 4.21582 16.3671C5.37908 15.8179 6.95331 15.4178 8.72168 15.1972C9.26963 15.1288 9.7694 15.5175 9.83789 16.0654C9.90625 16.6134 9.51769 17.1131 8.96973 17.1816C7.3238 17.3869 5.97515 17.748 5.06934 18.1757C4.61466 18.3904 4.31937 18.5998 4.15137 18.7734C4.0706 18.8568 4.03214 18.9193 4.01465 18.956C4.00621 18.9738 4.00231 18.9855 4.00098 18.9911C3.99975 18.9964 4 18.9999 4 18.9999C4 18.9999 3.99978 19.0052 4.00293 19.0156C4.00636 19.0267 4.01517 19.0484 4.03516 19.081C4.0776 19.1501 4.16401 19.255 4.32617 19.3828C4.65636 19.6429 5.1962 19.9208 5.95215 20.1728C7.45391 20.6734 9.59229 20.9999 12 20.9999C14.4077 20.9999 16.5461 20.6734 18.0479 20.1728C18.8038 19.9208 19.3436 19.6429 19.6738 19.3828C19.836 19.255 19.9224 19.1501 19.9648 19.081C19.9848 19.0484 19.9936 19.0267 19.9971 19.0156C20.0002 19.0052 20 18.9999 20 18.9999C20 18.9999 20.0002 18.9964 19.999 18.9911C19.9977 18.9855 19.9938 18.9738 19.9854 18.956C19.9679 18.9193 19.9294 18.8568 19.8486 18.7734C19.6806 18.5998 19.3853 18.3904 18.9307 18.1757C18.0249 17.748 16.6762 17.3869 15.0303 17.1816C14.4823 17.1131 14.0937 16.6134 14.1621 16.0654C14.2263 15.5518 14.6692 15.1778 15.1758 15.1894L15.2783 15.1972L15.9316 15.288C17.4336 15.52 18.7663 15.8866 19.7842 16.3671C20.3641 16.641 20.8906 16.9752 21.2852 17.3828C21.6838 17.7946 22 18.3403 22 18.9999C22 19.8517 21.4814 20.5043 20.9121 20.9531C20.3315 21.4106 19.5531 21.7794 18.6807 22.0703C16.9251 22.6555 14.5629 22.9999 12 22.9999C9.43715 22.9999 7.07494 22.6555 5.31934 22.0703C4.4469 21.7794 3.66848 21.4106 3.08789 20.9531C2.5186 20.5043 2 19.8517 2 18.9999Z" fill="#000"/>
</svg>
