<svg width="24" height="24" viewBox="0 0 24 24" fill="none" xmlns="http://www.w3.org/2000/svg">
<path d="M19 6C19 5.44772 18.5523 5 18 5H4C3.44772 5 3 5.44772 3 6V16C3 16.5523 3.44772 17 4 17H12V19H4C2.34315 19 1 17.6569 1 16V6C1 4.34315 2.34315 3 4 3H18C19.6569 3 21 4.34315 21 6V12H19V6Z" fill="#000"/>
<path d="M21 18C21 17.4477 20.5523 17 20 17H14C13.4477 17 13 17.4477 13 18C13 18.5523 13.4477 19 14 19H20C20.5523 19 21 18.5523 21 18ZM23 18C23 19.6569 21.6569 21 20 21H14C12.3431 21 11 19.6569 11 18C11 16.3431 12.3431 15 14 15H20C21.6569 15 23 16.3431 23 18Z" fill="#000"/>
<path d="M21 14C21 13.4477 20.5523 13 20 13H14C13.4477 13 13 13.4477 13 14C13 14.5523 13.4477 15 14 15H20C20.5523 15 21 14.5523 21 14ZM23 14C23 15.6569 21.6569 17 20 17H14C12.3431 17 11 15.6569 11 14C11 12.3431 12.3431 11 14 11H20C21.6569 11 23 12.3431 23 14Z" fill="#000"/>
</svg>
