<svg width="24" height="24" viewBox="0 0 24 24" fill="none" xmlns="http://www.w3.org/2000/svg">
<path d="M21 13V8C21 6.34315 19.6569 5 18 5H6C4.34315 5 3 6.34315 3 8V16C3 17.6569 4.34315 19 6 19H14C14.5523 19 15 19.4477 15 20C15 20.5523 14.5523 21 14 21H6C3.23858 21 1 18.7614 1 16V8C1 5.23858 3.23858 3 6 3H18C20.7614 3 23 5.23858 23 8V13C23 13.5523 22.5523 14 22 14C21.4477 14 21 13.5523 21 13Z" fill="#000"/>
<path d="M7 8C7 7.44772 6.55228 7 6 7C5.44772 7 5 7.44772 5 8C5 8.55228 5.44772 9 6 9C6.55228 9 7 8.55228 7 8Z" fill="#000"/>
<path d="M13 12C13 12.5523 12.5523 13 12 13C11.4477 13 11 12.5523 11 12C11 11.4477 11.4477 11 12 11C12.5523 11 13 11.4477 13 12ZM15 12C15 10.3431 13.6569 9 12 9C10.3431 9 9 10.3431 9 12C9 13.6569 10.3431 15 12 15C13.6569 15 15 13.6569 15 12Z" fill="#000"/>
<path d="M20.7925 15.0503C21.183 14.6598 21.817 14.6598 22.2075 15.0503C22.5977 15.4408 22.5977 16.0739 22.2075 16.4644L20.7925 17.8784L22.2075 19.2925L22.2759 19.3687C22.5963 19.7614 22.5737 20.3414 22.2075 20.7075C21.8414 21.0737 21.2614 21.0963 20.8687 20.7759L20.7925 20.7075L19.3784 19.2925L17.9644 20.7075C17.5739 21.0977 16.9407 21.0977 16.5503 20.7075C16.1598 20.317 16.1598 19.683 16.5503 19.2925L17.9634 17.8784L16.5503 16.4644C16.1598 16.0738 16.1598 15.4408 16.5503 15.0503C16.9408 14.6598 17.5738 14.6598 17.9644 15.0503L19.3784 16.4634L20.7925 15.0503Z" fill="#000"/>
</svg>
