<svg width="24" height="24" viewBox="0 0 24 24" fill="none" xmlns="http://www.w3.org/2000/svg">
<path d="M3 15V17H5V15H3ZM22 17C22.5523 17 23 17.4477 23 18C23 18.5523 22.5523 19 22 19H10C9.44771 19 9 18.5523 9 18C9 17.4477 9.44771 17 10 17H22ZM16 13C16.5523 13 17 13.4477 17 14C17 14.5523 16.5523 15 16 15H10C9.44771 15 9 14.5523 9 14C9 13.4477 9.44771 13 10 13H16ZM3 7V9H5V7H3ZM22 9C22.5523 9 23 9.44772 23 10C23 10.5523 22.5523 11 22 11H10C9.44771 11 9 10.5523 9 10C9 9.44772 9.44771 9 10 9H22ZM16 5C16.5523 5 17 5.44772 17 6C17 6.55228 16.5523 7 16 7H10C9.44771 7 9 6.55228 9 6C9 5.44772 9.44771 5 10 5H16ZM7 17C7 18.1046 6.10457 19 5 19H3C1.89543 19 1 18.1046 1 17V15C1 13.8954 1.89543 13 3 13H5C6.10457 13 7 13.8954 7 15V17ZM7 9C7 10.1046 6.10457 11 5 11H3C1.89543 11 1 10.1046 1 9V7C1 5.89543 1.89543 5 3 5H5C6.10457 5 7 5.89543 7 7V9Z" fill="#000"/>
</svg>
