<svg width="24" height="24" viewBox="0 0 24 24" fill="none" xmlns="http://www.w3.org/2000/svg">
<path d="M19.293 3.29298C19.6835 2.90252 20.3166 2.90252 20.7071 3.29298C21.0976 3.68349 21.0976 4.31652 20.7071 4.70705L13.9141 11.5L20.7071 18.293L20.7754 18.3692C21.0958 18.7619 21.0732 19.3409 20.7071 19.707C20.341 20.0732 19.762 20.0958 19.3692 19.7754L19.293 19.707L12.5 12.9141L5.70708 19.707C5.31655 20.0976 4.68354 20.0976 4.29302 19.707C3.90254 19.3165 3.90251 18.6835 4.29302 18.293L11.086 11.5L4.29302 4.70705C3.90249 4.31652 3.90249 3.68351 4.29302 3.29298C4.68354 2.90246 5.31655 2.90246 5.70708 3.29298L12.5 10.086L19.293 3.29298Z" fill="#000"/>
</svg>
