<svg width="24" height="24" viewBox="0 0 24 24" fill="none" xmlns="http://www.w3.org/2000/svg">
<path d="M20.0498 12.0254C20.0498 7.59344 16.4573 4.00021 12.0254 4C7.59331 4 4 7.59331 4 12.0254C4.00021 16.4573 7.59344 20.0498 12.0254 20.0498C16.4572 20.0496 20.0496 16.4572 20.0498 12.0254ZM22.0498 12.0254C22.0497 14.4334 21.1992 16.6418 19.7842 18.3701L22.707 21.293L22.7754 21.3691C23.0957 21.7619 23.0731 22.3409 22.707 22.707C22.3409 23.0731 21.7619 23.0957 21.3691 22.7754L21.293 22.707L18.3701 19.7842C16.6418 21.1992 14.4334 22.0497 12.0254 22.0498C6.48887 22.0498 2.00021 17.5619 2 12.0254C2 6.48874 6.48874 2 12.0254 2C17.5619 2.00021 22.0498 6.48887 22.0498 12.0254Z" fill="#000"/>
</svg>
