<svg width="24" height="24" viewBox="0 0 24 24" fill="none" xmlns="http://www.w3.org/2000/svg">
<path d="M13.1172 18.8232C13.6694 18.8232 14.117 19.2711 14.1172 19.8232C14.1172 20.3755 13.6695 20.8232 13.1172 20.8232H2C1.44772 20.8232 1 20.3755 1 19.8232C1.00016 19.2711 1.44781 18.8232 2 18.8232H13.1172ZM23 11.4121L23.1025 11.417C23.6067 11.4683 24 11.8944 24 12.4121C23.9998 12.9296 23.6065 13.3549 23.1025 13.4062L23 13.4121H2C1.44783 13.4121 1.00019 12.9642 1 12.4121C1 11.8598 1.44772 11.4121 2 11.4121H23ZM18.0586 4C18.6109 4 19.0586 4.44772 19.0586 5C19.0586 5.55228 18.6109 6 18.0586 6H2C1.44772 6 1 5.55228 1 5C1 4.44772 1.44772 4 2 4H18.0586Z" fill="#000"/>
</svg>
