<svg width="24" height="24" viewBox="0 0 24 24" fill="none" xmlns="http://www.w3.org/2000/svg">
<path d="M2 16.2003V16.0002C2 15.4479 2.44772 15.0002 3 15.0002C3.55229 15.0002 4 15.4479 4 16.0002V16.2003C4 17.0567 4.00034 17.639 4.03711 18.089C4.07293 18.5274 4.13809 18.752 4.21778 18.9084C4.40952 19.2846 4.71556 19.5907 5.0918 19.7824C5.2482 19.8621 5.47272 19.9262 5.91113 19.9621C6.36118 19.9988 6.94337 20.0002 7.79981 20.0002H16.2002C17.0566 20.0002 17.6388 19.9988 18.0889 19.9621C18.5273 19.9262 18.7518 19.8621 18.9082 19.7824C19.2844 19.5907 19.5905 19.2846 19.7822 18.9084C19.8619 18.752 19.9271 18.5274 19.9629 18.089C19.9997 17.639 20 17.0567 20 16.2003V16.0002C20 15.4479 20.4477 15.0002 21 15.0002C21.5523 15.0002 22 15.4479 22 16.0002V16.2003C22 17.0238 22.001 17.7018 21.9561 18.2521C21.9101 18.8139 21.8115 19.3305 21.5645 19.8156C21.181 20.5681 20.5688 21.1801 19.8164 21.5636C19.3311 21.8109 18.814 21.9103 18.252 21.9562C17.7016 22.0012 17.0237 22.0002 16.2002 22.0002H7.79981C6.97632 22.0002 6.29843 22.0012 5.74805 21.9562C5.18599 21.9103 4.6689 21.8109 4.1836 21.5636C3.43118 21.1801 2.81896 20.5681 2.43555 19.8156C2.18847 19.3305 2.08987 18.8139 2.04395 18.2521C1.99898 17.7018 2 17.0238 2 16.2003ZM11 16.0002V5.41422L8.70703 7.70719C8.31653 8.09761 7.68348 8.09761 7.29297 7.70719C6.90247 7.31669 6.90252 6.68365 7.29297 6.29312L10.5859 3.00015C11.367 2.21911 12.633 2.2191 13.4141 3.00015L16.707 6.29312L16.7754 6.36929C17.0957 6.76207 17.0731 7.3411 16.707 7.70719C16.3409 8.07321 15.7619 8.09581 15.3691 7.77554L15.293 7.70719L13 5.41422V16.0002C12.9999 16.5524 12.5522 17.0002 12 17.0002C11.4478 17.0002 11.0001 16.5524 11 16.0002Z" fill="#000"/>
</svg>
