<svg width="24" height="24" viewBox="0 0 24 24" fill="none" xmlns="http://www.w3.org/2000/svg">
<path d="M20.75 9.75H4V17L4.00293 17.6797C4.00581 17.8667 4.01174 18.0191 4.02246 18.1504C4.04296 18.4009 4.07733 18.4864 4.0957 18.5225C4.17955 18.6869 4.31314 18.8204 4.47754 18.9043C4.5136 18.9227 4.59906 18.957 4.84961 18.9775C5.1121 18.999 5.45845 19 6 19H18.75C19.2915 19 19.6379 18.999 19.9004 18.9775C20.1509 18.957 20.2364 18.9227 20.2725 18.9043C20.4369 18.8205 20.5704 18.6869 20.6543 18.5225C20.6727 18.4864 20.707 18.4009 20.7275 18.1504C20.749 17.8879 20.75 17.5415 20.75 17V9.75ZM10.5 15.25C11.0523 15.25 11.5 15.6977 11.5 16.25C11.5 16.8023 11.0523 17.25 10.5 17.25H6.75C6.19772 17.25 5.75 16.8023 5.75 16.25C5.75 15.6977 6.19772 15.25 6.75 15.25H10.5ZM18 15.25C18.5523 15.25 19 15.6977 19 16.25C19 16.8023 18.5523 17.25 18 17.25H14.25C13.6977 17.25 13.25 16.8023 13.25 16.25C13.25 15.6977 13.6977 15.25 14.25 15.25H18ZM6 6C5.45845 6 5.1121 6.00101 4.84961 6.02246C4.59906 6.04296 4.5136 6.07733 4.47754 6.0957C4.31314 6.17955 4.17955 6.31314 4.0957 6.47754C4.07733 6.5136 4.04296 6.59906 4.02246 6.84961C4.00451 7.06926 4.00163 7.34774 4.00098 7.75H20.749C20.7484 7.34774 20.7455 7.06926 20.7275 6.84961C20.707 6.59906 20.6727 6.5136 20.6543 6.47754C20.5704 6.31314 20.4369 6.17955 20.2725 6.0957C20.2364 6.07733 20.1509 6.04296 19.9004 6.02246C19.6379 6.00101 19.2915 6 18.75 6H6ZM22.75 17C22.75 17.5084 22.7503 17.9497 22.7207 18.3125C22.6901 18.687 22.6225 19.0657 22.4365 19.4307C22.1609 19.9713 21.7213 20.4109 21.1807 20.6865C20.8157 20.8725 20.437 20.9401 20.0625 20.9707C19.6997 21.0003 19.2584 21 18.75 21H6C5.49163 21 5.05025 21.0003 4.6875 20.9707C4.313 20.9401 3.93435 20.8725 3.56934 20.6865C3.02869 20.4109 2.58906 19.9713 2.31348 19.4307C2.12749 19.0657 2.05989 18.687 2.0293 18.3125C2.01449 18.1311 2.00644 17.9302 2.00293 17.7109L2 17V8L2.00293 7.28906C2.00644 7.06984 2.01449 6.86886 2.0293 6.6875C2.05989 6.313 2.12749 5.93435 2.31348 5.56934C2.58906 5.02869 3.02869 4.58906 3.56934 4.31348C3.93435 4.12749 4.313 4.05989 4.6875 4.0293C5.05025 3.99969 5.49163 4 6 4H18.75C19.2584 4 19.6997 3.99969 20.0625 4.0293C20.437 4.05989 20.8157 4.12749 21.1807 4.31348C21.7213 4.58906 22.1609 5.02869 22.4365 5.56934C22.6225 5.93435 22.6901 6.313 22.7207 6.6875C22.7503 7.05025 22.75 7.49163 22.75 8V17Z" fill="#000"/>
</svg>
