<svg width="24" height="24" viewBox="0 0 24 24" fill="none" xmlns="http://www.w3.org/2000/svg">
<path d="M18 8V7C18 6.44772 17.5523 6 17 6H7C6.44772 6 6 6.44772 6 7V8C6 8.55228 5.55228 9 5 9C4.44772 9 4 8.55228 4 8V7C4 5.34315 5.34315 4 7 4H17C18.6569 4 20 5.34315 20 7V8C20 8.55228 19.5523 9 19 9C18.4477 9 18 8.55228 18 8Z" fill="#000"/>
<path d="M6 16V17C6 17.5523 6.44772 18 7 18L17 18C17.5523 18 18 17.5523 18 17V16C18 15.4477 18.4477 15 19 15C19.5523 15 20 15.4477 20 16V17C20 18.6569 18.6569 20 17 20L7 20C5.34315 20 4 18.6569 4 17V16C4 15.4477 4.44772 15 5 15C5.55229 15 6 15.4477 6 16Z" fill="#000"/>
<path d="M22 11C22.5523 11 23 11.4477 23 12C23 12.5523 22.5523 13 22 13H2C1.44772 13 1 12.5523 1 12C1 11.4477 1.44772 11 2 11H22Z" fill="#000"/>
</svg>
