<svg width="24" height="24" viewBox="0 0 24 24" fill="none" xmlns="http://www.w3.org/2000/svg">
<path d="M15 20H18C18.5304 20 19.0391 19.7893 19.4142 19.4142C19.7893 19.0391 20 18.5304 20 18V15C20 14.7348 20.1054 14.4804 20.2929 14.2929C20.4804 14.1054 20.7348 14 21 14C21.2652 14 21.5196 14.1054 21.7071 14.2929C21.8946 14.4804 22 14.7348 22 15V18C22 19.0609 21.5786 20.0783 20.8284 20.8284C20.0783 21.5786 19.0609 22 18 22H6C4.93913 22 3.92172 21.5786 3.17157 20.8284C2.42143 20.0783 2 19.0609 2 18V15C2 14.7348 2.10536 14.4804 2.29289 14.2929C2.48043 14.1054 2.73478 14 3 14C3.26522 14 3.51957 14.1054 3.70711 14.2929C3.89464 14.4804 4 14.7348 4 15V18C4 18.5304 4.21071 19.0391 4.58579 19.4142C4.96086 19.7893 5.46957 20 6 20H9C9.26522 20 9.51957 20.1054 9.70711 20.2929C9.89464 20.4804 10 20.7348 10 21C10 21.2652 9.89464 21.5196 9.70711 21.7071C9.51957 21.8946 9.26522 22 9 22H15C14.7348 22 14.4804 21.8946 14.2929 21.7071C14.1054 21.5196 14 21.2652 14 21C14 20.7348 14.1054 20.4804 14.2929 20.2929C14.4804 20.1054 14.7348 20 15 20ZM4 9C4 9.26522 3.89464 9.51957 3.70711 9.70711C3.51957 9.89464 3.26522 10 3 10C2.73478 10 2.48043 9.89464 2.29289 9.70711C2.10536 9.51957 2 9.26522 2 9V6C2 4.93913 2.42143 3.92172 3.17157 3.17157C3.92172 2.42143 4.93913 2 6 2H9C9.26522 2 9.51957 2.10536 9.70711 2.29289C9.89464 2.48043 10 2.73478 10 3C10 3.26522 9.89464 3.51957 9.70711 3.70711C9.51957 3.89464 9.26522 4 9 4H6C5.46957 4 4.96086 4.21071 4.58579 4.58579C4.21071 4.96086 4 5.46957 4 6V9ZM20 9V6C20 5.46957 19.7893 4.96086 19.4142 4.58579C19.0391 4.21071 18.5304 4 18 4H15C14.7348 4 14.4804 3.89464 14.2929 3.70711C14.1054 3.51957 14 3.26522 14 3C14 2.73478 14.1054 2.48043 14.2929 2.29289C14.4804 2.10536 14.7348 2 15 2H18C19.0609 2 20.0783 2.42143 20.8284 3.17157C21.5786 3.92172 22 4.93913 22 6V9C22 9.26522 21.8946 9.51957 21.7071 9.70711C21.5196 9.89464 21.2652 10 21 10C20.7348 10 20.4804 9.89464 20.2929 9.70711C20.1054 9.51957 20 9.26522 20 9Z" fill="#000"/>
<path d="M11.4002 7.81343C11.4002 6.81334 10.5865 5.99999 9.58639 5.99999H7.81344C6.81335 5.99999 6 6.81334 6 7.81343V9.58637C6 10.5865 6.81335 11.4002 7.81344 11.4002H9.58639C10.5865 11.4002 11.4002 10.5865 11.4002 9.58637V7.81343ZM9.90025 9.58637C9.90025 9.75962 9.75963 9.90024 9.58639 9.90024H7.81344C7.64057 9.90024 7.49995 9.75962 7.49995 9.58637V7.81343C7.49995 7.64056 7.64057 7.49994 7.81344 7.49994H9.58639C9.75963 7.49994 9.90025 7.64056 9.90025 7.81343V9.58637ZM18 7.81343C18 6.81334 17.1867 5.99999 16.1866 5.99999H14.4136C13.4135 5.99999 12.5998 6.81334 12.5998 7.81343V9.58637C12.5998 10.5865 13.4135 11.4002 14.4136 11.4002H16.1866C17.1867 11.4002 18 10.5865 18 9.58637V7.81343ZM16.5 9.58637C16.5 9.75962 16.3594 9.90024 16.1866 9.90024H14.4136C14.2404 9.90024 14.0997 9.75962 14.0997 9.58637V7.81343C14.0997 7.64056 14.2404 7.49994 14.4136 7.49994H16.1866C16.3594 7.49994 16.5 7.64056 16.5 7.81343V9.58637ZM16.1866 12.7498H14.4136C13.4135 12.7498 12.5998 13.5631 12.5998 14.5632V16.3362C12.5998 17.3363 13.4135 18.15 14.4136 18.15H16.1866C17.1867 18.15 18 17.3363 18 16.3362V14.5632C18 13.5631 17.1867 12.7498 16.1866 12.7498ZM16.5 16.3358C16.5 16.509 16.3594 16.6497 16.1866 16.6497H14.4136C14.2404 16.6497 14.0997 16.509 14.0997 16.3358V14.5628C14.0997 14.39 14.2404 14.2494 14.4136 14.2494H16.1866C16.3594 14.2494 16.5 14.39 16.5 14.5628V16.3358ZM11.4002 16.1862V14.4132C11.4002 13.4131 10.5865 12.5994 9.58639 12.5994H7.81344C6.81335 12.5994 6 13.4131 6 14.4132V16.1862C6 17.1863 6.81335 17.9996 7.81344 17.9996H9.58639C10.5865 17.9996 11.4002 17.1863 11.4002 16.1862ZM7.50033 16.1862V14.4132C7.50033 14.24 7.64095 14.0994 7.81382 14.0994H9.58676C9.76001 14.0994 9.90063 14.24 9.90063 14.4132V16.1862C9.90063 16.359 9.76001 16.4997 9.58676 16.4997H7.81382C7.64095 16.4997 7.50033 16.359 7.50033 16.1862Z" fill="#000"/>
</svg>
