<svg width="24" height="24" viewBox="0 0 24 24" fill="none" xmlns="http://www.w3.org/2000/svg">
<g clip-path="url(#clip0_23_857)">
<path fill-rule="evenodd" clip-rule="evenodd" d="M15.8683 11.5981L14.5559 15.0947C14.5559 15.0947 11.7294 15.1614 10.2095 15.1614C8.21691 15.1614 7.87307 13.7748 8.2792 12.4865C8.54003 11.6586 9.17267 9.99893 9.48868 9.19436C9.67671 8.71482 10.2124 7.99998 11.7585 7.99998H17.8064C17.1407 8.3883 16.5794 8.99675 16.2804 9.69777H12.3061C11.8491 9.69777 11.7227 10.0507 11.685 10.141C11.4432 10.7184 11.0612 11.8836 10.7126 12.9463C10.5948 13.3064 10.8411 13.4846 11.083 13.4846L12.6458 13.4827L13.3632 11.5981H15.8683Z" fill="#000"/>
<path fill-rule="evenodd" clip-rule="evenodd" d="M19.6449 10.7893L19.9412 10.79L20.911 10.7893C22.1421 10.7893 22.8235 11.7675 22.4332 12.9751C22.0422 14.1828 20.7274 15.1617 19.4965 15.1617H15.0966L15.7085 13.4941H19.6235C19.9454 13.4941 20.2898 13.2377 20.392 12.9216C20.4943 12.6057 20.3157 12.3492 19.9936 12.3492H19.4858L18.1174 12.3472C16.9472 12.3472 16.3005 11.418 16.6715 10.2709C17.0422 9.12378 18.2915 8.1938 19.461 8.1938H24L23.3573 9.86147H19.3408C19.0344 9.86147 18.7078 10.0214 18.6104 10.3216C18.5131 10.6221 18.6829 10.7893 18.9891 10.7893H19.6449Z" fill="#000"/>
<path fill-rule="evenodd" clip-rule="evenodd" d="M4.418 15.153L5.4745 12.2885H0C0 12.2885 0.197976 10.813 2.13842 10.813H6.01238L6.97335 8.1938H9.48406L6.95091 15.153H4.418ZM3.57801 12.4797L2.60239 15.1614H0.0805805L1.06545 12.4797H3.57801ZM1.74102 10.6394L2.63608 8.20243H5.13537L4.24841 10.6394H1.74102Z" fill="#000"/>
</g>
<defs>
<clipPath id="clip0_23_857">
<rect width="24" height="24" fill="white"/>
</clipPath>
</defs>
</svg>
