<svg width="24" height="24" viewBox="0 0 24 24" fill="none" xmlns="http://www.w3.org/2000/svg">
<path d="M4.22071 2.69822C5.97483 1.77566 7.71284 1.8817 9.12208 2.36033C10.401 2.79479 11.4461 3.54724 12.0928 4.17869C12.2635 3.99179 12.4504 3.80761 12.6533 3.63084C13.7043 2.71543 15.223 1.97945 17.1982 2.17869C21.1548 2.57792 23.2797 6.18987 22.9697 9.55857C22.7494 11.9523 21.3838 14.2162 20.5449 15.3135C20.5333 15.8494 20.4124 16.5139 20.0479 17.0996C19.8016 17.4952 19.4406 17.8587 18.9375 18.0957C18.7021 18.2066 18.4487 18.2811 18.1807 18.3242C18.0745 18.6563 17.909 19.0025 17.6582 19.3105C17.3944 19.6344 17.0318 19.9208 16.5566 20.081C16.3395 20.1542 16.1116 20.1944 15.876 20.207C15.2129 21.3646 14.2891 21.9383 13.2686 21.9863C12.5597 22.0196 11.9197 21.7896 11.4277 21.5068C11.4063 21.5345 11.4063 21.5351 11.4063 21.5351L11.4053 21.5342L11.4014 21.5312C11.3982 21.5288 11.3936 21.525 11.3877 21.5205C11.3758 21.5113 11.3584 21.498 11.3359 21.4804C11.2907 21.4451 11.2245 21.393 11.1397 21.3261C11.1373 21.3243 11.1352 21.3221 11.1328 21.3203C11.0408 21.2558 10.9554 21.1924 10.8799 21.1289L10.8848 21.122C10.7528 21.0172 10.598 20.8955 10.4258 20.7568C9.82605 20.2739 9.00168 19.5986 8.1045 18.8291C6.33216 17.3089 4.19867 15.3565 2.9834 13.7842C1.71354 12.1411 0.937008 10.0001 1.00391 7.9531C1.07218 5.86679 2.02896 3.85095 4.22071 2.69822ZM8.47852 4.25388C7.46419 3.90938 6.31465 3.85594 5.15137 4.46775C3.69638 5.23299 3.05163 6.53049 3.00293 8.01853C2.95305 9.5457 3.54441 11.2404 4.56543 12.5615C5.64119 13.9534 7.62916 15.7872 9.40625 17.3115C10.2838 18.0642 11.0916 18.7256 11.6797 19.1992C11.9476 19.4149 12.17 19.5909 12.332 19.7187C12.581 19.8814 12.8953 20.0014 13.1748 19.9883C13.372 19.979 13.7076 19.9001 14.0615 19.3476L11.4248 16.3486L12.9268 15.0273L15.7256 18.2119C15.8165 18.2116 15.8787 18.1988 15.918 18.1855C15.9877 18.1619 16.0481 18.1206 16.1074 18.0478C16.1881 17.9487 16.2481 17.8092 16.2891 17.665L13.5234 14.2783C13.1744 13.8505 13.2383 13.2203 13.666 12.8711C14.0938 12.5221 14.724 12.586 15.0732 13.0136L17.8027 16.3574C17.9316 16.3434 18.0224 16.3156 18.085 16.2861C18.1939 16.2348 18.2786 16.157 18.3496 16.0429C18.4596 15.8663 18.5195 15.6258 18.5391 15.3945L14.4063 10.4883C14.3573 10.5411 14.3101 10.5954 14.2598 10.6465C13.5077 11.4096 12.232 12.3326 10.8047 11.8662C10.4454 11.7487 10.1197 11.5479 9.87305 11.247C9.62815 10.948 9.50968 10.6084 9.46485 10.2881C9.38095 9.68811 9.54436 9.06937 9.71583 8.58787C9.89622 8.0813 10.1426 7.57518 10.3477 7.16502C10.5738 6.71272 10.7197 6.43077 10.7842 6.25291C10.8281 6.1316 10.887 5.99511 10.958 5.84666C10.9288 5.82658 10.9004 5.80473 10.8731 5.78123L10.7988 5.71091L10.6162 5.53025C10.1475 5.09437 9.38617 4.56215 8.47852 4.25388ZM11.5156 14.9365C11.9303 14.572 12.5621 14.6129 12.9268 15.0273L11.4248 16.3486C11.0602 15.9338 11.1008 15.3011 11.5156 14.9365ZM16.9971 4.16892C15.6766 4.03578 14.6889 4.51071 13.9678 5.13865C13.2213 5.78878 12.7933 6.57962 12.665 6.93357C12.5489 7.25429 12.3196 7.6937 12.1367 8.05955C11.9326 8.46787 11.7353 8.87784 11.5996 9.25877C11.4722 9.61656 11.4397 9.84601 11.4434 9.96775C11.6917 10.0368 12.169 9.91782 12.835 9.24216C13.4617 8.60626 13.9202 7.8008 14.0449 7.4072C14.2935 6.62283 14.8542 6.15725 15.3789 5.90525C15.8853 5.66212 16.4118 5.58754 16.7764 5.59373C17.3284 5.60333 17.7682 6.05827 17.7588 6.61033C17.7494 7.16246 17.2943 7.60202 16.7422 7.59275C16.6403 7.59102 16.4303 7.61916 16.2451 7.70798C16.0784 7.78806 15.9915 7.88442 15.9512 8.0117C15.8756 8.24999 15.7557 8.52003 15.6045 8.80564L19.4561 13.3779C20.1049 12.3575 20.8423 10.8554 20.9785 9.37498C21.2103 6.85463 19.6323 4.43472 16.9971 4.16892Z" fill="#000"/>
</svg>
