<svg width="24" height="24" viewBox="0 0 24 24" fill="none" xmlns="http://www.w3.org/2000/svg">
<path d="M7.50009 8.5C6.94781 8.5 6.50009 8.05228 6.50009 7.5C6.50009 6.94771 6.94781 6.5 7.50009 6.5L16.5001 6.5C17.0524 6.5 17.5001 6.94772 17.5001 7.5C17.5001 8.05228 17.0524 8.5 16.5001 8.5L7.50009 8.5Z" fill="#000"/>
<path d="M7.50009 12.1C6.94781 12.1 6.50009 11.6523 6.50009 11.1C6.50009 10.5477 6.94781 10.1 7.50009 10.1L16.5001 10.1C17.0524 10.1 17.5001 10.5477 17.5001 11.1C17.5001 11.6523 17.0524 12.1 16.5001 12.1L7.50009 12.1Z" fill="#000"/>
<path d="M7.50009 15.7C6.94781 15.7 6.50009 15.2523 6.50009 14.7C6.50009 14.1477 6.94781 13.7 7.50009 13.7H12.0001C12.5524 13.7 13.0001 14.1477 13.0001 14.7C13.0001 15.2523 12.5524 15.7 12.0001 15.7H7.50009Z" fill="#000"/>
<path d="M19.1002 4.7998C19.1001 4.38555 18.785 4.0447 18.3814 4.00391L18.3004 4H5.6998C5.25813 4.00011 4.9001 4.35813 4.89999 4.7998V18.4385C4.89999 18.9926 5.44995 19.3791 5.97128 19.1914L7.37656 18.6855C8.05976 18.4396 8.81204 18.4686 9.47421 18.7666L11.6715 19.7559C11.8803 19.8498 12.1199 19.8498 12.3287 19.7559L14.526 18.7666C15.1881 18.4686 15.9404 18.4396 16.6236 18.6855L18.0289 19.1914C18.5502 19.3791 19.1002 18.9926 19.1002 18.4385V4.7998ZM21.1002 18.4385C21.1002 20.3778 19.1758 21.7301 17.3512 21.0732L15.9459 20.5674C15.7507 20.4971 15.5354 20.5057 15.3463 20.5908L13.149 21.5791C12.4183 21.9079 11.5819 21.9079 10.8512 21.5791L8.65292 20.5908C8.46386 20.5058 8.24936 20.4972 8.05429 20.5674L6.64804 21.0732C4.82347 21.7299 2.89999 20.3777 2.89999 18.4385V4.7998C2.9001 3.25356 4.15356 2.00011 5.6998 2H18.3004L18.5865 2.01465C19.9982 2.15815 21.1001 3.35023 21.1002 4.7998V18.4385Z" fill="#000"/>
</svg>
