<svg width="24" height="24" viewBox="0 0 24 24" fill="none" xmlns="http://www.w3.org/2000/svg">
<path d="M18 10C18 6.68629 15.3137 4 12 4C8.68629 4 6 6.68629 6 10C6 10.7651 6.26682 11.7561 6.76074 12.8643C7.24771 13.9568 7.92247 15.0905 8.65723 16.1182C9.39319 17.1475 10.1695 18.0431 10.8467 18.6689C11.1863 18.9829 11.481 19.2099 11.7158 19.3525C11.8715 19.4471 11.9635 19.481 12 19.4932C12.0365 19.481 12.1285 19.4471 12.2842 19.3525C12.519 19.2099 12.8137 18.9829 13.1533 18.6689C13.8305 18.0431 14.6068 17.1475 15.3428 16.1182C16.0775 15.0905 16.7523 13.9568 17.2393 12.8643C17.7332 11.7561 18 10.7651 18 10ZM14.5 10C14.5 8.61929 13.3807 7.5 12 7.5C10.6193 7.5 9.5 8.61929 9.5 10C9.5 11.3807 10.6193 12.5 12 12.5C13.3807 12.5 14.5 11.3807 14.5 10ZM16.5 10C16.5 12.4853 14.4853 14.5 12 14.5C9.51472 14.5 7.5 12.4853 7.5 10C7.5 7.51472 9.51472 5.5 12 5.5C14.4853 5.5 16.5 7.51472 16.5 10ZM20 10C20 11.1678 19.6105 12.4558 19.0654 13.6787C18.5134 14.9173 17.7662 16.1673 16.9697 17.2812C16.1744 18.3936 15.3102 19.3988 14.5107 20.1377C14.1123 20.5059 13.7094 20.8273 13.3223 21.0625C12.9624 21.2811 12.4963 21.5 12 21.5C11.5037 21.5 11.0376 21.2811 10.6777 21.0625C10.2906 20.8273 9.88768 20.5059 9.48926 20.1377C8.68983 19.3988 7.82556 18.3936 7.03027 17.2812C6.23383 16.1673 5.48665 14.9173 4.93457 13.6787C4.38951 12.4558 4 11.1678 4 10C4 5.58172 7.58172 2 12 2C16.4183 2 20 5.58172 20 10Z" fill="#000"/>
</svg>
