<svg width="24" height="24" viewBox="0 0 24 24" fill="none" xmlns="http://www.w3.org/2000/svg">
<path d="M14.2471 10.3418C14.6107 9.92625 15.2426 9.88368 15.6582 10.247C16.0737 10.6106 16.1163 11.2425 15.7529 11.6582L12.8828 14.9384C12.1781 15.7439 10.9637 15.8521 10.1279 15.1836L8.375 13.7812L8.29883 13.7129C7.93703 13.3579 7.8953 12.7793 8.21875 12.375C8.54225 11.9706 9.11623 11.884 9.542 12.1592L9.625 12.2187L11.3779 13.6211L14.2471 10.3418Z" fill="#000"/>
<path d="M20 13C20 8.58169 16.4183 4.99997 12 4.99997C7.58172 4.99997 4 8.58169 4 13C4 17.4182 7.58172 21 12 21C16.4183 21 20 17.4182 20 13ZM22 13C22 18.5228 17.5229 23 12 23C6.47716 23 2 18.5228 2 13C2 7.47712 6.47716 2.99997 12 2.99997C17.5229 2.99997 22 7.47712 22 13Z" fill="#000"/>
<path d="M6.7959 1.08396C7.30192 0.862678 7.89201 1.09356 8.11328 1.59958C8.3342 2.10537 8.10325 2.69462 7.59766 2.91599C5.65179 3.7669 3.99796 5.16593 2.83301 6.91794C2.52723 7.37783 1.90619 7.503 1.44629 7.19724C0.986386 6.89145 0.861209 6.27042 1.167 5.81052C2.54228 3.74207 4.49479 2.09023 6.7959 1.08396ZM17.2041 1.08396C19.3614 2.02735 21.2123 3.53814 22.5684 5.4277L22.833 5.81052L22.8848 5.89841C23.1216 6.34673 22.985 6.91049 22.5537 7.19724C22.0938 7.503 21.4728 7.37783 21.167 6.91794C20.0021 5.16593 18.3482 3.7669 16.4023 2.91599L17.2041 1.08396ZM15.8867 1.59958C16.108 1.09356 16.6981 0.862678 17.2041 1.08396L16.4023 2.91599C15.8968 2.69462 15.6658 2.10537 15.8867 1.59958Z" fill="#000"/>
<path d="M4.44141 18.4013C4.77209 17.959 5.39946 17.8685 5.8418 18.1992C6.28383 18.5299 6.37437 19.1564 6.04395 19.5986L3.80078 22.5986C3.4701 23.0409 2.84371 23.1314 2.40137 22.8008C1.95903 22.4701 1.86854 21.8437 2.19922 21.4013L4.44141 18.4013ZM18.1582 18.1992C18.6005 17.8685 19.2269 17.9591 19.5576 18.4013L21.8008 21.4013L21.8584 21.4863C22.1191 21.9208 22.0132 22.4908 21.5986 22.8008C21.184 23.1107 20.6076 23.0507 20.2647 22.6777L20.1992 22.5986L17.9561 19.5986C17.6256 19.1563 17.7161 18.5299 18.1582 18.1992Z" fill="#000"/>
</svg>
