<svg width="24" height="24" viewBox="0 0 24 24" fill="none" xmlns="http://www.w3.org/2000/svg">
<path fill-rule="evenodd" clip-rule="evenodd" d="M1.60572 8.84372C1.60572 8.53878 1.85292 8.29158 2.15786 8.29158H8.58272C8.88766 8.29158 9.13486 8.53878 9.13486 8.84372C9.13486 9.14865 8.88766 9.39585 8.58272 9.39585H2.15786C1.85292 9.39585 1.60572 9.14865 1.60572 8.84372Z" fill="#000"/>
<path fill-rule="evenodd" clip-rule="evenodd" d="M0 12.8596C0 12.5547 0.2472 12.3075 0.552137 12.3075H4.83538C5.14031 12.3075 5.38751 12.5547 5.38751 12.8596C5.38751 13.1646 5.14031 13.4118 4.83538 13.4118H0.552137C0.2472 13.4118 0 13.1646 0 12.8596Z" fill="#000"/>
<path fill-rule="evenodd" clip-rule="evenodd" d="M1.60572 16.6071C1.60572 16.3021 1.85292 16.0549 2.15786 16.0549H5.37029C5.67523 16.0549 5.92243 16.3021 5.92243 16.6071C5.92243 16.912 5.67523 17.1592 5.37029 17.1592H2.15786C1.85292 17.1592 1.60572 16.912 1.60572 16.6071Z" fill="#000"/>
<path fill-rule="evenodd" clip-rule="evenodd" d="M7.16376 17.9461C7.16376 17.9036 10.0628 10.3835 10.9985 8.37576L11.447 7.23807L17.5651 7.23799L17.7249 7.70042C18.1242 8.86854 19.0199 9.82376 20.121 10.2496L20.5489 10.4201V14.7702L20.3378 14.8493C19.967 14.971 19.3965 15.3056 19.0199 15.6037C18.4322 16.0783 17.9644 16.7658 17.6964 17.5628L17.5651 17.9461H12.0996C10.8656 17.9461 9.81425 17.9492 9.00311 17.9515C7.83411 17.955 7.16376 17.9569 7.16376 17.9461ZM17.3445 14.6202C17.6943 14.0235 17.8764 13.3432 17.8715 12.6516C17.8718 12.6471 17.8715 12.6425 17.8713 12.6381C17.8676 12.5432 17.7877 12.4694 17.6929 12.4731H16.8005C16.7961 12.4729 16.7915 12.4729 16.787 12.4731C16.6922 12.4768 16.6183 12.5567 16.6221 12.6516C16.6319 13.3333 16.3711 13.991 15.897 14.4808C15.4383 14.9821 14.8019 15.2843 14.1235 15.323V12.6068L16.3153 11.9321C16.3936 11.9121 16.4472 11.84 16.4436 11.7592V11.0454C16.4447 10.9881 16.4176 10.9339 16.3711 10.9004C16.3276 10.8641 16.2682 10.8535 16.2149 10.8725L14.1236 11.5194V11.0007L16.3153 10.3259C16.3936 10.3059 16.4473 10.2338 16.4437 10.1531V9.43907C16.4449 9.38173 16.4177 9.32752 16.3712 9.29403C16.3277 9.25773 16.2683 9.24713 16.215 9.26616L14.1237 9.91306V8.9038C14.1239 8.8993 14.1239 8.89472 14.1237 8.89023C14.12 8.79546 14.0401 8.72165 13.9453 8.72535H13.0529C13.0484 8.72511 13.0439 8.72511 13.0395 8.72535C12.9446 8.72904 12.8708 8.80895 12.8745 8.9038V10.2978L11.5751 10.6937C11.4968 10.7137 11.4433 10.7858 11.4469 10.8666V11.5804C11.4458 11.6377 11.4728 11.6919 11.5193 11.7254C11.5506 11.747 11.5874 11.7587 11.6253 11.7589C11.6423 11.7597 11.6592 11.7577 11.6755 11.7534L12.8745 11.3855V11.9041L11.5751 12.3001C11.4968 12.3201 11.4433 12.3922 11.4469 12.4729V13.1867C11.4458 13.2441 11.4728 13.2982 11.5193 13.3317C11.5506 13.3533 11.5874 13.3651 11.6253 13.3653C11.6423 13.366 11.6592 13.3641 11.6755 13.3598L12.8747 12.9917V16.3992C12.8744 16.4037 12.8744 16.4083 12.8747 16.4128C12.8784 16.5075 12.9583 16.5814 13.053 16.5777H13.9454C14.6371 16.5826 15.3172 16.4005 15.914 16.0507C16.5082 15.7076 17.0014 15.2143 17.3445 14.6202Z" fill="#000"/>
<path fill-rule="evenodd" clip-rule="evenodd" d="M12.5482 4.00012H20.9632C22.6404 4.00012 24 5.35972 24 7.03687V17.8789C24 19.5544 22.6454 20.9156 20.9666 20.9156H5.92253L6.72774 19.2592H20.9666C21.7273 19.2592 22.3436 18.6429 22.3436 17.8789V7.03687C22.3436 6.27453 21.7256 5.65653 20.9632 5.65653H11.8177L12.5482 4.00012Z" fill="#000"/>
</svg>
