<svg width="24" height="24" viewBox="0 0 24 24" fill="none" xmlns="http://www.w3.org/2000/svg">
<path d="M9 18C9 17.4477 8.55228 17 8 17C7.44772 17 7 17.4477 7 18C7 18.5523 7.44772 19 8 19C8.55228 19 9 18.5523 9 18ZM20 17C20.5523 17 21 17.4477 21 18C21 18.5523 20.5523 19 20 19H13C12.4477 19 12 18.5523 12 18C12 17.4477 12.4477 17 13 17H20ZM17 9C18.3059 9 19.4141 9.83532 19.8262 11H21C21.5523 11 22 11.4477 22 12C22 12.5523 21.5523 13 21 13H19.8262C19.4141 14.1647 18.3059 15 17 15C15.3431 15 14 13.6569 14 12C14 10.3431 15.3431 9 17 9ZM12 11C12.5523 11 13 11.4477 13 12C13 12.5523 12.5523 13 12 13H3C2.44772 13 2 12.5523 2 12C2 11.4477 2.44772 11 3 11H12ZM12 3C13.3059 3 14.4141 3.83532 14.8262 5H21C21.5523 5 22 5.44772 22 6C22 6.55228 21.5523 7 21 7H14.8262C14.4141 8.16468 13.3059 9 12 9C10.6941 9 9.58594 8.16468 9.17383 7H3C2.44772 7 2 6.55228 2 6C2 5.44772 2.44772 5 3 5H9.17383C9.58594 3.83532 10.6941 3 12 3ZM12 5C11.4477 5 11 5.44772 11 6C11 6.55228 11.4477 7 12 7C12.5523 7 13 6.55228 13 6C13 5.44772 12.5523 5 12 5ZM11 18C11 19.6569 9.65685 21 8 21C6.69415 21 5.58594 20.1647 5.17383 19H3C2.44772 19 2 18.5523 2 18C2 17.4477 2.44772 17 3 17H5.17383C5.58594 15.8353 6.69415 15 8 15C9.65685 15 11 16.3431 11 18ZM16 12C16 12.5523 16.4477 13 17 13C17.5523 13 18 12.5523 18 12C18 11.4477 17.5523 11 17 11C16.4477 11 16 11.4477 16 12Z" fill="#000"/>
</svg>
