<svg width="24" height="24" viewBox="0 0 24 24" fill="none" xmlns="http://www.w3.org/2000/svg">
    <path fill-rule="evenodd" clip-rule="evenodd"
        d="M4.08801 2.19998C3.24001 2.42398 2.52801 3.09698 2.23201 3.95498C2.14101 4.21598 2.14001 4.24798 2.14001 6.02298V7.82698L2.25701 7.99598C2.33725 8.11861 2.44783 8.2184 2.57802 8.28569C2.7082 8.35297 2.85357 8.38545 3.00001 8.37998C3.14643 8.38526 3.29172 8.35269 3.42188 8.28542C3.55203 8.21816 3.66263 8.11847 3.74301 7.99598L3.86001 7.82698L3.88001 6.20398C3.89801 4.71898 3.90601 4.56798 3.97501 4.43998C4.07901 4.24398 4.23301 4.08698 4.42001 3.98598C4.57401 3.90298 4.63601 3.89898 6.20401 3.87998L7.82701 3.85998L7.99601 3.74298C8.1185 3.6626 8.21819 3.55199 8.28546 3.42184C8.35272 3.29169 8.38529 3.14639 8.38001 2.99998C8.38549 2.85354 8.353 2.70817 8.28572 2.57798C8.21844 2.4478 8.11864 2.33722 7.99601 2.25698L7.82701 2.13998L6.10301 2.13198C4.51301 2.12398 4.35701 2.12898 4.08801 2.19998ZM16.2 2.14698C15.884 2.26398 15.644 2.59198 15.612 2.94998C15.595 3.14798 15.608 3.20898 15.706 3.39398C15.775 3.52398 15.889 3.65798 15.994 3.73398L16.168 3.85998L17.794 3.87998C19.364 3.89898 19.426 3.90298 19.58 3.98598C19.784 4.09698 19.937 4.25798 20.028 4.45998C20.092 4.60298 20.102 4.79198 20.12 6.22398L20.14 7.82698L20.257 7.99598C20.3374 8.11847 20.448 8.21816 20.5782 8.28542C20.7083 8.35269 20.8536 8.38526 21 8.37998C21.1465 8.38545 21.2918 8.35297 21.422 8.28569C21.5522 8.2184 21.6628 8.11861 21.743 7.99598L21.86 7.82698V6.04298C21.86 4.31198 21.857 4.25198 21.771 3.97998C21.521 3.18998 20.839 2.49998 20.04 2.22998C19.789 2.14498 19.717 2.14098 18.02 2.13298C17.052 2.12798 16.233 2.13398 16.2 2.14698ZM5.69001 7.80998L5.70001 9.89998H9.90001L9.91001 7.80998L9.92101 5.71998H5.67901L5.69001 7.80998ZM12 6.41998V7.11998H10.6V9.91998H13.4V8.51998H12V7.11998H13.4V5.71998H12V6.41998ZM14.09 7.80998L14.1 9.89998H18.3L18.31 7.80998L18.321 5.71998H14.079L14.09 7.80998ZM8.84001 7.79998V8.83998H6.76001V6.75998H8.84001V7.79998ZM17.24 7.79998V8.83998H15.16V6.75998H17.24V7.79998ZM7.28001 7.79998V8.31998H8.32001V7.27998H7.28001V7.79998ZM15.68 7.79998V8.31998H16.72V7.27998H15.68V7.79998ZM5.68001 11.3V12H7.08001V13.4H8.52001V12H9.88001V13.4H11.279L11.29 15.15L11.3 16.9L11.989 16.911L12.678 16.922L12.689 17.611L12.7 18.3H14.1L14.111 17.61L14.122 16.92H12.72V13.4H15.52V12H16.88V14.8H14.08V16.2H15.479L15.489 17.25L15.5 18.3H18.3L18.311 17.61L18.322 16.92H16.92V14.8H18.32V12H16.92V10.6H15.48V12H12.72V10.6H8.48001V12H7.12001V10.6H5.68001V11.3ZM12.68 12.7V13.4H11.32V12H12.68V12.7ZM5.69001 16.21L5.70001 18.3H9.90001L9.91001 16.21L9.92101 14.12H5.67901L5.69001 16.21ZM8.84001 16.2V17.24H6.76001V15.16H8.84001V16.2ZM2.75101 15.637C2.55087 15.704 2.37741 15.8333 2.25601 16.006L2.14001 16.173V19.82L2.24501 20.09C2.40501 20.501 2.59201 20.79 2.90101 21.099C3.22401 21.422 3.58001 21.645 3.98001 21.771C4.25201 21.857 4.31201 21.86 6.04301 21.86H7.82701L7.99601 21.743C8.11864 21.6627 8.21844 21.5522 8.28572 21.422C8.353 21.2918 8.38549 21.1464 8.38001 21C8.38529 20.8536 8.35272 20.7083 8.28546 20.5781C8.21819 20.448 8.1185 20.3374 7.99601 20.257L7.82701 20.14L6.20401 20.12C4.71901 20.102 4.56801 20.094 4.44001 20.025C4.248 19.9248 4.09001 19.7699 3.98601 19.58C3.90301 19.426 3.89901 19.364 3.88001 17.796L3.86001 16.173L3.74301 16.004C3.66404 15.8977 3.56647 15.8065 3.45501 15.735C3.26801 15.625 2.93201 15.579 2.75101 15.637ZM20.751 15.637C20.5509 15.704 20.3774 15.8333 20.256 16.006L20.14 16.173L20.12 17.776C20.101 19.305 20.096 19.388 20.015 19.56C19.9202 19.7695 19.7509 19.9363 19.54 20.028C19.397 20.092 19.208 20.102 17.776 20.12L16.173 20.14L16.004 20.257C15.8911 20.336 15.7974 20.4392 15.7295 20.5591C15.6617 20.679 15.6216 20.8126 15.612 20.95C15.595 21.148 15.608 21.209 15.706 21.394C15.775 21.525 15.889 21.658 15.994 21.734L16.168 21.86H17.954C19.688 21.86 19.748 21.857 20.02 21.771C20.4271 21.6338 20.7969 21.4044 21.1007 21.1006C21.4044 20.7969 21.6338 20.427 21.771 20.02C21.857 19.748 21.86 19.688 21.86 17.957V16.173L21.743 16.004C21.664 15.8977 21.5665 15.8065 21.455 15.735C21.268 15.625 20.932 15.579 20.751 15.637ZM7.28001 16.2V16.72H8.32001V15.68H7.28001V16.2Z"
        fill="#000" />
</svg>