<svg width="24" height="24" viewBox="0 0 24 24" fill="none" xmlns="http://www.w3.org/2000/svg">
<path d="M3.29302 3.29295C3.68355 2.90243 4.31656 2.90243 4.70708 3.29295L20.7071 19.293L20.7754 19.3691C21.0958 19.7619 21.0732 20.3409 20.7071 20.707C20.341 21.0731 19.762 21.0957 19.3692 20.7754L19.293 20.707L17.1495 18.5635C15.6313 19.3946 13.8842 20 12.0001 20C7.7372 20 4.12149 16.9159 2.14458 14.8359C0.618227 13.2299 0.618229 10.7701 2.14458 9.16405C2.92758 8.34023 3.93939 7.39348 5.12212 6.53612L3.29302 4.70702L3.22466 4.63084C2.90431 4.23807 2.92691 3.65907 3.29302 3.29295ZM6.55474 7.96874C5.39069 8.77733 4.38089 9.71489 3.59478 10.542C2.80205 11.376 2.80205 12.6239 3.59478 13.458C5.52945 15.4935 8.63193 18 12.0001 18C13.266 18 14.5016 17.6447 15.6661 17.0801L14.0303 15.4443C13.4349 15.7959 12.741 16 12.0001 16C9.79091 16 8.00005 14.2091 8.00005 12C8.00005 11.2589 8.20307 10.5643 8.55474 9.96874L6.55474 7.96874ZM12.0001 3.99999C16.2629 3.99999 19.8786 7.08406 21.8555 9.16405C23.3819 10.7701 23.3819 13.2299 21.8555 14.8359C21.3973 15.3181 20.8634 15.8411 20.2647 16.3623L20.1836 16.4248C19.7698 16.7172 19.1936 16.655 18.8536 16.2646C18.4909 15.8481 18.5347 15.2162 18.9512 14.8535L19.3487 14.498C19.7353 14.143 20.0889 13.7909 20.4053 13.458C21.1981 12.6239 21.1981 11.376 20.4053 10.542C18.4707 8.50645 15.3682 5.99999 12.0001 5.99999C11.2236 5.99999 10.4583 6.13316 9.71197 6.36717C9.18507 6.53233 8.62435 6.23872 8.45904 5.7119C8.29381 5.18494 8.5864 4.62326 9.11333 4.45799C10.0259 4.17185 10.9938 3.99999 12.0001 3.99999ZM10.0001 12C10.0001 13.1046 10.8955 14 12.0001 14C12.1791 14 12.3518 13.9746 12.5167 13.9306L10.0684 11.4824C10.0244 11.6474 10.0001 11.8207 10.0001 12Z" fill="#000"/>
</svg>
