<svg width="24" height="24" viewBox="0 0 24 24" fill="none" xmlns="http://www.w3.org/2000/svg">
<path d="M9.12991 2.84278C10.2961 0.38603 13.7039 0.386022 14.8701 2.84278L16.2617 5.77246C16.444 6.15631 16.7857 6.40353 17.1592 6.45996L20.2686 6.92969C22.9286 7.33156 23.8853 10.6486 22.0469 12.5117L19.7969 14.792C19.5096 15.0831 19.3695 15.5143 19.4405 15.9453L19.9717 19.166C20.3996 21.761 17.7422 23.9331 15.3223 22.6104L12.541 21.0898C12.201 20.9041 11.7991 20.9041 11.459 21.0898L8.67776 22.6104C6.25788 23.9331 3.60042 21.761 4.02835 19.166L4.5596 15.9453C4.63058 15.5143 4.4904 15.0831 4.20315 14.792L1.95315 12.5117C0.114803 10.6486 1.07148 7.33156 3.73147 6.92969L6.84085 6.45996C7.21437 6.40353 7.55601 6.15631 7.73831 5.77246L9.12991 2.84278ZM13.0635 3.7002C12.6203 2.76676 11.3798 2.76676 10.9366 3.7002L9.54593 6.62988C9.08911 7.59224 8.1951 8.27805 7.13967 8.4375L4.0303 8.90723C3.09164 9.04904 2.61133 10.3305 3.37698 11.1064L5.62698 13.3877C6.37352 14.1445 6.70522 15.223 6.53225 16.2715L6.001 19.4912C5.81438 20.6225 6.91901 21.2918 7.7178 20.8555L10.5 19.335C11.4378 18.8226 12.5623 18.8226 13.5 19.335L16.2823 20.8555C17.081 21.2918 18.1857 20.6225 17.9991 19.4912L17.4678 16.2715C17.2948 15.223 17.6265 14.1445 18.3731 13.3877L20.6231 11.1064C21.3887 10.3305 20.9084 9.04904 19.9698 8.90723L16.8604 8.4375C15.805 8.27805 14.9109 7.59224 14.4541 6.62988L13.0635 3.7002Z" fill="#000"/>
</svg>
