<svg width="18" height="18" viewBox="0 0 18 18" fill="none" xmlns="http://www.w3.org/2000/svg">
<path d="M4.62596 4.08397C4.3962 4.42862 4.48933 4.89427 4.83397 5.12404C5.17862 5.3538 5.64427 5.26067 5.87404 4.91603L4.62596 4.08397ZM6.3047 2.91795L6.92874 3.33397L6.3047 2.91795ZM11.6953 2.91795L12.3193 2.50192L11.6953 2.91795ZM12.126 4.91603C12.3557 5.26067 12.8214 5.3538 13.166 5.12404C13.5107 4.89427 13.6038 4.42862 13.374 4.08397L12.126 4.91603ZM10.5 10.125C10.5 10.9534 9.82843 11.625 9 11.625V13.125C10.6569 13.125 12 11.7819 12 10.125H10.5ZM9 11.625C8.17157 11.625 7.5 10.9534 7.5 10.125H6C6 11.7819 7.34315 13.125 9 13.125V11.625ZM7.5 10.125C7.5 9.29657 8.17157 8.625 9 8.625V7.125C7.34315 7.125 6 8.46815 6 10.125H7.5ZM9 8.625C9.82843 8.625 10.5 9.29657 10.5 10.125H12C12 8.46815 10.6569 7.125 9 7.125V8.625ZM5.87404 4.91603L6.92874 3.33397L5.68066 2.50192L4.62596 4.08397L5.87404 4.91603ZM7.55278 3H10.4472V1.5H7.55278V3ZM11.0713 3.33397L12.126 4.91603L13.374 4.08397L12.3193 2.50192L11.0713 3.33397ZM10.4472 3C10.698 3 10.9322 3.12533 11.0713 3.33397L12.3193 2.50192C11.902 1.87598 11.1995 1.5 10.4472 1.5V3ZM6.92874 3.33397C7.06784 3.12533 7.30201 3 7.55278 3V1.5C6.80048 1.5 6.09796 1.87598 5.68066 2.50192L6.92874 3.33397ZM4.5 5.25H13.5V3.75H4.5V5.25ZM15.75 7.5V12.75H17.25V7.5H15.75ZM13.5 15H4.5V16.5H13.5V15ZM2.25 12.75V7.5H0.75V12.75H2.25ZM4.5 15C3.25736 15 2.25 13.9926 2.25 12.75H0.75C0.75 14.8211 2.42893 16.5 4.5 16.5V15ZM15.75 12.75C15.75 13.9926 14.7426 15 13.5 15V16.5C15.5711 16.5 17.25 14.8211 17.25 12.75H15.75ZM13.5 5.25C14.7426 5.25 15.75 6.25736 15.75 7.5H17.25C17.25 5.42893 15.5711 3.75 13.5 3.75V5.25ZM4.5 3.75C2.42893 3.75 0.75 5.42893 0.75 7.5H2.25C2.25 6.25736 3.25736 5.25 4.5 5.25V3.75Z" fill="#000"/>
</svg>
