<svg width="24" height="24" viewBox="0 0 24 24" fill="none" xmlns="http://www.w3.org/2000/svg">
<path d="M18 5C18 3.89543 17.1046 3 16 3H8C6.89543 3 6 3.89543 6 5V19C6 20.1046 6.89543 21 8 21H16C17.1046 21 18 20.1046 18 19V5ZM20 19C20 21.2091 18.2091 23 16 23H8C5.79086 23 4 21.2091 4 19V5C4 2.79086 5.79086 1 8 1H16C18.2091 1 20 2.79086 20 5V19Z" fill="#000"/>
<path d="M13 18C13.5523 18 14 18.4477 14 19C14 19.5523 13.5523 20 13 20H11C10.4477 20 10 19.5523 10 19C10 18.4477 10.4477 18 11 18H13Z" fill="#000"/>
<path d="M11 11V7C11 6.44772 11.4477 6 12 6C12.5523 6 13 6.44772 13 7V11C13 11.5523 12.5523 12 12 12C11.4477 12 11 11.5523 11 11Z" fill="#000"/>
<path d="M13 14C13 14.5523 12.5523 15 12 15C11.4477 15 11 14.5523 11 14C11 13.4477 11.4477 13 12 13C12.5523 13 13 13.4477 13 14Z" fill="#000"/>
</svg>
