<svg width="24" height="24" viewBox="0 0 24 24" fill="none" xmlns="http://www.w3.org/2000/svg">
<path d="M9.79982 15.5596C9.79982 15.3981 9.79806 15.2865 9.79591 15.2031C9.71262 15.201 9.60126 15.2002 9.44044 15.2002H5.36037C5.19856 15.2002 5.08644 15.201 5.00294 15.2031C5.0008 15.2865 5.00001 15.3981 5.00001 15.5596V19.6397C5.00001 19.8008 5.00081 19.9127 5.00294 19.9961C5.08644 19.9983 5.19855 20 5.36037 20H9.44044C9.60128 20 9.71261 19.9982 9.79591 19.9961C9.79804 19.9127 9.79982 19.8009 9.79982 19.6397V15.5596ZM9.79982 5.36037C9.79982 5.19854 9.79806 5.08644 9.79591 5.00294C9.71262 5.00082 9.60126 5.00001 9.44044 5.00001H5.36037C5.19856 5.00001 5.08644 5.00079 5.00294 5.00294C5.00079 5.08644 5.00001 5.19856 5.00001 5.36037V9.44044C5.00001 9.60126 5.00082 9.71262 5.00294 9.79591C5.08644 9.79806 5.19854 9.79982 5.36037 9.79982H9.44044C9.60128 9.79982 9.71261 9.79804 9.79591 9.79591C9.79804 9.71261 9.79982 9.60128 9.79982 9.44044V5.36037ZM20 5.36037C20 5.19855 19.9983 5.08644 19.9961 5.00294C19.9127 5.00081 19.8008 5.00001 19.6397 5.00001H15.5596C15.3981 5.00001 15.2865 5.0008 15.2031 5.00294C15.201 5.08644 15.2002 5.19856 15.2002 5.36037V9.44044C15.2002 9.60126 15.201 9.71262 15.2031 9.79591C15.2865 9.79806 15.3981 9.79982 15.5596 9.79982H19.6397C19.8009 9.79982 19.9127 9.79804 19.9961 9.79591C19.9982 9.71261 20 9.60128 20 9.44044V5.36037ZM11.7998 19.6397C11.7998 19.861 11.8008 20.0875 11.7852 20.2793C11.7685 20.4829 11.7288 20.7349 11.5986 20.9902C11.4213 21.3383 11.1381 21.6215 10.7901 21.7988C10.5348 21.9289 10.2836 21.9687 10.0801 21.9854C9.88831 22.001 9.66183 22 9.44044 22H5.36037C5.13901 22 4.91253 22.001 4.72072 21.9854C4.51714 21.9687 4.26516 21.929 4.00978 21.7988C3.66175 21.6215 3.37854 21.3383 3.20119 20.9902C3.07106 20.7349 3.0313 20.4829 3.01466 20.2793C2.99902 20.0875 3.00001 19.861 3.00001 19.6397V15.5596C3.00001 15.3382 2.99899 15.1117 3.01466 14.9199C3.03131 14.7164 3.07116 14.4652 3.20119 14.21L3.27345 14.083C3.45117 13.7933 3.70526 13.5566 4.00978 13.4014C4.26516 13.2713 4.51714 13.2315 4.72072 13.2149C4.91253 13.1992 5.139 13.2002 5.36037 13.2002H9.44044C9.66183 13.2002 9.88831 13.1992 10.0801 13.2149C10.2327 13.2273 10.4119 13.2535 10.5996 13.3203L10.7901 13.4014L10.917 13.4727C11.1657 13.6251 11.3749 13.8343 11.5274 14.083L11.5986 14.21L11.6797 14.4004C11.7466 14.5882 11.7727 14.7673 11.7852 14.9199C11.8008 15.1117 11.7998 15.3382 11.7998 15.5596V19.6397ZM11.7998 9.44044C11.7998 9.66183 11.8008 9.88831 11.7852 10.0801C11.7685 10.2836 11.7287 10.5348 11.5986 10.7901C11.4213 11.1381 11.1381 11.4213 10.7901 11.5986C10.5348 11.7287 10.2836 11.7685 10.0801 11.7852C9.88831 11.8008 9.66183 11.7998 9.44044 11.7998H5.36037C5.139 11.7998 4.91253 11.8008 4.72072 11.7852C4.51714 11.7685 4.26516 11.7288 4.00978 11.5986C3.66176 11.4213 3.37852 11.1381 3.20119 10.7901C3.07116 10.5348 3.03131 10.2836 3.01466 10.0801C2.99899 9.88831 3.00001 9.66183 3.00001 9.44044V5.36037C3.00001 5.13901 2.99902 4.91253 3.01466 4.72072C3.0313 4.51714 3.07106 4.26516 3.20119 4.00978L3.27345 3.88283C3.45118 3.59311 3.70527 3.35636 4.00978 3.20119L4.20021 3.12013C4.38817 3.05319 4.56801 3.02714 4.72072 3.01466C4.91253 2.99902 5.13901 3.00001 5.36037 3.00001H9.44044C9.66183 3.00001 9.88831 2.99899 10.0801 3.01466C10.2327 3.02715 10.4119 3.05329 10.5996 3.12013L10.7901 3.20119L10.917 3.27345C11.1655 3.42586 11.375 3.63432 11.5274 3.88283L11.5986 4.00978L11.6797 4.20021C11.7467 4.38819 11.7727 4.568 11.7852 4.72072C11.8008 4.91253 11.7998 5.139 11.7998 5.36037V9.44044ZM22 9.44044C22 9.66183 22.001 9.88831 21.9854 10.0801C21.9687 10.2836 21.9289 10.5348 21.7988 10.7901C21.6215 11.1381 21.3383 11.4213 20.9902 11.5986C20.7349 11.7288 20.4829 11.7685 20.2793 11.7852C20.0875 11.8008 19.861 11.7998 19.6397 11.7998H15.5596C15.3382 11.7998 15.1117 11.8008 14.9199 11.7852C14.7164 11.7685 14.4652 11.7287 14.21 11.5986C13.8619 11.4213 13.5787 11.1381 13.4014 10.7901C13.2713 10.5348 13.2315 10.2836 13.2149 10.0801C13.1992 9.88831 13.2002 9.66183 13.2002 9.44044V5.36037C13.2002 5.139 13.1992 4.91253 13.2149 4.72072C13.2315 4.51714 13.2713 4.26516 13.4014 4.00978C13.5788 3.66176 13.8619 3.37852 14.21 3.20119L14.4004 3.12013C14.5882 3.05329 14.7674 3.02715 14.9199 3.01466C15.1117 2.99899 15.3382 3.00001 15.5596 3.00001H19.6397C19.861 3.00001 20.0875 2.99902 20.2793 3.01466C20.432 3.02714 20.6119 3.05319 20.7998 3.12013L20.9902 3.20119L21.1172 3.27345C21.3655 3.42578 21.5742 3.63452 21.7266 3.88283L21.7988 4.00978L21.8799 4.20021C21.9468 4.38817 21.9729 4.56801 21.9854 4.72072C22.001 4.91253 22 5.13901 22 5.36037V9.44044Z" fill="#000"/>
<path d="M16.5 21V18.5H14C13.4477 18.5 13 18.0523 13 17.5C13 16.9477 13.4477 16.5 14 16.5H16.5V14C16.5 13.4477 16.9477 13 17.5 13C18.0523 13 18.5 13.4477 18.5 14V16.5H21L21.1026 16.5049C21.6067 16.5562 22 16.9823 22 17.5C22 18.0177 21.6067 18.4438 21.1026 18.4951L21 18.5H18.5V21C18.5 21.5523 18.0523 22 17.5 22C16.9477 22 16.5 21.5523 16.5 21Z" fill="#000"/>
</svg>
