<svg width="24" height="24" viewBox="0 0 24 24" fill="none" xmlns="http://www.w3.org/2000/svg">
<path d="M15 7C15 6.44772 14.5523 6 14 6H10C9.44771 6 9 6.44772 9 7V17C9 17.5523 9.44772 18 10 18H14C14.5523 18 15 17.5523 15 17V7ZM17 17C17 18.6569 15.6569 20 14 20H10C8.34315 20 7 18.6569 7 17V7C7 5.34315 8.34315 4 10 4H14C15.6569 4 17 5.34315 17 7V17Z" fill="#000"/>
<path d="M18 14V10C18 9.44772 18.4477 9 19 9C19.5523 9 20 9.44772 20 10V14C20 14.5523 19.5523 15 19 15C18.4477 15 18 14.5523 18 14Z" fill="#000"/>
<path d="M21 15V9C21 8.44772 21.4477 8 22 8C22.5523 8 23 8.44772 23 9V15C23 15.5523 22.5523 16 22 16C21.4477 16 21 15.5523 21 15Z" fill="#000"/>
<path d="M6 10L6 14C6 14.5523 5.55228 15 5 15C4.44772 15 4 14.5523 4 14L4 10C4 9.44772 4.44772 9 5 9C5.55229 9 6 9.44772 6 10Z" fill="#000"/>
<path d="M3 9L3 15C3 15.5523 2.55228 16 2 16C1.44772 16 1 15.5523 1 15L1 9C1 8.44772 1.44772 8 2 8C2.55229 8 3 8.44772 3 9Z" fill="#000"/>
</svg>
