<svg width="24" height="24" viewBox="0 0 24 24" fill="none" xmlns="http://www.w3.org/2000/svg">
    <path
        d="M4 5.36C4 4.88396 4 4.64593 4.09264 4.46411C4.17414 4.30417 4.30417 4.17414 4.46411 4.09264C4.64593 4 4.88396 4 5.36 4H9.44C9.91604 4 10.1541 4 10.3359 4.09264C10.4958 4.17414 10.6259 4.30417 10.7074 4.46411C10.8 4.64593 10.8 4.88396 10.8 5.36V9.44C10.8 9.91604 10.8 10.1541 10.7074 10.3359C10.6259 10.4958 10.4958 10.6259 10.3359 10.7074C10.1541 10.8 9.91604 10.8 9.44 10.8H5.36C4.88396 10.8 4.64593 10.8 4.46411 10.7074C4.30417 10.6259 4.17414 10.4958 4.09264 10.3359C4 10.1541 4 9.91604 4 9.44V5.36Z"
        stroke="#999" stroke-width="1.5" />
    <path
        d="M4 15.56C4 15.084 4 14.8459 4.09264 14.6641C4.17414 14.5042 4.30417 14.3741 4.46411 14.2926C4.64593 14.2 4.88396 14.2 5.36 14.2H9.44C9.91604 14.2 10.1541 14.2 10.3359 14.2926C10.4958 14.3741 10.6259 14.5042 10.7074 14.6641C10.8 14.8459 10.8 15.084 10.8 15.56V19.64C10.8 20.116 10.8 20.3541 10.7074 20.5359C10.6259 20.6958 10.4958 20.8259 10.3359 20.9074C10.1541 21 9.91604 21 9.44 21H5.36C4.88396 21 4.64593 21 4.46411 20.9074C4.30417 20.8259 4.17414 20.6958 4.09264 20.5359C4 20.3541 4 20.116 4 19.64V15.56Z"
        stroke="#999" stroke-width="1.5" />
    <path
        d="M14.2 5.36C14.2 4.88396 14.2 4.64593 14.2926 4.46411C14.3741 4.30417 14.5042 4.17414 14.6641 4.09264C14.8459 4 15.084 4 15.56 4H19.64C20.116 4 20.3541 4 20.5359 4.09264C20.6958 4.17414 20.8259 4.30417 20.9074 4.46411C21 4.64593 21 4.88396 21 5.36V9.44C21 9.91604 21 10.1541 20.9074 10.3359C20.8259 10.4958 20.6958 10.6259 20.5359 10.7074C20.3541 10.8 20.116 10.8 19.64 10.8H15.56C15.084 10.8 14.8459 10.8 14.6641 10.7074C14.5042 10.6259 14.3741 10.4958 14.2926 10.3359C14.2 10.1541 14.2 9.91604 14.2 9.44V5.36Z"
        stroke="#999" stroke-width="1.5" /> 
    <path d="M17.5 14V21M21 17.5L14 17.5" stroke="#999" stroke-width="1.5" stroke-linecap="round" stroke-linejoin="round"/>
</svg>