<svg width="24" height="24" viewBox="0 0 24 24" fill="none" xmlns="http://www.w3.org/2000/svg">
<path d="M19 12C19 10.3431 17.6569 9 16 9H8C6.34315 9 5 10.3431 5 12V18C5 19.6569 6.34315 21 8 21H16C17.6569 21 19 19.6569 19 18V12ZM11 16V14C11 13.4477 11.4477 13 12 13C12.5523 13 13 13.4477 13 14V16C13 16.5523 12.5523 17 12 17C11.4477 17 11 16.5523 11 16ZM15 6C15 4.34315 13.6569 3 12 3C10.3431 3 9 4.34315 9 6V7H15V6ZM17 7.09961C19.2823 7.56285 21 9.58101 21 12V18C21 20.7614 18.7614 23 16 23H8C5.23858 23 3 20.7614 3 18V12C3 9.58101 4.71772 7.56285 7 7.09961V6C7 3.23858 9.23858 1 12 1C14.7614 1 17 3.23858 17 6V7.09961Z" fill="#000"/>
</svg>
