<svg width="24" height="24" viewBox="0 0 24 24" fill="none" xmlns="http://www.w3.org/2000/svg">
<path d="M21 13V8C21 6.34315 19.6569 5 18 5H6C4.34315 5 3 6.34315 3 8V16C3 17.6569 4.34315 19 6 19H13C13.5523 19 14 19.4477 14 20C14 20.5523 13.5523 21 13 21H6C3.23858 21 1 18.7614 1 16V8C1 5.23858 3.23858 3 6 3H18C20.7614 3 23 5.23858 23 8V13C23 13.5523 22.5523 14 22 14C21.4477 14 21 13.5523 21 13Z" fill="#000"/>
<path d="M7 8C7 7.44772 6.55228 7 6 7C5.44772 7 5 7.44772 5 8C5 8.55228 5.44772 9 6 9C6.55228 9 7 8.55228 7 8Z" fill="#000"/>
<path d="M13 12C13 12.5523 12.5523 13 12 13C11.4477 13 11 12.5523 11 12C11 11.4477 11.4477 11 12 11C12.5523 11 13 11.4477 13 12ZM15 12C15 10.3431 13.6569 9 12 9C10.3431 9 9 10.3431 9 12C9 13.6569 10.3431 15 12 15C13.6569 15 15 13.6569 15 12Z" fill="#000"/>
<path d="M21.2471 15.3418C21.6107 14.9263 22.2426 14.8837 22.6582 15.2471C23.0737 15.6107 23.1163 16.2426 22.7529 16.6582L19.8828 19.9385C19.1781 20.7439 17.9637 20.8521 17.1279 20.1836L15.375 18.7812L15.2988 18.7129C14.937 18.3579 14.8953 17.7793 15.2188 17.375C15.5422 16.9706 16.1162 16.884 16.542 17.1592L16.625 17.2188L18.3779 18.6211L21.2471 15.3418Z" fill="#000"/>
</svg>
