<svg width="24" height="24" viewBox="0 0 24 24" fill="none" xmlns="http://www.w3.org/2000/svg">
<path d="M21 11.6162C20.9999 11.3399 20.8852 11.0757 20.6836 10.8867L17.8926 8.27051C17.7073 8.09688 17.4629 8 17.209 8H15V18H15.1738C15.5859 16.8353 16.6941 16 18 16C19.1936 16 20.221 16.6987 20.7041 17.708C20.8862 17.5269 21 17.2771 21 17V11.6162ZM7 18C6.46909 18 6.03417 18.4143 6.00195 18.9365C6.00067 18.9574 6 18.9786 6 19C6 19.5523 6.44772 20 7 20C7.55228 20 8 19.5523 8 19C8 18.4477 7.55228 18 7 18ZM18 18C17.4477 18 17 18.4477 17 19C17 19.5523 17.4477 20 18 20C18.5523 20 19 19.5523 19 19C19 18.4477 18.5523 18 18 18ZM23 17C23 18.3541 22.1024 19.497 20.8701 19.8701C20.497 21.1024 19.3541 22 18 22C16.6941 22 15.5859 21.1647 15.1738 20H9.82617C9.41406 21.1647 8.30585 22 7 22C5.55158 22 4.34271 20.9736 4.06152 19.6084C2.26352 18.8511 1 17.0747 1 15V7C1 4.23858 3.23858 2 6 2H10C12.4189 2 14.4361 3.71781 14.8994 6H17.209C17.9711 6 18.7047 6.29026 19.2607 6.81152L22.0518 9.42773C22.6566 9.99482 22.9999 10.7871 23 11.6162V17ZM3 15C3 16.0619 3.55307 16.9951 4.38672 17.5283C4.90135 16.6162 5.87805 16 7 16C8.30585 16 9.41406 16.8353 9.82617 18H13V7C13 5.34315 11.6569 4 10 4H6C4.34315 4 3 5.34315 3 7V15Z" fill="#000"/>
<path d="M10 7C10.5523 7 11 7.44772 11 8C11 8.55228 10.5523 9 10 9H8C7.44772 9 7 8.55228 7 8C7 7.44772 7.44772 7 8 7H10Z" fill="#000"/>
<path d="M10 11C10.5523 11 11 11.4477 11 12C11 12.5523 10.5523 13 10 13H6C5.44772 13 5 12.5523 5 12C5 11.4477 5.44772 11 6 11H10Z" fill="#000"/>
</svg>
