<svg width="24" height="24" viewBox="0 0 24 24" fill="none" xmlns="http://www.w3.org/2000/svg">
<path d="M6 7L15.5859 7L14.293 5.70703C13.9024 5.31651 13.9024 4.68349 14.293 4.29297C14.6835 3.90245 15.3165 3.90245 15.707 4.29297L18.707 7.29297L18.7754 7.36914C19.0957 7.76192 19.0731 8.34092 18.707 8.70703L15.707 11.707L15.6309 11.7754C15.2381 12.0957 14.6591 12.0731 14.293 11.707C13.9269 11.3409 13.9043 10.7619 14.2246 10.3691L14.293 10.293L15.5859 9L6 9C5.44772 9 5 8.55229 5 8C5 7.44772 5.44772 7 6 7Z" fill="#000"/>
<path d="M18 17L8.41406 17L9.70703 18.293C10.0976 18.6835 10.0976 19.3165 9.70703 19.707C9.31651 20.0976 8.68349 20.0976 8.29297 19.707L5.29297 16.707L5.22461 16.6309C4.90426 16.2381 4.92685 15.6591 5.29297 15.293L8.29297 12.293L8.36914 12.2246C8.76192 11.9043 9.34092 11.9269 9.70703 12.293C10.0731 12.6591 10.0957 13.2381 9.77539 13.6309L9.70703 13.707L8.41406 15L18 15C18.5523 15 19 15.4477 19 16C19 16.5523 18.5523 17 18 17Z" fill="#000"/>
</svg>
