<svg width="24" height="24" viewBox="0 0 24 24" fill="none" xmlns="http://www.w3.org/2000/svg">
<path d="M21 10C21 8.34315 19.6569 7 18 7H6C4.34315 7 3 8.34315 3 10V17C3 18.6569 4.34315 20 6 20H18C19.6569 20 21 18.6569 21 17V10ZM14 13.5C14 12.3954 13.1046 11.5 12 11.5C10.8954 11.5 10 12.3954 10 13.5C10 14.6046 10.8954 15.5 12 15.5C13.1046 15.5 14 14.6046 14 13.5ZM10.0703 4C9.73598 4.00002 9.42374 4.16713 9.23828 4.44531L8.86816 5H15.1318L14.7617 4.44531C14.5763 4.16713 14.264 4.00002 13.9297 4H10.0703ZM16 13.5C16 15.7091 14.2091 17.5 12 17.5C9.79086 17.5 8 15.7091 8 13.5C8 11.2909 9.79086 9.5 12 9.5C14.2091 9.5 16 11.2909 16 13.5ZM23 17C23 19.7614 20.7614 22 18 22H6C3.23858 22 1 19.7614 1 17V10C1 7.23858 3.23858 5 6 5H6.46484L7.57422 3.33594C8.13061 2.50136 9.06727 2.00002 10.0703 2H13.9297C14.9327 2.00002 15.8694 2.50136 16.4258 3.33594L17.5352 5H18C20.7614 5 23 7.23858 23 10V17Z" fill="#000"/>
</svg>
