<svg width="32" height="32" viewBox="0 0 32 32" fill="#000" xmlns="http://www.w3.org/2000/svg">
    <path fill-rule="evenodd" clip-rule="evenodd"
        d="M13.948 7.83914C12.9726 7.84261 11.905 7.85731 11.336 7.91917C10.5532 8.00428 9.87349 8.18497 9.25196 8.59932C8.63043 9.01368 8.20221 9.57164 7.82259 10.2614C7.45904 10.922 7.10499 11.7718 6.67055 12.8145L5.93692 14.5752L4.4512 13.4609C4.05048 13.1604 3.48199 13.2416 3.18144 13.6424C2.88091 14.043 2.96211 14.6115 3.36284 14.9121L5.09505 16.2113L4.70086 16.8025C3.96734 17.9022 3.49348 18.6127 3.24653 19.4284C2.99957 20.244 2.99975 21.0979 3.00004 22.4199L3.00005 28.0934C3.00005 28.5943 3.40612 29.0004 3.90702 29.0004H6.62789C7.12879 29.0004 7.53486 28.5943 7.53486 28.0934V26.8842C7.53486 26.2885 7.53678 25.9328 7.57104 25.678C7.58887 25.4793 7.75805 25.4157 7.8404 25.4087C8.09524 25.3745 9.3578 25.3725 9.9535 25.3725H22.0464C22.6422 25.3725 23.9046 25.3745 24.1594 25.4087C24.2421 25.4211 24.4118 25.4925 24.4288 25.678C24.4631 25.9328 24.465 26.2885 24.465 26.8842V28.0934C24.465 28.5943 24.8711 29.0004 25.372 29.0004H28.0929C28.5939 29.0004 28.9999 28.5943 28.9999 28.0934L29 22.4199C29.0002 21.0979 29.0003 20.244 28.7534 19.4284C28.5065 18.6127 28.0327 17.9023 27.2991 16.8025L26.9049 16.2113L28.6371 14.9121C29.0378 14.6115 29.1191 14.043 28.8185 13.6424C28.518 13.2416 27.9495 13.1604 27.5487 13.4609L26.0631 14.5752L24.5568 15.6982H8.88787L7.56792 15.3763L8.32527 13.5586C8.78376 12.4582 9.10097 11.7001 9.41142 11.136C9.71119 10.5913 9.9654 10.3036 10.2578 10.1086C10.5502 9.91367 10.9136 9.7897 11.5317 9.72249C12.0125 9.67021 12.9873 9.6567 13.948 9.65322C14.4587 9.65137 14.8686 9.23055 14.8546 8.72005C14.8411 8.22906 14.4392 7.83739 13.948 7.83914ZM23.2557 19.6274C23.9236 19.6274 24.465 20.1688 24.465 20.8367V20.8488C24.465 21.5167 23.9236 22.0581 23.2557 22.0581C22.5878 22.0581 22.0464 21.5167 22.0464 20.8488V20.8367C22.0464 20.1688 22.5878 19.6274 23.2557 19.6274ZM9.95345 20.8367C9.95345 20.1688 9.41203 19.6274 8.74416 19.6274C8.07629 19.6274 7.53486 20.1688 7.53486 20.8367V20.8488C7.53486 21.5167 8.07629 22.0581 8.74416 22.0581C9.41203 22.0581 9.95345 21.5167 9.95345 20.8488V20.8367Z"
        fill="#000" />
    <path fill-rule="evenodd" clip-rule="evenodd"
        d="M22.0464 2.99959C18.8739 2.99959 16.3023 5.57134 16.3023 8.74374C16.3023 11.9162 18.8739 14.4879 22.0464 14.4879C25.2189 14.4879 27.7906 11.9162 27.7906 8.74374C27.7906 5.57134 25.2189 2.99959 22.0464 2.99959ZM22.9534 6.02283C22.9534 5.52193 22.5473 5.11586 22.0464 5.11586C21.5455 5.11586 21.1394 5.52193 21.1394 6.02283V8.74374C21.1394 9.13413 21.3893 9.48073 21.7596 9.60417L23.5735 10.2088C24.0488 10.3672 24.5624 10.1104 24.7208 9.6352C24.8792 9.16 24.6223 8.64636 24.1472 8.48797L22.9534 8.09004V6.02283Z"
        fill="#000" />
</svg>