<svg width="24" height="24" viewBox="0 0 24 24" fill="none" xmlns="http://www.w3.org/2000/svg">
<path d="M7 5V2C7 1.44772 7.44772 1 8 1C8.55228 1 9 1.44772 9 2V5C9 5.55228 8.55228 6 8 6C7.44772 6 7 5.55228 7 5Z" fill="#000"/>
<path d="M15 5V2C15 1.44772 15.4477 1 16 1C16.5523 1 17 1.44772 17 2V5C17 5.55228 16.5523 6 16 6C15.4477 6 15 5.55228 15 5Z" fill="#000"/>
<path d="M20 7.5C20 5.84315 18.6569 4.5 17 4.5H7C5.34315 4.5 4 5.84315 4 7.5V18C4 19.6569 5.34315 21 7 21H17C18.6569 21 20 19.6569 20 18V7.5ZM22 18C22 20.7614 19.7614 23 17 23H7C4.23858 23 2 20.7614 2 18V7.5C2 4.73858 4.23858 2.5 7 2.5H17C19.7614 2.5 22 4.73858 22 7.5V18Z" fill="#000"/>
<path d="M21 8C21.5523 8 22 8.44772 22 9C22 9.55229 21.5523 10 21 10H3C2.44772 10 2 9.55229 2 9C2 8.44772 2.44772 8 3 8H21Z" fill="#000"/>
<path d="M10.5858 12.1716L14.8284 16.4142C15.219 16.8048 15.219 17.4379 14.8284 17.8284C14.4379 18.219 13.8048 18.219 13.4142 17.8284L9.17159 13.5858C8.78107 13.1953 8.78107 12.5621 9.17159 12.1716C9.56211 11.7811 10.1953 11.7811 10.5858 12.1716Z" fill="#000"/>
<path d="M14.8284 13.5858L10.5858 17.8284C10.1952 18.219 9.56208 18.219 9.17156 17.8284C8.78103 17.4379 8.78103 16.8048 9.17156 16.4142L13.4142 12.1716C13.8047 11.7811 14.4379 11.7811 14.8284 12.1716C15.2189 12.5621 15.2189 13.1953 14.8284 13.5858Z" fill="#000"/>
</svg>
