<svg width="25" height="24" viewBox="0 0 25 24" fill="none" xmlns="http://www.w3.org/2000/svg">
<g clip-path="url(#clip0_1584_2669)">
<path d="M3.35373 7.09469C2.30993 7.376 1.68809 8.1755 1.49561 9.50061L1.40678 10.1002H0.977415C0.503634 10.1002 0.540648 10.041 0.444411 10.9294L0.399994 11.2847H0.80715C1.02183 11.2847 1.22171 11.3143 1.24392 11.3439C1.25872 11.3735 1.16249 12.5358 1.02183 13.9127C0.888581 15.297 0.770136 16.5407 0.770136 16.6666V16.9108H1.54743C2.22109 16.9108 2.32473 16.896 2.32473 16.785C2.32473 16.5555 2.84293 11.4698 2.87994 11.3735C2.90215 11.3143 3.10943 11.2847 3.57581 11.2847H4.24207L4.28648 10.8553C4.30869 10.6258 4.34571 10.3593 4.36792 10.2631C4.39753 10.1002 4.39012 10.1002 3.69426 10.1002H2.98358L3.028 9.7449C3.10943 9.2119 3.39074 8.64928 3.67205 8.47161C3.86452 8.34577 4.01258 8.32356 4.39753 8.33836L4.87871 8.36057L4.96755 7.76835C5.01936 7.45002 5.04157 7.16872 5.02677 7.15391C5.01196 7.1391 4.87131 7.09469 4.71585 7.05767C4.3309 6.96884 3.76088 6.98365 3.35373 7.09469Z" fill="#000"/>
<path d="M19.4253 7.19092C19.4179 7.45002 19.1366 9.89296 19.107 9.92257C19.0922 9.94478 18.6628 10.1002 18.1594 10.2779C17.2933 10.5814 17.2414 10.611 17.1822 10.8405C17.1526 10.9664 17.1304 11.0996 17.1452 11.1366C17.1748 11.2107 23.1415 9.08605 23.2155 8.97501C23.2451 8.92319 23.2748 8.78253 23.2748 8.66409C23.2748 8.49382 23.2526 8.46421 23.1489 8.50863C23.0749 8.53824 22.5049 8.73812 21.8904 8.9602L20.7578 9.35255V9.16748C20.7578 8.9528 20.891 7.6573 20.9503 7.30197L20.9873 7.06507H20.2026C19.5141 7.06507 19.4253 7.07988 19.4253 7.19092Z" fill="#000"/>
<path d="M20.0915 10.7961L17.0934 11.8621L17.049 12.2175C17.0268 12.4173 17.012 12.595 17.0268 12.6098C17.0416 12.6246 17.4561 12.4988 17.9521 12.3285C18.4407 12.1508 18.8627 12.025 18.8775 12.0472C18.9071 12.0768 18.5369 15.9263 18.4333 16.6814L18.3963 16.9331L19.2254 16.8886C19.8769 16.859 20.173 16.8072 20.6023 16.6517C21.809 16.215 22.7862 15.4525 23.4672 14.4161C23.8818 13.7943 24.2445 12.9133 24.3482 12.2619L24.4 11.9509H23.3636L23.3118 12.2619C23.1637 13.1576 22.6159 14.1052 21.8682 14.7862C21.4389 15.1712 20.7208 15.5857 20.2988 15.6894C20.1137 15.7338 20.0915 15.719 20.0915 15.5709C20.0841 15.186 20.4765 11.6104 20.5283 11.5068C20.5579 11.4476 21.1501 11.1959 21.8386 10.9516L23.0897 10.5074L23.1267 10.115C23.1489 9.90776 23.1489 9.7301 23.1267 9.7301C23.1045 9.7375 21.7424 10.2113 20.0915 10.7961Z" fill="#000"/>
<path d="M7.47711 10.2187C6.07057 10.5592 4.95274 11.7067 4.57519 13.202C4.39012 13.9423 4.45675 15.1934 4.70104 15.7338C5.09339 16.5777 5.75965 17.0071 6.65539 17.0071C7.51412 17.0071 8.10635 16.6592 8.63195 15.8448L8.91326 15.4081V16.9108H10.3568V15.5635C10.3568 14.5493 10.4086 13.7276 10.5715 12.3063C10.6899 11.2551 10.7714 10.3815 10.7492 10.3593C10.727 10.3371 10.4827 10.2705 10.2014 10.2113C9.5573 10.0706 8.06193 10.078 7.47711 10.2187ZM8.95767 11.3291C9.10573 11.3661 9.10573 11.3661 8.97988 12.4988C8.90586 13.1206 8.80221 13.7943 8.74299 14.0015C8.5135 14.764 8.09154 15.3859 7.63997 15.6228C7.17359 15.867 6.52214 15.6672 6.27785 15.1934C6.07057 14.801 6.04836 13.8461 6.23343 13.2316C6.50734 12.3433 7.1958 11.566 7.90647 11.3661C8.17297 11.2847 8.72819 11.2699 8.95767 11.3291Z" fill="#000"/>
<path d="M13.4512 10.2335C12.7035 10.5 12.2297 11.0182 12.0965 11.7141C11.9706 12.3951 12.1631 12.9133 12.7479 13.4463C12.9478 13.624 13.3179 13.8757 13.5622 14.0089C14.1619 14.3273 14.4654 14.6826 14.4654 15.0527C14.4654 15.682 13.8954 15.9559 12.9996 15.7708C12.7257 15.7116 12.3704 15.6154 12.2149 15.5487C12.0595 15.4821 11.9188 15.4303 11.904 15.4303C11.8966 15.4303 11.83 15.6228 11.7633 15.8596C11.6967 16.0891 11.6301 16.3408 11.6079 16.4075C11.5635 16.5629 11.978 16.7924 12.5184 16.9109C13.0292 17.0293 14.1397 17.0071 14.5912 16.8738C15.5536 16.5851 16.094 15.9041 16.094 14.9713C16.094 14.0978 15.7609 13.6462 14.5912 12.9651C14.2063 12.7356 13.8435 12.4691 13.7769 12.3655C13.4882 11.9213 13.7251 11.4179 14.2729 11.2995C14.606 11.2329 15.2427 11.2921 15.6202 11.4327C15.7313 11.4772 15.8349 11.4994 15.8497 11.4846C15.8645 11.4624 15.9385 11.2255 16.02 10.959L16.1606 10.4556L15.8127 10.3001C15.3167 10.078 13.999 10.041 13.4512 10.2335Z" fill="#000"/>
<path d="M2.98718 10.1069H4.38049L4.25305 11.3388H2.86754L2.31323 16.8998H0.721488L1.27466 11.3388H0.399994L0.525965 10.1069H1.40387L1.43678 9.8665C1.51363 9.01421 1.76282 8.171 2.35117 7.61653C2.80171 7.19079 3.43757 6.99997 4.06045 6.99997C4.52575 6.99997 4.86589 7.08038 5.0606 7.17393L4.87189 8.4458C4.68966 8.36863 4.46868 8.32648 4.21171 8.32648C3.45086 8.32648 3.09873 9.02783 3.01945 9.89098L2.98718 10.1069ZM14.5921 11.2614C15.1388 11.2614 15.6016 11.4268 15.8716 11.5586L16.158 10.46C15.8495 10.2824 15.274 10.0641 14.572 10.0641C12.9911 10.0641 11.9446 10.9717 12.0573 12.2595C12.1242 13.024 12.7254 13.6019 13.5318 14.0021C14.2124 14.3413 14.4604 14.6125 14.4966 15.0268C14.536 15.4768 14.1861 15.8486 13.5342 15.8505C12.9313 15.8525 12.2576 15.5983 11.8896 15.4089L11.578 16.5499C11.9543 16.8145 12.7037 17.0438 13.4917 17.0438C15.1002 17.0438 16.2581 16.2301 16.1292 14.756C16.0549 13.9076 15.3575 13.3551 14.5877 12.9616C13.9956 12.6661 13.6788 12.408 13.6462 12.0343C13.6065 11.5806 13.9914 11.2614 14.5921 11.2614ZM8.75688 10.0641C9.48369 10.0641 10.281 10.1997 10.8107 10.3628L10.4219 13.8528C10.3193 14.8481 10.3178 16.1078 10.4136 16.8998H8.93701C8.9088 16.5045 8.91252 15.9687 8.92047 15.3959H8.88918C8.3352 16.6305 7.48566 17.0511 6.63386 17.0511C5.44224 17.0511 4.57422 16.1153 4.45717 14.7768C4.25727 12.4908 5.63939 10.0641 8.75688 10.0641ZM9.10124 11.3723C8.94252 11.3302 8.72462 11.2985 8.44188 11.2985C6.96476 11.2985 5.96736 12.9645 6.09577 14.4827C6.15365 15.1798 6.4693 15.7546 7.16385 15.7546C7.91724 15.7546 8.74148 14.8269 8.91042 13.1276L9.10124 11.3723ZM23.3634 11.9866C23.2956 12.58 23.1244 13.0835 22.8942 13.5145C22.6636 13.9464 22.3883 14.3199 22.0613 14.6359C21.5267 15.1529 20.8754 15.5723 20.0623 15.7821L20.5195 11.432L23.101 10.5179L23.1845 9.71961L18.812 11.2681L17.0799 11.8816L16.9964 12.6799L18.9237 11.9973L18.4597 16.4123H18.463C18.4445 16.5879 18.4262 16.7633 18.4077 16.9389C19.2464 17.0229 20.0429 16.8889 20.6807 16.6553C21.3326 16.4168 21.9012 16.0804 22.384 15.6756C22.8746 15.2643 23.3013 14.7816 23.6502 14.2076C23.9997 13.6325 24.263 12.9568 24.3835 12.144C24.389 12.0915 24.3945 12.0391 24.4 11.9866C24.0543 11.9866 23.7089 11.9866 23.3634 11.9866ZM23.3157 8.46558L20.7353 9.37931L20.9805 7.04747H19.4438L19.1394 9.94448L17.2111 10.6274L17.1276 11.2139L23.2322 9.05215L23.3157 8.46558Z" fill="#000"/>
</g>
<defs>
<clipPath id="clip0_1584_2669">
<rect width="24" height="24" fill="white" transform="translate(0.399994)"/>
</clipPath>
</defs>
</svg>
