<svg width="24" height="24" viewBox="0 0 24 24" fill="none" xmlns="http://www.w3.org/2000/svg">
<path d="M15.5357 7.0503C15.9262 6.65981 16.5593 6.65979 16.9498 7.0503C17.3403 7.44082 17.3403 8.07385 16.9498 8.46436L13.4146 11.9995L16.9498 15.5357L17.0181 15.6118C17.3384 16.0046 17.3159 16.5836 16.9498 16.9497C16.5837 17.3158 16.0047 17.3384 15.6119 17.0181L15.5357 16.9497L11.9996 13.4146L8.46443 16.9497C8.07391 17.3402 7.44089 17.3402 7.05037 16.9497C6.65985 16.5592 6.65985 15.9262 7.05037 15.5357L10.5845 11.9995L7.05037 8.46436C6.65985 8.07384 6.65985 7.44083 7.05037 7.0503C7.44089 6.65978 8.07391 6.65978 8.46443 7.0503L11.9996 10.5845L15.5357 7.0503Z" fill="#000"/>
</svg>
