<svg width="24" height="24" viewBox="0 0 24 24" fill="none" xmlns="http://www.w3.org/2000/svg">
<path d="M15 12C15 10.3431 13.6569 9 12 9H6C4.34315 9 3 10.3431 3 12V18C3 19.6569 4.34315 21 6 21H12C13.6569 21 15 19.6569 15 18V12ZM17 15H18C19.6569 15 21 13.6569 21 12V6C21 4.39489 19.7394 3.08421 18.1543 3.00391L18 3H12C10.3431 3 9 4.34315 9 6V7H12C14.7614 7 17 9.23858 17 12V15ZM23 12C23 14.7614 20.7614 17 18 17H17V18C17 20.7614 14.7614 23 12 23H6C3.23858 23 1 20.7614 1 18V12C1 9.23858 3.23858 7 6 7H7V6C7 3.23858 9.23858 1 12 1H18C20.7614 1 23 3.23858 23 6V12Z" fill="#000"/>
</svg>
