<svg width="24" height="24" viewBox="0 0 24 24" fill="none" xmlns="http://www.w3.org/2000/svg">
<path d="M6 17V14C6 13.4477 6.44772 13 7 13C7.55228 13 8 13.4477 8 14V17C8 17.5523 7.55228 18 7 18C6.44772 18 6 17.5523 6 17Z" fill="#000"/>
<path d="M10 17V12C10 11.4477 10.4477 11 11 11C11.5523 11 12 11.4477 12 12V17C12 17.5523 11.5523 18 11 18C10.4477 18 10 17.5523 10 17Z" fill="#000"/>
<path d="M14 17V14C14 13.4477 14.4477 13 15 13C15.5523 13 16 13.4477 16 14V17C16 17.5523 15.5523 18 15 18C14.4477 18 14 17.5523 14 17Z" fill="#000"/>
<path d="M18 17V12C18 11.4477 18.4477 11 19 11C19.5523 11 20 11.4477 20 12V17C20 17.5523 19.5523 18 19 18C18.4477 18 18 17.5523 18 17Z" fill="#000"/>
<path d="M1 18V2C1 1.44772 1.44772 1 2 1C2.55228 1 3 1.44772 3 2V18C3 19.6569 4.34315 21 6 21H22C22.5523 21 23 21.4477 23 22C23 22.5523 22.5523 23 22 23H6C3.23858 23 1 20.7614 1 18Z" fill="#000"/>
<path d="M18.293 5.29297C18.6835 4.90244 19.3165 4.90244 19.707 5.29297C20.0976 5.68349 20.0976 6.31651 19.707 6.70703L17.1211 9.29297C15.9496 10.4643 14.0504 10.4643 12.8789 9.29297L11.707 8.12109C11.3165 7.73077 10.6835 7.73077 10.293 8.12109L7.70703 10.707C7.31651 11.0976 6.68349 11.0976 6.29297 10.707C5.90244 10.3165 5.90244 9.68349 6.29297 9.29297L8.87891 6.70703C10.0504 5.53566 11.9496 5.53566 13.1211 6.70703L14.293 7.87891C14.6835 8.26923 15.3165 8.26923 15.707 7.87891L18.293 5.29297Z" fill="#000"/>
</svg>
