<svg width="24" height="24" viewBox="0 0 24 24" fill="none" xmlns="http://www.w3.org/2000/svg">
<path d="M2.95373 7.09473C1.90993 7.37604 1.28809 8.17554 1.09562 9.50065L1.00679 10.1003H0.577421C0.10364 10.1003 0.140654 10.0411 0.044417 10.9294L0 11.2847H0.407156C0.621838 11.2847 0.821715 11.3143 0.843924 11.344C0.858729 11.3736 0.762492 12.5358 0.621838 13.9127C0.488587 15.2971 0.370142 16.5407 0.370142 16.6666V16.9109H1.14744C1.8211 16.9109 1.92474 16.8961 1.92474 16.785C1.92474 16.5556 2.44294 11.4698 2.47995 11.3736C2.50216 11.3143 2.70944 11.2847 3.17582 11.2847H3.84207L3.88649 10.8554C3.9087 10.6259 3.94571 10.3594 3.96792 10.2631C3.99753 10.1003 3.99013 10.1003 3.29426 10.1003H2.58359L2.62801 9.74495C2.70944 9.21194 2.99075 8.64933 3.27205 8.47166C3.46453 8.34581 3.61259 8.3236 3.99753 8.33841L4.47872 8.36062L4.56755 7.76839C4.61937 7.45007 4.64158 7.16876 4.62677 7.15395C4.61197 7.13915 4.47131 7.09473 4.31585 7.05772C3.93091 6.96888 3.36089 6.98369 2.95373 7.09473Z" fill="#000"/>
<path d="M19.0253 7.19097C19.0179 7.45006 18.7366 9.893 18.707 9.92261C18.6922 9.94482 18.2628 10.1003 17.7594 10.2779C16.8933 10.5815 16.8415 10.6111 16.7822 10.8406C16.7526 10.9664 16.7304 11.0997 16.7452 11.1367C16.7748 11.2107 22.7415 9.08609 22.8155 8.97505C22.8452 8.92323 22.8748 8.78258 22.8748 8.66413C22.8748 8.49386 22.8526 8.46425 22.7489 8.50867C22.6749 8.53828 22.1049 8.73816 21.4904 8.96024L20.3578 9.35259V9.16752C20.3578 8.95284 20.4911 7.65734 20.5503 7.30201L20.5873 7.06512H19.8026C19.1141 7.06512 19.0253 7.07992 19.0253 7.19097Z" fill="#000"/>
<path d="M19.6915 10.7961L16.6934 11.8622L16.649 12.2175C16.6268 12.4174 16.612 12.595 16.6268 12.6098C16.6416 12.6246 17.0561 12.4988 17.5521 12.3285C18.0407 12.1509 18.4627 12.025 18.4775 12.0472C18.5071 12.0768 18.137 15.9263 18.0333 16.6814L17.9963 16.9331L18.8254 16.8887C19.4769 16.8591 19.773 16.8073 20.2023 16.6518C21.409 16.215 22.3862 15.4525 23.0672 14.4161C23.4818 13.7943 23.8445 12.9134 23.9482 12.2619L24 11.951H22.9636L22.9118 12.2619C22.7637 13.1577 22.2159 14.1052 21.4682 14.7863C21.0389 15.1712 20.3208 15.5858 19.8988 15.6894C19.7138 15.7338 19.6915 15.719 19.6915 15.571C19.6841 15.186 20.0765 11.6105 20.1283 11.5068C20.1579 11.4476 20.7502 11.1959 21.4386 10.9516L22.6897 10.5074L22.7267 10.1151C22.7489 9.90781 22.7489 9.73014 22.7267 9.73014C22.7045 9.73754 21.3424 10.2113 19.6915 10.7961Z" fill="#000"/>
<path d="M7.07711 10.2187C5.67057 10.5593 4.55275 11.7067 4.1752 13.2021C3.99013 13.9424 4.05676 15.1934 4.30105 15.7338C4.6934 16.5778 5.35965 17.0071 6.2554 17.0071C7.11413 17.0071 7.70635 16.6592 8.23196 15.8449L8.51326 15.4081V16.9109H9.95682V15.5636C9.95682 14.5494 10.0086 13.7277 10.1715 12.3063C10.2899 11.2551 10.3714 10.3816 10.3492 10.3594C10.327 10.3372 10.0827 10.2705 9.80136 10.2113C9.15731 10.0707 7.66194 10.0781 7.07711 10.2187ZM8.55768 11.3292C8.70574 11.3662 8.70574 11.3662 8.57989 12.4988C8.50586 13.1206 8.40222 13.7943 8.343 14.0016C8.11351 14.7641 7.69155 15.3859 7.23998 15.6228C6.7736 15.8671 6.12215 15.6672 5.87785 15.1934C5.67057 14.8011 5.64837 13.8461 5.83344 13.2317C6.10734 12.3433 6.79581 11.566 7.50648 11.3662C7.77298 11.2847 8.32819 11.2699 8.55768 11.3292Z" fill="#000"/>
<path d="M13.0512 10.2335C12.3035 10.5 11.8297 11.0182 11.6965 11.7141C11.5706 12.3952 11.7631 12.9134 12.3479 13.4464C12.5478 13.624 12.918 13.8757 13.1622 14.009C13.7619 14.3273 14.0654 14.6826 14.0654 15.0528C14.0654 15.682 13.4954 15.9559 12.5996 15.7709C12.3257 15.7116 11.9704 15.6154 11.8149 15.5488C11.6595 15.4821 11.5188 15.4303 11.504 15.4303C11.4966 15.4303 11.43 15.6228 11.3634 15.8597C11.2967 16.0892 11.2301 16.3409 11.2079 16.4075C11.1635 16.563 11.578 16.7924 12.1184 16.9109C12.6292 17.0293 13.7397 17.0071 14.1912 16.8739C15.1536 16.5852 15.694 15.9041 15.694 14.9713C15.694 14.0978 15.3609 13.6462 14.1912 12.9652C13.8063 12.7357 13.4436 12.4692 13.3769 12.3655C13.0882 11.9214 13.3251 11.418 13.8729 11.2995C14.206 11.2329 14.8427 11.2921 15.2202 11.4328C15.3313 11.4772 15.4349 11.4994 15.4497 11.4846C15.4645 11.4624 15.5386 11.2255 15.62 10.959L15.7606 10.4556L15.4127 10.3002C14.9167 10.0781 13.599 10.0411 13.0512 10.2335Z" fill="#000"/>
<path d="M2.58719 10.107H3.98049L3.85306 11.3388H2.46754L1.91324 16.8998H0.321494L0.874664 11.3388H0L0.125971 10.107H1.00388L1.03679 9.86653C1.11364 9.01424 1.36282 8.17103 1.95117 7.61656C2.40172 7.19082 3.03757 7 3.66046 7C4.12575 7 4.46589 7.08041 4.66061 7.17396L4.47189 8.44583C4.28966 8.36866 4.06869 8.32651 3.81172 8.32651C3.05087 8.32651 2.69873 9.02786 2.61945 9.89101L2.58719 10.107ZM14.1921 11.2615C14.7388 11.2615 15.2016 11.4268 15.4716 11.5586L15.7581 10.4601C15.4495 10.2824 14.874 10.0642 14.172 10.0642C12.5911 10.0642 11.5446 10.9717 11.6573 12.2595C11.7242 13.0241 12.3254 13.6019 13.1318 14.0022C13.8124 14.3413 14.0604 14.6126 14.0966 15.0268C14.136 15.4769 13.7861 15.8486 13.1342 15.8506C12.5313 15.8525 11.8577 15.5983 11.4896 15.4089L11.178 16.55C11.5543 16.8146 12.3037 17.0438 13.0917 17.0438C14.7002 17.0438 15.8581 16.2301 15.7292 14.7561C15.6549 13.9077 14.9575 13.3551 14.1877 12.9617C13.5956 12.6661 13.2788 12.408 13.2463 12.0343C13.2065 11.5807 13.5914 11.2615 14.1921 11.2615ZM8.35689 10.0642C9.0837 10.0642 9.88103 10.1997 10.4107 10.3628L10.0219 13.8529C9.91929 14.8481 9.91783 16.1079 10.0136 16.8998H8.53701C8.5088 16.5046 8.51253 15.9688 8.52047 15.396H8.48918C7.9352 16.6305 7.08567 17.0511 6.23387 17.0511C5.04225 17.0511 4.17423 16.1153 4.05718 14.7768C3.85728 12.4908 5.23939 10.0642 8.35689 10.0642ZM8.70124 11.3723C8.54252 11.3302 8.32463 11.2986 8.04188 11.2986C6.56476 11.2986 5.56737 12.9646 5.69577 14.4827C5.75365 15.1798 6.06931 15.7546 6.76385 15.7546C7.51725 15.7546 8.34149 14.8269 8.51042 13.1277L8.70124 11.3723ZM22.9634 11.9866C22.8956 12.58 22.7244 13.0836 22.4942 13.5145C22.2636 13.9464 21.9884 14.3199 21.6613 14.6359C21.1267 15.1529 20.4754 15.5724 19.6623 15.7821L20.1195 11.432L22.7011 10.5179L22.7845 9.71965L16.6799 11.8816L16.5964 12.6799L18.5237 11.9973L18.0597 16.4123H18.063C18.0445 16.5879 18.0262 16.7633 18.0077 16.9389C18.8464 17.0229 19.6429 16.889 20.2807 16.6553C20.9326 16.4169 21.5012 16.0805 21.984 15.6756C22.4746 15.2643 22.9013 14.7817 23.2502 14.2076C23.5997 13.6325 23.863 12.9568 23.9835 12.1441C23.989 12.0915 23.9945 12.0392 24 11.9866C23.6543 11.9866 23.3089 11.9866 22.9634 11.9866ZM22.9157 8.46561L20.3353 9.37935L20.5805 7.0475H19.0438L18.7394 9.94451L16.8111 10.6274L16.7276 11.214L22.8322 9.05218L22.9157 8.46561Z" fill="#000"/>
</svg>
