<svg width="24" height="24" viewBox="0 0 24 24" fill="none" xmlns="http://www.w3.org/2000/svg">
<path d="M21 11.5V8C21 6.34315 19.6569 5 18 5H6C4.34315 5 3 6.34315 3 8V16C3 17.6569 4.34315 19 6 19H13C13.5523 19 14 19.4477 14 20C14 20.5523 13.5523 21 13 21H6C3.23858 21 1 18.7614 1 16V8C1 5.23858 3.23858 3 6 3H18C20.7614 3 23 5.23858 23 8V11.5C23 12.0523 22.5523 12.5 22 12.5C21.4477 12.5 21 12.0523 21 11.5Z" fill="#000"/>
<path d="M7 8C7 7.44772 6.55228 7 6 7C5.44772 7 5 7.44772 5 8C5 8.55228 5.44772 9 6 9C6.55228 9 7 8.55228 7 8Z" fill="#000"/>
<path d="M13 12C13 12.5523 12.5523 13 12 13C11.4477 13 11 12.5523 11 12C11 11.4477 11.4477 11 12 11C12.5523 11 13 11.4477 13 12ZM15 12C15 10.3431 13.6569 9 12 9C10.3431 9 9 10.3431 9 12C9 13.6569 10.3431 15 12 15C13.6569 15 15 13.6569 15 12Z" fill="#000"/>
<path d="M20 16C20 16.5523 19.5523 17 19 17C18.4477 17 18 16.5523 18 16C18 15.4477 18.4477 15 19 15C19.5523 15 20 15.4477 20 16ZM22 16C22 14.3431 20.6569 13 19 13C17.3431 13 16 14.3431 16 16C16 17.6569 17.3431 19 19 19C20.6569 19 22 17.6569 22 16Z" fill="#000"/>
<path d="M21.1055 20.4482C21.3528 20.9419 21.9545 21.1418 22.4482 20.8945C22.9419 20.6472 23.1418 20.0455 22.8945 19.5518C22.1585 18.0824 20.7276 17 19 17C17.3804 17 16.0219 17.9515 15.252 19.2812L15.1055 19.5518L15.0645 19.6455C14.8843 20.1193 15.0888 20.6626 15.5518 20.8945C16.0147 21.1264 16.5721 20.965 16.8438 20.5371L16.8945 20.4482L16.9844 20.2793C17.4566 19.4621 18.2161 19 19 19C19.8362 19 20.6438 19.5265 21.1055 20.4482Z" fill="#000"/>
</svg>
