<svg width="24" height="24" viewBox="0 0 24 24" fill="none" xmlns="http://www.w3.org/2000/svg">
<path d="M7.99997 20.2412C7.99967 19.6578 7.36861 19.2935 6.86326 19.585C5.54397 20.3466 3.85639 19.8945 3.0947 18.5752L1.85349 16.4248C1.0918 15.1055 1.54397 13.4179 2.86326 12.6562C3.36827 12.3642 3.36851 11.6346 2.86326 11.3428C1.54397 10.5811 1.0918 8.89448 1.85349 7.5752L3.0947 5.4248C3.8564 4.10551 5.54398 3.65336 6.86326 4.41504C7.36875 4.70656 7.99997 4.3414 7.99997 3.75781C8.00024 2.23467 9.23556 1 10.7588 1H13.2422C14.7655 1.00009 16 2.23547 16 3.75879C16.0003 4.34218 16.6323 4.70673 17.1377 4.41504C18.457 3.65335 20.1445 4.1055 20.9062 5.4248L22.1474 7.5752C22.9091 8.89446 22.4569 10.5811 21.1377 11.3428C20.6322 11.6346 20.6324 12.3643 21.1377 12.6562C22.457 13.4179 22.9091 15.1055 22.1474 16.4248L20.9062 18.5752C20.1445 19.8945 18.457 20.3467 17.1377 19.585C16.6323 19.2932 16.0003 19.6577 16 20.2412C16 21.7645 14.7655 22.9999 13.2422 23H10.7588C9.23535 23 7.99997 21.7646 7.99997 20.2412ZM15 12C15 10.3431 13.6568 9 12 9C10.3433 9.00018 8.99997 10.3433 8.99997 12C8.99997 13.6567 10.3433 14.9998 12 15C13.6568 15 15 13.6569 15 12ZM17 12C17 14.7614 14.7614 17 12 17C9.2387 16.9998 6.99997 14.7613 6.99997 12C6.99997 9.23869 9.2387 7.00018 12 7C14.7614 7 17 9.23858 17 12ZM9.99997 3.75781C9.99997 5.88098 7.70202 7.2086 5.86326 6.14746C5.50055 5.93805 5.03652 6.06211 4.82712 6.4248L3.58494 8.5752C3.37561 8.93788 3.50059 9.40194 3.86326 9.61133C5.70164 10.6731 5.70167 13.3269 3.86326 14.3887C3.50055 14.5981 3.37553 15.0621 3.58494 15.4248L4.82712 17.5752C5.03654 17.9379 5.50057 18.0619 5.86326 17.8525C7.70197 16.7914 9.99967 18.1183 9.99997 20.2412C9.99997 20.66 10.34 21 10.7588 21H13.2422C13.6609 20.9999 14 20.66 14 20.2412C14.0003 18.1182 16.2989 16.7912 18.1377 17.8525C18.5004 18.0619 18.9644 17.9379 19.1738 17.5752L20.415 15.4248C20.6244 15.0621 20.5004 14.5981 20.1377 14.3887C18.299 13.327 18.299 10.6731 20.1377 9.61133C20.5004 9.40192 20.6244 8.9379 20.415 8.5752L19.1738 6.4248C18.9644 6.06211 18.5004 5.93804 18.1377 6.14746C16.299 7.20876 14.0003 5.88179 14 3.75879C14 3.34004 13.6609 3.00009 13.2422 3H10.7588C10.3401 3 10.0002 3.33924 9.99997 3.75781Z" fill="#000"/>
</svg>
