<svg width="24" height="24" viewBox="0 0 24 24" fill="none" xmlns="http://www.w3.org/2000/svg">
<path d="M2 15.5459V11.4541C2 10.5162 1.99927 9.75233 2.04981 9.13379C2.10131 8.50357 2.21092 7.93625 2.48047 7.40723C2.90317 6.57769 3.57769 5.90317 4.40723 5.48047C4.93625 5.21092 5.50357 5.10131 6.13379 5.0498C6.75233 4.99927 7.51617 5 8.4541 5H10.5C11.0523 5 11.5 5.44772 11.5 6C11.5 6.55228 11.0523 7 10.5 7H8.4541C7.48321 7 6.8151 7.00063 6.29688 7.04297C5.79025 7.08436 5.51558 7.16071 5.31543 7.2627C4.86214 7.49366 4.49366 7.86214 4.2627 8.31543C4.16071 8.51558 4.08436 8.79025 4.04297 9.29688C4.00063 9.8151 4 10.4832 4 11.4541V15.5459C4 16.5168 4.00063 17.1849 4.04297 17.7031C4.08436 18.2098 4.16071 18.4844 4.2627 18.6846C4.49366 19.1379 4.86214 19.5063 5.31543 19.7373C5.51558 19.8393 5.79025 19.9156 6.29688 19.957C6.8151 19.9994 7.48321 20 8.4541 20H12.5459C13.5168 20 14.1849 19.9994 14.7031 19.957C15.2098 19.9156 15.4844 19.8393 15.6846 19.7373C16.1379 19.5063 16.5063 19.1379 16.7373 18.6846C16.8393 18.4844 16.9156 18.2098 16.957 17.7031C16.9994 17.1849 17 16.5168 17 15.5459V13.5C17 12.9477 17.4477 12.5 18 12.5C18.5523 12.5 19 12.9477 19 13.5V15.5459C19 16.4838 19.0007 17.2477 18.9502 17.8662C18.8987 18.4964 18.7891 19.0638 18.5195 19.5928C18.0968 20.4223 17.4223 21.0968 16.5928 21.5195C16.0638 21.7891 15.4964 21.8987 14.8662 21.9502C14.2477 22.0007 13.4838 22 12.5459 22H8.4541C7.51617 22 6.75233 22.0007 6.13379 21.9502C5.50357 21.8987 4.93625 21.7891 4.40723 21.5195C3.57769 21.0968 2.90317 20.4223 2.48047 19.5928C2.21092 19.0638 2.10131 18.4964 2.04981 17.8662C1.99927 17.2477 2 16.4838 2 15.5459ZM20 10V5.41406L12.707 12.707C12.3165 13.0976 11.6835 13.0976 11.293 12.707C10.9024 12.3165 10.9024 11.6835 11.293 11.293L18.5859 4H14C13.4477 4 13 3.55228 13 3C13 2.44772 13.4477 2 14 2H18.7598L19.2949 2.00293C19.4627 2.00563 19.619 2.01089 19.7607 2.02246C20.056 2.04659 20.3753 2.10164 20.6895 2.26172C21.141 2.49182 21.5082 2.85896 21.7383 3.31055C21.8984 3.62474 21.9534 3.94398 21.9775 4.23926C22.0007 4.52284 22 4.86479 22 5.24023V10C22 10.5523 21.5523 11 21 11C20.4477 11 20 10.5523 20 10Z" fill="#000"/>
</svg>
