<svg width="24" height="24" viewBox="0 0 24 24" fill="none" xmlns="http://www.w3.org/2000/svg">
<path d="M21 7C21 5.34315 19.6569 4 18 4H6C4.34315 4 3 5.34315 3 7V17C3 18.6569 4.34315 20 6 20H18C19.6569 20 21 18.6569 21 17V7ZM17.4453 7.16797C17.9048 6.86162 18.5257 6.98578 18.832 7.44531C19.1384 7.90484 19.0142 8.52568 18.5547 8.83203L14.7734 11.3525C13.0939 12.4722 10.9061 12.4722 9.22656 11.3525L5.44531 8.83203L5.36328 8.77148C4.97184 8.44921 4.88068 7.87624 5.16797 7.44531C5.45515 7.01454 6.01884 6.8782 6.4668 7.11523L6.55469 7.16797L10.3359 9.68848C11.3436 10.3603 12.6564 10.3603 13.6641 9.68848L17.4453 7.16797ZM23 17C23 19.7614 20.7614 22 18 22H6C3.23858 22 1 19.7614 1 17V7C1 4.23858 3.23858 2 6 2H18C20.7614 2 23 4.23858 23 7V17Z" fill="#000"/>
</svg>
