<svg width="24" height="24" viewBox="0 0 24 24" fill="none" xmlns="http://www.w3.org/2000/svg">
<path d="M21 12C21 7.02944 16.9706 3 12 3C7.02944 3 3 7.02944 3 12C3 16.9706 7.02944 21 12 21C16.9706 21 21 16.9706 21 12ZM8.46484 16.9502C8.07432 17.3407 7.44032 17.3407 7.0498 16.9502C6.65932 16.5597 6.65932 15.9257 7.0498 15.5352L8.46484 16.9502ZM16.9502 15.5352C17.3407 15.9257 17.3407 16.5597 16.9502 16.9502C16.5597 17.3407 15.9257 17.3407 15.5352 16.9502L16.9502 15.5352ZM16.2422 7.75781L16.9502 8.46484L13.4141 12L16.9502 15.5352L16.2422 16.2422L15.5352 16.9502L12 13.4141L8.46484 16.9502L7.75781 16.2422L7.0498 15.5352L10.585 12L7.0498 8.46484L7.75781 7.75781L8.46484 7.0498L12 10.585L15.5352 7.0498L16.2422 7.75781ZM7.0498 7.0498C7.44032 6.65929 8.07432 6.65931 8.46484 7.0498L7.0498 8.46484C6.65932 8.07433 6.65932 7.44032 7.0498 7.0498ZM15.5352 7.0498C15.9257 6.65932 16.5597 6.65932 16.9502 7.0498C17.3407 7.44032 17.3407 8.07432 16.9502 8.46484L15.5352 7.0498ZM23 12C23 18.0751 18.0751 23 12 23C5.92487 23 1 18.0751 1 12C1 5.92487 5.92487 1 12 1C18.0751 1 23 5.92487 23 12Z" fill="#000"/>
</svg>
