<svg width="24" height="24" viewBox="0 0 24 24" fill="none" xmlns="http://www.w3.org/2000/svg">
<path d="M14.1 18.3H12.7V16.9H14.1V18.3ZM12.7 13.4H11.3V16.9H12.7V13.4ZM18.3 12H16.9V14.8H18.3V12ZM16.9 10.6H15.5V12H16.9V10.6ZM8.5 12H7.1V13.4H8.5V12ZM7.1 10.6H5.7V12H7.1V10.6ZM12 7.10001H13.4V5.70001H12V7.10001ZM6.75 6.75001V8.85001H8.85V6.75001H6.75ZM9.9 9.90001H5.7V5.70001H9.9V9.90001ZM6.75 15.15V17.25H8.85V15.15H6.75ZM9.9 18.3H5.7V14.1H9.9V18.3ZM15.15 6.75001V8.85001H17.25V6.75001H15.15ZM18.3 9.90001H14.1V5.70001H18.3V9.90001ZM16.9 16.9V14.8H14.1V16.2H15.5V18.3H18.3V16.9H16.9ZM15.5 12H12.7V13.4H15.5V12ZM12.7 10.6H8.5V12H9.9V13.4H11.3V12H12.7V10.6ZM13.4 9.90001V8.50001H12V7.10001H10.6V9.90001H13.4ZM8.325 7.27501H7.275V8.32501H8.325V7.27501ZM8.325 15.675H7.275V16.725H8.325V15.675ZM16.725 7.27501H15.675V8.32501H16.725V7.27501Z" fill="#000"/>
<path d="M2 7.5V4.7998C2.00011 3.25356 3.25356 2.00011 4.7998 2H7.5L7.60254 2.00488C8.10667 2.05621 8.5 2.48232 8.5 3C8.5 3.51768 8.10667 3.94379 7.60254 3.99512L7.5 4H4.7998C4.35813 4.00011 4.00011 4.35813 4 4.7998V7.5C4 8.05228 3.55228 8.5 3 8.5C2.44772 8.5 2 8.05228 2 7.5Z" fill="#000"/>
<path d="M20 7.5V4.7998C19.9999 4.38582 19.6854 4.04505 19.2822 4.00391L19.2002 4H16.5C15.9477 4 15.5 3.55228 15.5 3C15.5 2.44772 15.9477 2 16.5 2H19.2002L19.4863 2.01465C20.8982 2.15806 21.9999 3.35017 22 4.7998V7.5C22 8.05228 21.5523 8.5 21 8.5C20.4477 8.5 20 8.05228 20 7.5Z" fill="#000"/>
<path d="M2 19.2002V16.5C2 15.9477 2.44772 15.5 3 15.5C3.55228 15.5 4 15.9477 4 16.5V19.2002L4.00391 19.2822C4.04505 19.6854 4.38582 19.9999 4.7998 20H7.5L7.60254 20.0049C8.10667 20.0562 8.5 20.4823 8.5 21C8.5 21.5177 8.10667 21.9438 7.60254 21.9951L7.5 22H4.7998C3.35017 21.9999 2.15806 20.8982 2.01465 19.4863L2 19.2002Z" fill="#000"/>
<path d="M20 19.2002V16.5C20 15.9477 20.4477 15.5 21 15.5C21.5523 15.5 22 15.9477 22 16.5V19.2002C21.9999 20.7464 20.7464 21.9999 19.2002 22H16.5C15.9477 22 15.5 21.5523 15.5 21C15.5 20.4477 15.9477 20 16.5 20H19.2002C19.6419 19.9999 19.9999 19.6419 20 19.2002Z" fill="#000"/>
</svg>
