<svg width="24" height="24" viewBox="0 0 24 24" fill="none" xmlns="http://www.w3.org/2000/svg">
<path d="M14.7002 19.4385C15.1143 19.073 15.7468 19.1123 16.1123 19.5264C16.4777 19.9404 16.4375 20.573 16.0234 20.9385L15.8457 21.0889C14.9369 21.8225 13.7783 22.2627 12.5195 22.2627C11.261 22.2626 10.103 21.8224 9.19433 21.0889L9.01562 20.9385L8.94238 20.8662C8.59853 20.4941 8.58523 19.9144 8.92773 19.5264C9.27046 19.1381 9.8478 19.0794 10.2598 19.375L10.3398 19.4385L10.5654 19.6211C11.1124 20.0246 11.7873 20.2626 12.5195 20.2627C13.3563 20.2627 14.1184 19.9519 14.7002 19.4385ZM17.9629 9.44531C17.9627 6.42815 15.5356 4 12.5195 4C9.48319 4.0002 7.03825 6.32588 7.03808 9.44531V12.8398C7.03805 13.4626 6.9407 14.0821 6.74999 14.6738L6.33398 15.9658H18.667L18.2441 14.6543C18.0576 14.0756 17.9629 13.4704 17.9629 12.8623V9.44531ZM19.9629 12.8623C19.9629 13.262 20.0249 13.6596 20.1475 14.04L20.9463 16.5186C21.1766 17.2333 20.6435 17.9658 19.8926 17.9658H5.10058C4.30658 17.9657 3.83857 17.1891 4.05371 16.5215L4.84667 14.0596C4.97322 13.6668 5.03805 13.2549 5.03808 12.8398V9.44531C5.03826 5.18199 8.41835 2.0002 12.5195 2C16.6413 2 19.9627 5.3247 19.9629 9.44531V12.8623Z" fill="#000"/>
</svg>
