<svg width="24" height="24" viewBox="0 0 24 24" fill="none" xmlns="http://www.w3.org/2000/svg">
<path d="M19 5.2002C19 4.62365 18.9987 4.25112 18.9756 3.96778C18.9534 3.69619 18.9158 3.59534 18.8906 3.5459C18.7948 3.35793 18.6421 3.20522 18.4541 3.10938C18.4047 3.08419 18.3038 3.04662 18.0322 3.02442C17.7489 3.00127 17.3764 3 16.7998 3H10V21H16.7998C17.3764 21 17.7489 20.9987 18.0322 20.9756C18.3038 20.9534 18.4047 20.9158 18.4541 20.8906C18.6421 20.7948 18.7948 20.6421 18.8906 20.4541C18.9158 20.4047 18.9534 20.3038 18.9756 20.0322C18.9987 19.7489 19 19.3764 19 18.7998V5.2002ZM8 3C7.5349 3.00045 7.21692 3.00406 6.96777 3.02442C6.69619 3.04662 6.59534 3.08419 6.5459 3.10938C6.35793 3.20522 6.20521 3.35793 6.10938 3.5459C6.08419 3.59534 6.04661 3.69619 6.02441 3.96778C6.00126 4.25112 6 4.62365 6 5.2002V18.7998C6 19.3764 6.00126 19.7489 6.02441 20.0322C6.04661 20.3038 6.08419 20.4047 6.10938 20.4541C6.20521 20.6421 6.35793 20.7948 6.5459 20.8906C6.59534 20.9158 6.69619 20.9534 6.96777 20.9756C7.21692 20.9959 7.5349 20.9986 8 20.999V3ZM21 18.7998C21 19.3434 21.0011 19.8116 20.9697 20.1953C20.9374 20.5906 20.8656 20.984 20.6729 21.3623C20.3853 21.9265 19.9265 22.3853 19.3623 22.6729C18.984 22.8656 18.5906 22.9374 18.1953 22.9697C17.8116 23.0011 17.3434 23 16.7998 23H8.2002C7.65664 23 7.18836 23.0011 6.80469 22.9697C6.40943 22.9374 6.01599 22.8656 5.6377 22.6729C5.07347 22.3853 4.61472 21.9265 4.32715 21.3623C4.1344 20.984 4.06258 20.5906 4.03027 20.1953C4.00284 19.8595 4.00126 19.459 4.00098 19C2.89641 19 2 18.1046 2 17C2 15.8954 2.89543 15 4 15V9C2.89543 9 2 8.10457 2 7C2 5.89543 2.89543 5 4 5C4.00028 4.54097 4.00284 4.14047 4.03027 3.80469C4.06258 3.40943 4.1344 3.016 4.32715 2.6377C4.61472 2.07348 5.07347 1.61473 5.6377 1.32715C6.01599 1.1344 6.40943 1.06259 6.80469 1.03028C7.18836 0.998931 7.65664 1 8.2002 1H16.7998C17.3434 1 17.8116 0.998931 18.1953 1.03028C18.5906 1.06259 18.984 1.1344 19.3623 1.32715C19.9265 1.61473 20.3853 2.07348 20.6729 2.6377C20.8656 3.016 20.9374 3.40943 20.9697 3.80469C21.0011 4.18836 21 4.65665 21 5.2002V18.7998Z" fill="#000"/>
</svg>
