<svg width="24" height="24" viewBox="0 0 24 24" fill="none" xmlns="http://www.w3.org/2000/svg">
    <path d="M3 7.5V4.8C3 3.80589 3.80589 3 4.8 3H7.5" stroke="#999" 
        stroke-linecap="round" />
    <path d="M16.5 3H19.2C20.1941 3 21 3.80589 21 4.8V7.5" stroke="#999" 
        stroke-linecap="round" />
    <path d="M3 16.5V19.2C3 20.1941 3.80589 21 4.8 21H7.5" stroke="#999" 
        stroke-linecap="round" />
    <path d="M21 16.5V19.2C21 20.1941 20.1941 21 19.2 21H16.5" stroke="#999" 
        stroke-linecap="round" />
    <path
        d="M12 18C15.3137 18 18 15.3137 18 12C18 8.68629 15.3137 6 12 6C8.68629 6 6 8.68629 6 12C6 15.3137 8.68629 18 12 18Z"
        stroke="#999"  stroke-linecap="round" stroke-linejoin="round" />
</svg>