<svg width="24" height="24" viewBox="0 0 24 24" fill="none" xmlns="http://www.w3.org/2000/svg">
<path d="M15 12C15 10.3431 13.6569 9 12 9H6C4.34315 9 3 10.3431 3 12V18C3 19.6569 4.34315 21 6 21H12C13.6569 21 15 19.6569 15 18V12ZM11.2471 12.3418C11.6107 11.9263 12.2426 11.8837 12.6582 12.2471C13.0737 12.6107 13.1163 13.2426 12.7529 13.6582L9.88281 16.9385C9.17805 17.7439 7.96368 17.8521 7.12793 17.1836L5.375 15.7812L5.29883 15.7129C4.93703 15.3579 4.89529 14.7793 5.21875 14.375C5.54225 13.9706 6.11622 13.884 6.54199 14.1592L6.625 14.2188L8.37793 15.6211L11.2471 12.3418ZM17 15H18C19.6569 15 21 13.6569 21 12V6C21 4.39489 19.7394 3.08421 18.1543 3.00391L18 3H12C10.3431 3 9 4.34315 9 6V7H12C14.7614 7 17 9.23858 17 12V15ZM23 12C23 14.7614 20.7614 17 18 17H17V18C17 20.7614 14.7614 23 12 23H6C3.23858 23 1 20.7614 1 18V12C1 9.23858 3.23858 7 6 7H7V6C7 3.23858 9.23858 1 12 1H18C20.7614 1 23 3.23858 23 6V12Z" fill="#000"/>
</svg>
