<svg width="24" height="24" viewBox="0 0 24 24" fill="none" xmlns="http://www.w3.org/2000/svg">
<path d="M12.9999 17C12.9999 17.5523 12.5522 18 11.9999 18C11.4476 18 10.9999 17.5523 10.9999 17C10.9999 16.4477 11.4476 16 11.9999 16C12.5522 16 12.9999 16.4477 12.9999 17Z" fill="#000"/>
<path d="M9.09861 3.6709C10.3679 1.44303 13.6321 1.44303 14.9013 3.6709L22.5732 17.1377C23.8349 19.3529 22.1676 22 19.6719 22H4.3281C1.8324 22 0.165015 19.3529 1.42674 17.1377L9.09861 3.6709ZM13.1631 4.66113C12.661 3.77988 11.339 3.77988 10.8369 4.66113L3.16502 18.127C2.70556 18.9334 3.27908 20 4.3281 20H19.6719C20.7209 20 21.2944 18.9334 20.8349 18.127L13.1631 4.66113ZM11 14V9C11 8.44772 11.4477 8 12 8C12.5522 8.00003 13 8.44774 13 9V14C13 14.5522 12.5522 15 12 15C11.4477 15 11 14.5523 11 14Z" fill="#000"/>
</svg>
