<svg width="24" height="24" viewBox="0 0 24 24" fill="none" xmlns="http://www.w3.org/2000/svg">
<path d="M12 4C16.2629 4 19.8786 7.08407 21.8555 9.16406C23.3818 10.7701 23.3818 13.2299 21.8555 14.8359C19.8786 16.9159 16.2629 20 12 20C7.73716 20 4.12145 16.9159 2.14454 14.8359C0.618183 13.2299 0.618182 10.7701 2.14454 9.16406C4.12145 7.08407 7.73716 4 12 4ZM12 6C8.63188 6 5.5294 8.50647 3.59473 10.542C2.80201 11.3761 2.80201 12.6239 3.59473 13.458C5.5294 15.4935 8.63188 18 12 18C15.3681 18 18.4706 15.4935 20.4053 13.458C21.198 12.6239 21.198 11.3761 20.4053 10.542C18.4706 8.50647 15.3681 6 12 6ZM14 12C14 10.8954 13.1046 10 12 10C10.8954 10 10 10.8954 10 12C10 13.1046 10.8954 14 12 14C13.1046 14 14 13.1046 14 12ZM16 12C16 14.2091 14.2091 16 12 16C9.79087 16 8.00001 14.2091 8.00001 12C8.00001 9.79086 9.79087 8 12 8C14.2091 8 16 9.79086 16 12Z" fill="#000"/>
</svg>
