<svg width="24" height="24" viewBox="0 0 24 24" fill="none" xmlns="http://www.w3.org/2000/svg">
<path d="M2 16C2.55228 16 3 16.4477 3 17V20C3 20.5523 3.44772 21 4 21H7C7.55228 21 8 21.4477 8 22C8 22.5523 7.55228 23 7 23H4C2.34315 23 1 21.6569 1 20V17C1 16.4477 1.44772 16 2 16ZM22 16C22.5523 16 23 16.4477 23 17V20C23 21.6569 21.6569 23 20 23H17C16.4477 23 16 22.5523 16 22C16 21.4477 16.4477 21 17 21H20C20.5523 21 21 20.5523 21 20V17C21 16.4477 21.4477 16 22 16ZM10.25 19.0088H5V13.9688H10.25V19.0088ZM16.667 12.7637H12.46V19.0088H11.417V11.7285H16.667V12.7637ZM16.9141 17.9004H17.957V15.6484H19V19.0088H13.75V17.9004H15.8711V15.6484H16.9141V17.9004ZM6.04297 18.0068H9.20703V14.9697H6.04297V18.0068ZM8.5 16.7686H7.33301V15.6484H8.5V16.7686ZM16.667 14.5283H14.3203V16.7686H13.167V13.4082H16.667V14.5283ZM19 15.0879H17.833V11.7285H19V15.0879ZM7.33301 12.2881H5V11.168H7.33301V12.2881ZM10.833 12.2881H8.5V11.168H10.833V12.2881ZM10.25 10.0488H5V5.00879H10.25V10.0488ZM12.583 10.0488H11.417V5.00879H12.583V10.0488ZM19 10.0488H13.75V5.00879H19V10.0488ZM6.04297 9.04688H9.20703V6.00977H6.04297V9.04688ZM14.793 9.04688H17.957V6.00977H14.793V9.04688ZM8.5 8.36816H7.33301V7.24805H8.5V8.36816ZM16.667 8.36816H15.5V7.24805H16.667V8.36816ZM7 1C7.55228 1 8 1.44772 8 2C8 2.55228 7.55228 3 7 3H4C3.44772 3 3 3.44772 3 4V7C3 7.55228 2.55228 8 2 8C1.44772 8 1 7.55228 1 7V4C1 2.34315 2.34315 1 4 1H7ZM20 1C21.6569 1 23 2.34315 23 4V7C23 7.55228 22.5523 8 22 8C21.4477 8 21 7.55228 21 7V4C21 3.44772 20.5523 3 20 3H17C16.4477 3 16 2.55228 16 2C16 1.44772 16.4477 1 17 1H20Z" fill="url(#paint0_linear_23_894)"/>
<defs>
<linearGradient id="paint0_linear_23_894" x1="-3.46615" y1="8.98913" x2="6.77079" y2="27.6491" gradientUnits="userSpaceOnUse">
<stop stop-color="#FFC629"/>
<stop offset="1" stop-color="#00A9CE"/>
</linearGradient>
</defs>
</svg>
