<svg width="24" height="24" viewBox="0 0 24 24" fill="none" xmlns="http://www.w3.org/2000/svg">
<path d="M11 8C11 7.44772 10.5523 7 10 7C9.44772 7 9 7.44772 9 8C9 8.55228 9.44772 9 10 9C10.5523 9 11 8.55228 11 8ZM13 8C13 9.65685 11.6569 11 10 11C8.34315 11 7 9.65685 7 8C7 6.34315 8.34315 5 10 5C11.6569 5 13 6.34315 13 8Z" fill="#000"/>
<path d="M20 16C20 15.4477 19.5523 15 19 15H15C14.4477 15 14 15.4477 14 16V20C14 20.5523 14.4477 21 15 21H19C19.5523 21 20 20.5523 20 20V16ZM16 10C16 7.4271 15.2737 5.7017 14.2314 4.62402C13.1892 3.54653 11.7188 3 10 3C8.28118 3 6.81076 3.54653 5.76855 4.62402C4.72627 5.7017 4 7.4271 4 10C4 11.4054 4.53467 12.9601 5.36621 14.5059C6.19114 16.0393 7.26539 17.485 8.24316 18.6533C9.18417 19.7777 10.8158 19.7777 11.7568 18.6533C11.8378 18.5565 11.9177 18.4562 12 18.3555V16C12 14.3431 13.3431 13 15 13H15.3398C15.7561 11.9588 16 10.9441 16 10ZM18 10C18 11.0094 17.7946 12.0212 17.4688 13H19C20.6569 13 22 14.3431 22 16V20C22 21.6569 20.6569 23 19 23H15C13.6612 23 12.5276 22.1229 12.1416 20.9121C10.3962 21.9368 8.11136 21.6131 6.70898 19.9375C5.68112 18.7094 4.51721 17.1479 3.60547 15.4531C2.7003 13.7705 2 11.8757 2 10C2 7.05021 2.83995 4.77502 4.33105 3.2334C5.82235 1.6916 7.85283 1 10 1C12.1472 1 14.1776 1.6916 15.6689 3.2334C17.16 4.77502 18 7.05021 18 10Z" fill="#000"/>
<path d="M16 15H18C18.5523 15 19 15.4477 19 16C19 16.5523 18.5523 17 18 17H16C15.4477 17 15 16.5523 15 16C15 15.4477 15.4477 15 16 15Z" fill="#000"/>
</svg>
