<svg width="24" height="24" viewBox="0 0 24 24" fill="none" xmlns="http://www.w3.org/2000/svg">
<path d="M2 5C2 3.34315 3.34315 2 5 2H6.64551C7.87222 2 8.97605 2.74676 9.43164 3.88574L10.2451 5.91992C10.7687 7.22887 10.3041 8.69943 9.18066 9.48633C9.24303 9.66735 9.32079 9.8774 9.41895 10.1064C9.76016 10.9026 10.3223 11.9083 11.207 12.793C12.0917 13.6777 13.0974 14.2398 13.8936 14.5811C14.1221 14.679 14.3319 14.7561 14.5127 14.8184C15.2996 13.6951 16.7712 13.2312 18.0801 13.7549L20.1143 14.5684C21.2533 15.0239 22 16.1278 22 17.3545V19C22 20.6569 20.6569 22 19 22C9.61111 22 2 14.3889 2 5ZM4 5C4 13.2843 10.7157 20 19 20C19.5523 20 20 19.5523 20 19V17.3545C20 16.9455 19.7507 16.5776 19.3711 16.4258L17.3369 15.6123C16.8543 15.4192 16.304 15.6277 16.0713 16.0928L15.8945 16.4473C15.7181 16.8001 15.3541 17.0118 14.9697 17L14.8037 16.9805H14.8008C14.7997 16.9803 14.7982 16.9798 14.7969 16.9795C14.7942 16.9789 14.7909 16.9783 14.7871 16.9775C14.7791 16.9759 14.7686 16.9735 14.7559 16.9707C14.7304 16.9651 14.6956 16.9568 14.6523 16.9463C14.5658 16.9252 14.445 16.8934 14.2959 16.8496C13.9983 16.7621 13.5855 16.6242 13.1064 16.4189C12.1526 16.0101 10.9082 15.3223 9.79297 14.207C8.67774 13.0918 7.98985 11.8474 7.58105 10.8936C7.37576 10.4145 7.23793 10.0017 7.15039 9.7041C7.10655 9.55505 7.07475 9.43417 7.05371 9.34766C7.04319 9.30439 7.03492 9.26963 7.0293 9.24414C7.02649 9.23143 7.02415 9.22091 7.02246 9.21289C7.02166 9.2091 7.02106 9.20583 7.02051 9.20312C7.02024 9.2018 7.01974 9.20027 7.01953 9.19922V9.19629C6.93109 8.7541 7.14939 8.30714 7.55273 8.10547L7.90723 7.92871C8.37215 7.69607 8.5807 7.14585 8.3877 6.66309L7.57422 4.62891C7.42235 4.24924 7.05442 4 6.64551 4H5C4.44771 4 4 4.44771 4 5Z" fill="#000"/>
</svg>
