<svg width="24" height="24" viewBox="0 0 24 24" fill="none" xmlns="http://www.w3.org/2000/svg">
<path d="M21 14.5117L18.4766 12.6953C17.3312 11.8707 15.7658 11.9563 14.7168 12.9004L10.6211 16.5859C8.87263 18.1596 6.26348 18.3022 4.35449 16.9277L3 15.9521V18C3 19.6569 4.34315 21 6 21H18C19.6569 21 21 19.6569 21 18V14.5117ZM10 8.5C10 7.67157 9.32843 7 8.5 7C7.67157 7 7 7.67157 7 8.5C7 9.32843 7.67157 10 8.5 10C9.32843 10 10 9.32843 10 8.5ZM21 6C21 4.34315 19.6569 3 18 3H6C4.34315 3 3 4.34315 3 6V13.4873L5.52344 15.3047C6.66882 16.1293 8.23417 16.0437 9.2832 15.0996L13.3789 11.4141C15.1274 9.84044 17.7365 9.69779 19.6455 11.0723L21 12.0469V6ZM12 8.5C12 10.433 10.433 12 8.5 12C6.567 12 5 10.433 5 8.5C5 6.567 6.567 5 8.5 5C10.433 5 12 6.567 12 8.5ZM23 18C23 20.7614 20.7614 23 18 23H6C3.23858 23 1 20.7614 1 18V6C1 3.23858 3.23858 1 6 1H18C20.7614 1 23 3.23858 23 6V18Z" fill="#000"/>
</svg>
