<svg width="24" height="24" viewBox="0 0 24 24" fill="none" xmlns="http://www.w3.org/2000/svg">
<path d="M21 13V8C21 6.34315 19.6569 5 18 5H6C4.34315 5 3 6.34315 3 8V16C3 17.6569 4.34315 19 6 19H13C13.5523 19 14 19.4477 14 20C14 20.5523 13.5523 21 13 21H6C3.23858 21 1 18.7614 1 16V8C1 5.23858 3.23858 3 6 3H18C20.7614 3 23 5.23858 23 8V13C23 13.5523 22.5523 14 22 14C21.4477 14 21 13.5523 21 13Z" fill="#000"/>
<path d="M7 8C7 7.44772 6.55228 7 6 7C5.44772 7 5 7.44772 5 8C5 8.55228 5.44772 9 6 9C6.55228 9 7 8.55228 7 8Z" fill="#000"/>
<path d="M13 12C13 12.5523 12.5523 13 12 13C11.4477 13 11 12.5523 11 12C11 11.4477 11.4477 11 12 11C12.5523 11 13 11.4477 13 12ZM15 12C15 10.3431 13.6569 9 12 9C10.3431 9 9 10.3431 9 12C9 13.6569 10.3431 15 12 15C13.6569 15 15 13.6569 15 12Z" fill="#000"/>
<path d="M16 19H20L19.707 19.293C19.3166 19.6835 19.3166 20.3165 19.707 20.707C20.0975 21.0975 20.7306 21.0975 21.1211 20.707L22.4141 19.4141C23.1951 18.633 23.1951 17.367 22.4141 16.5859L21.1211 15.293L21.0449 15.2246C20.6521 14.9043 20.0731 14.9269 19.707 15.293C19.341 15.6591 19.3184 16.2381 19.6387 16.6309L19.707 16.707L20 17H16C15.4477 17 15 17.4477 15 18C15 18.5523 15.4477 19 16 19Z" fill="#000"/>
</svg>
