<svg width="24" height="24" viewBox="0 0 24 24" fill="none" xmlns="http://www.w3.org/2000/svg">
<path d="M6 2L18 2C20.7614 2 23 4.23858 23 7V13L22.9951 13.1025C22.9438 13.6067 22.5177 14 22 14C21.4823 14 21.0562 13.6067 21.0049 13.1025L21 13V7C21 5.34315 19.6569 4 18 4L6 4C4.34315 4 3 5.34315 3 7L3 17C3 18.6569 4.34315 20 6 20H13C13.5523 20 14 20.4477 14 21C14 21.5523 13.5523 22 13 22H6C3.23858 22 1 19.7614 1 17L1 7C1 4.23858 3.23858 2 6 2Z" fill="#000"/>
<path d="M20 17C20 17.5523 19.5523 18 19 18C18.4477 18 18 17.5523 18 17C18 16.4477 18.4477 16 19 16C19.5523 16 20 16.4477 20 17ZM22 17C22 15.3431 20.6569 14 19 14C17.3431 14 16 15.3431 16 17C16 18.6569 17.3431 20 19 20C20.6569 20 22 18.6569 22 17Z" fill="#000"/>
<path d="M21.1055 21.4482C21.3528 21.9419 21.9545 22.1418 22.4482 21.8945C22.9419 21.6472 23.1418 21.0455 22.8945 20.5518C22.1585 19.0824 20.7276 18 19 18C17.3804 18 16.0219 18.9515 15.252 20.2812L15.1055 20.5518L15.0645 20.6455C14.8843 21.1193 15.0888 21.6626 15.5518 21.8945C16.0147 22.1264 16.5721 21.965 16.8438 21.5371L16.8945 21.4482L16.9844 21.2793C17.4566 20.4621 18.2161 20 19 20C19.8362 20 20.6438 20.5265 21.1055 21.4482Z" fill="#000"/>
</svg>
