<svg width="24" height="24" viewBox="0 0 24 24" fill="none" xmlns="http://www.w3.org/2000/svg">
<path d="M21 6C21 4.34315 19.6569 3 18 3H6C4.34315 3 3 4.34315 3 6V18C3 19.6569 4.34315 21 6 21H18C19.6569 21 21 19.6569 21 18V6ZM7 16C7 13.6121 8.21484 11.8216 9.94531 10.668C10.8961 10.0341 12.0047 9.58784 13.1729 9.31738L12.4453 8.83203L12.3633 8.77148C11.9718 8.44921 11.8807 7.87624 12.168 7.44531C12.4552 7.01454 13.0188 6.8782 13.4668 7.11523L13.5547 7.16797L16.5547 9.16797C17.0142 9.47432 17.1384 10.0952 16.832 10.5547L14.832 13.5547C14.5257 14.0142 13.9048 14.1384 13.4453 13.832C12.9858 13.5257 12.8616 12.9048 13.168 12.4453L14.0068 11.1855C12.8984 11.3964 11.8772 11.7837 11.0547 12.332C9.78516 13.1784 9 14.3879 9 16C9 16.5523 8.55228 17 8 17C7.44772 17 7 16.5523 7 16ZM23 18C23 20.7614 20.7614 23 18 23H6C3.23858 23 1 20.7614 1 18V6C1 3.23858 3.23858 1 6 1H18C20.7614 1 23 3.23858 23 6V18Z" fill="#000"/>
</svg>
