<svg width="24" height="24" viewBox="0 0 24 24" fill="none" xmlns="http://www.w3.org/2000/svg">
<path d="M18 17.5C18 17.1164 17.663 16.5001 16.5029 15.9199C15.4023 15.3696 13.8114 15 12 15C10.1886 15 8.5977 15.3696 7.49707 15.9199C6.337 16.5001 6 17.1164 6 17.5C6 17.8836 6.337 18.4999 7.49707 19.0801C8.5977 19.6304 10.1886 20 12 20C13.8114 20 15.4023 19.6304 16.5029 19.0801C17.663 18.4999 18 17.8836 18 17.5ZM20 17.5C20 19.0493 18.7695 20.1826 17.3965 20.8691C15.9636 21.5855 14.0544 22 12 22C9.94557 22 8.03635 21.5855 6.60352 20.8691C5.23046 20.1826 4 19.0493 4 17.5C4 15.9507 5.23046 14.8174 6.60352 14.1309C8.03635 13.4145 9.94557 13 12 13C14.0544 13 15.9636 13.4145 17.3965 14.1309C18.7695 14.8174 20 15.9507 20 17.5Z" fill="#000"/>
<path d="M15 7C15 5.34315 13.6569 4 12 4C10.3431 4 9 5.34315 9 7C9 8.65685 10.3431 10 12 10C13.6569 10 15 8.65685 15 7ZM17 7C17 9.76142 14.7614 12 12 12C9.23858 12 7 9.76142 7 7C7 4.23858 9.23858 2 12 2C14.7614 2 17 4.23858 17 7Z" fill="#000"/>
</svg>
