<svg width="20" height="20" viewBox="0 0 20 20" fill="none" xmlns="http://www.w3.org/2000/svg">
<path fill-rule="evenodd" clip-rule="evenodd" d="M10 20C15.5228 20 20 15.5228 20 10C20 4.47715 15.5228 0 10 0C4.47715 0 0 4.47715 0 10C0 15.5228 4.47715 20 10 20ZM10.75 6C10.75 5.58579 10.4142 5.25 10 5.25C9.58579 5.25 9.25 5.58579 9.25 6V7C9.25 7.41421 9.58579 7.75 10 7.75C10.4142 7.75 10.75 7.41421 10.75 7V6ZM10.75 9.5C10.75 9.08579 10.4142 8.75 10 8.75C9.58579 8.75 9.25 9.08579 9.25 9.5V14C9.25 14.4142 9.58579 14.75 10 14.75C10.4142 14.75 10.75 14.4142 10.75 14V9.5Z" fill="#000"/>
</svg>
